STARTFONT 2.1
COMMENT 
COMMENT Ayu 20dots Gothic Version 1.7 (Mar.5,2004).
COMMENT 
COMMENT This font is designed for subset of Kochi-Gothic, and many glyphs
COMMENT are based on Kappa 20 dots fonts created by KANOU Hiroki
COMMENT (kanou@khdd.net).
COMMENT 
COMMENT For more information, see http://x-tt.sourceforge.jp/ayu.html
COMMENT 
COMMENT THIS FONT IS PUBLIC DOMAIN: YOU CAN USE, COPY, MODIFY, EVEN COPYRIGHT
COMMENT AS YOURS AND SELL THIS FONT, BUT YOU CAN'T PROHIBIT ANYONE FROM FREE
COMMENT CIRCULATION OF THIS FONT AND ITS DESCENDANTS INDEPENDENT OF YOUR
COMMENT VARIATIONS AND/OR DERIVATIONS.
COMMENT 
FONT -Ayu-Gothic-Medium-R-Normal--20-190-75-75-C-200-JISX0208.1990-0
SIZE 19 75 75
FONTBOUNDINGBOX 20 20 0 -3
STARTPROPERTIES 19
FONT_ASCENT 17
FONT_DESCENT 3
COPYRIGHT "public domain"
DEFAULT_CHAR 8481
FONTNAME_REGISTRY ""
FOUNDRY "Ayu"
FAMILY_NAME "Gothic"
WEIGHT_NAME "Medium"
SLANT "R"
SETWIDTH_NAME "Normal"
ADD_STYLE_NAME ""
PIXEL_SIZE 20
POINT_SIZE 190
RESOLUTION_X 75
RESOLUTION_Y 75
SPACING "C"
AVERAGE_WIDTH 200
CHARSET_REGISTRY "JISX0208.1990"
CHARSET_ENCODING "0"
ENDPROPERTIES
CHARS 6963
STARTCHAR 01-01
ENCODING 8481
SWIDTH 1010 0
DWIDTH 20 0
BBX 20 20 0 -3
BITMAP
000000
000000
000000
000000
000000
000000
000000
000000
000000
000000
000000
000000
000000
000000
000000
000000
000000
000000
000000
000000
ENDCHAR
STARTCHAR 01-02
ENCODING 8482
SWIDTH 1010 0
DWIDTH 20 0
BBX 20 20 0 -3
BITMAP
000000
000000
000000
000000
000000
000000
000000
000000
000000
000000
000000
000000
000000
000000
200000
100000
080000
040000
000000
000000
ENDCHAR
STARTCHAR 01-03
ENCODING 8483
SWIDTH 1010 0
DWIDTH 20 0
BBX 20 20 0 -3
BITMAP
000000
000000
000000
000000
000000
000000
000000
000000
000000
000000
000000
000000
000000
000000
380000
440000
440000
440000
380000
000000
ENDCHAR
STARTCHAR 01-04
ENCODING 8484
SWIDTH 1010 0
DWIDTH 20 0
BBX 20 20 0 -3
BITMAP
000000
000000
000000
000000
000000
000000
000000
000000
000000
000000
000000
000000
000000
000000
0c0000
0c0000
040000
040000
080000
000000
ENDCHAR
STARTCHAR 01-05
ENCODING 8485
SWIDTH 1010 0
DWIDTH 20 0
BBX 20 20 0 -3
BITMAP
000000
000000
000000
000000
000000
000000
000000
000000
000000
000000
000000
000000
000000
000000
0c0000
0c0000
0c0000
000000
000000
000000
ENDCHAR
STARTCHAR 01-06
ENCODING 8486
SWIDTH 1010 0
DWIDTH 20 0
BBX 20 20 0 -3
BITMAP
000000
000000
000000
000000
000000
000000
000000
000000
00e000
00e000
00e000
000000
000000
000000
000000
000000
000000
000000
000000
000000
ENDCHAR
STARTCHAR 01-07
ENCODING 8487
SWIDTH 1010 0
DWIDTH 20 0
BBX 20 20 0 -3
BITMAP
000000
000000
000000
000000
000000
000000
00e000
00e000
00e000
000000
000000
000000
000000
00e000
00e000
00e000
000000
000000
000000
000000
ENDCHAR
STARTCHAR 01-08
ENCODING 8488
SWIDTH 1010 0
DWIDTH 20 0
BBX 20 20 0 -3
BITMAP
000000
000000
000000
000000
000000
000000
00e000
00e000
00e000
000000
000000
000000
000000
00e000
00e000
006000
004000
008000
000000
000000
ENDCHAR
STARTCHAR 01-09
ENCODING 8489
SWIDTH 1010 0
DWIDTH 20 0
BBX 20 20 0 -3
BITMAP
000000
000000
01f000
020800
040400
040400
040400
000800
001000
002000
004000
004000
004000
000000
000000
004000
00e000
004000
000000
000000
ENDCHAR
STARTCHAR 01-10
ENCODING 8490
SWIDTH 1010 0
DWIDTH 20 0
BBX 20 20 0 -3
BITMAP
000000
000000
004000
004000
004000
004000
004000
004000
004000
004000
004000
004000
004000
000000
000000
004000
00e000
004000
000000
000000
ENDCHAR
STARTCHAR 01-11
ENCODING 8491
SWIDTH 1010 0
DWIDTH 20 0
BBX 20 20 0 -3
BITMAP
000000
100000
080000
440000
200000
100000
000000
000000
000000
000000
000000
000000
000000
000000
000000
000000
000000
000000
000000
000000
ENDCHAR
STARTCHAR 01-12
ENCODING 8492
SWIDTH 1010 0
DWIDTH 20 0
BBX 20 20 0 -3
BITMAP
000000
380000
440000
440000
440000
380000
000000
000000
000000
000000
000000
000000
000000
000000
000000
000000
000000
000000
000000
000000
ENDCHAR
STARTCHAR 01-13
ENCODING 8493
SWIDTH 1010 0
DWIDTH 20 0
BBX 20 20 0 -3
BITMAP
000000
001000
002000
004000
008000
000000
000000
000000
000000
000000
000000
000000
000000
000000
000000
000000
000000
000000
000000
000000
ENDCHAR
STARTCHAR 01-14
ENCODING 8494
SWIDTH 1010 0
DWIDTH 20 0
BBX 20 20 0 -3
BITMAP
000000
008000
004000
002000
001000
000000
000000
000000
000000
000000
000000
000000
000000
000000
000000
000000
000000
000000
000000
000000
ENDCHAR
STARTCHAR 01-15
ENCODING 8495
SWIDTH 1010 0
DWIDTH 20 0
BBX 20 20 0 -3
BITMAP
000000
031800
031800
000000
000000
000000
000000
000000
000000
000000
000000
000000
000000
000000
000000
000000
000000
000000
000000
000000
ENDCHAR
STARTCHAR 01-16
ENCODING 8496
SWIDTH 1010 0
DWIDTH 20 0
BBX 20 20 0 -3
BITMAP
000000
006000
009000
010800
000000
000000
000000
000000
000000
000000
000000
000000
000000
000000
000000
000000
000000
000000
000000
000000
ENDCHAR
STARTCHAR 01-17
ENCODING 8497
SWIDTH 1010 0
DWIDTH 20 0
BBX 20 20 0 -3
BITMAP
fffff0
000000
000000
000000
000000
000000
000000
000000
000000
000000
000000
000000
000000
000000
000000
000000
000000
000000
000000
000000
ENDCHAR
STARTCHAR 01-18
ENCODING 8498
SWIDTH 1010 0
DWIDTH 20 0
BBX 20 20 0 -3
BITMAP
000000
000000
000000
000000
000000
000000
000000
000000
000000
000000
000000
000000
000000
000000
000000
000000
000000
000000
000000
fffff0
ENDCHAR
STARTCHAR 01-19
ENCODING 8499
SWIDTH 1010 0
DWIDTH 20 0
BBX 20 20 0 -3
BITMAP
000000
000000
000000
000000
000000
000000
000000
010000
008000
004000
002000
002000
001000
001000
000800
000800
000800
000000
000000
000000
ENDCHAR
STARTCHAR 01-20
ENCODING 8500
SWIDTH 1010 0
DWIDTH 20 0
BBX 20 20 0 -3
BITMAP
000000
000000
000000
000000
000000
000400
001200
010900
008400
004000
002000
002000
001000
001000
000800
000800
000800
000000
000000
000000
ENDCHAR
STARTCHAR 01-21
ENCODING 8501
SWIDTH 1010 0
DWIDTH 20 0
BBX 20 20 0 -3
BITMAP
000000
000000
000000
000000
000000
000000
000000
008000
004000
002000
001000
000800
000800
000400
000400
000c00
00f000
000000
000000
000000
ENDCHAR
STARTCHAR 01-22
ENCODING 8502
SWIDTH 1010 0
DWIDTH 20 0
BBX 20 20 0 -3
BITMAP
000000
000000
000000
000000
000000
000400
001200
008900
004400
002000
001000
000800
000800
000400
000400
000c00
00f000
000000
000000
000000
ENDCHAR
STARTCHAR 01-23
ENCODING 8503
SWIDTH 1010 0
DWIDTH 20 0
BBX 20 20 0 -3
BITMAP
000000
000000
000000
000000
000000
000000
008400
008400
008400
010800
010800
021000
021000
042000
000000
000000
000000
000000
000000
000000
ENDCHAR
STARTCHAR 01-24
ENCODING 8504
SWIDTH 1010 0
DWIDTH 20 0
BBX 20 20 0 -3
BITMAP
004000
004000
00a000
00a000
011000
020800
040400
080200
100100
200080
c7fc60
004000
004000
004000
004000
004000
004000
004000
7fffc0
000000
ENDCHAR
STARTCHAR 01-25
ENCODING 8505
SWIDTH 1010 0
DWIDTH 20 0
BBX 20 20 0 -3
BITMAP
000000
000000
000000
004000
004000
008000
008000
01fe00
010200
020200
040400
080400
100800
00d000
002000
001000
000800
000400
000000
000000
ENDCHAR
STARTCHAR 01-26
ENCODING 8506
SWIDTH 1010 0
DWIDTH 20 0
BBX 20 20 0 -3
BITMAP
000000
000000
000000
0000c0
000100
000200
000400
038800
045000
082000
085000
108800
110800
120000
240000
280000
300000
200000
000000
000000
ENDCHAR
STARTCHAR 01-27
ENCODING 8507
SWIDTH 1010 0
DWIDTH 20 0
BBX 20 20 0 -3
BITMAP
000000
01f800
060600
080100
100080
200040
200040
400020
400020
400020
400020
400020
400020
200040
200040
100080
080100
060600
01f800
000000
ENDCHAR
STARTCHAR 01-28
ENCODING 8508
SWIDTH 1010 0
DWIDTH 20 0
BBX 20 20 0 -3
BITMAP
000000
000000
000000
000000
000000
000000
000000
000000
200000
1fffc0
000000
000000
000000
000000
000000
000000
000000
000000
000000
000000
ENDCHAR
STARTCHAR 01-29
ENCODING 8509
SWIDTH 1010 0
DWIDTH 20 0
BBX 20 20 0 -3
BITMAP
000000
000000
000000
000000
000000
000000
000000
000000
000000
7fffe0
000000
000000
000000
000000
000000
000000
000000
000000
000000
000000
ENDCHAR
STARTCHAR 01-30
ENCODING 8510
SWIDTH 1010 0
DWIDTH 20 0
BBX 20 20 0 -3
BITMAP
000000
000000
000000
000000
000000
000000
000000
000000
000000
03fc00
000000
000000
000000
000000
000000
000000
000000
000000
000000
000000
ENDCHAR
STARTCHAR 01-31
ENCODING 8511
SWIDTH 1010 0
DWIDTH 20 0
BBX 20 20 0 -3
BITMAP
000000
000020
000040
000080
000100
000200
000400
000800
001000
002000
004000
008000
010000
020000
040000
080000
100000
200000
400000
000000
ENDCHAR
STARTCHAR 01-32
ENCODING 8512
SWIDTH 1010 0
DWIDTH 20 0
BBX 20 20 0 -3
BITMAP
000000
400000
200000
100000
080000
040000
020000
010000
008000
004000
002000
001000
000800
000400
000200
000100
000080
000040
000020
000000
ENDCHAR
STARTCHAR 01-33
ENCODING 8513
SWIDTH 1010 0
DWIDTH 20 0
BBX 20 20 0 -3
BITMAP
000000
000000
000000
000000
000000
000000
000000
000000
070000
18c020
202040
401980
000600
000000
000000
000000
000000
000000
000000
000000
ENDCHAR
STARTCHAR 01-34
ENCODING 8514
SWIDTH 1010 0
DWIDTH 20 0
BBX 20 20 0 -3
BITMAP
011000
011000
011000
011000
011000
011000
011000
011000
011000
011000
011000
011000
011000
011000
011000
011000
011000
011000
011000
011000
ENDCHAR
STARTCHAR 01-35
ENCODING 8515
SWIDTH 1010 0
DWIDTH 20 0
BBX 20 20 0 -3
BITMAP
004000
004000
004000
004000
004000
004000
004000
004000
004000
004000
004000
004000
004000
004000
004000
004000
004000
004000
004000
004000
ENDCHAR
STARTCHAR 01-36
ENCODING 8516
SWIDTH 1010 0
DWIDTH 20 0
BBX 20 20 0 -3
BITMAP
000000
000000
000000
000000
000000
000000
000000
000000
000000
186180
186180
000000
000000
000000
000000
000000
000000
000000
000000
000000
ENDCHAR
STARTCHAR 01-37
ENCODING 8517
SWIDTH 1010 0
DWIDTH 20 0
BBX 20 20 0 -3
BITMAP
000000
000000
000000
000000
000000
000000
000000
000000
000000
0c0300
0c0300
000000
000000
000000
000000
000000
000000
000000
000000
000000
ENDCHAR
STARTCHAR 01-38
ENCODING 8518
SWIDTH 1010 0
DWIDTH 20 0
BBX 20 20 0 -3
BITMAP
000000
000040
000080
0000c0
0000c0
000000
000000
000000
000000
000000
000000
000000
000000
000000
000000
000000
000000
000000
000000
000000
ENDCHAR
STARTCHAR 01-39
ENCODING 8519
SWIDTH 1010 0
DWIDTH 20 0
BBX 20 20 0 -3
BITMAP
000000
300000
300000
100000
200000
000000
000000
000000
000000
000000
000000
000000
000000
000000
000000
000000
000000
000000
000000
000000
ENDCHAR
STARTCHAR 01-40
ENCODING 8520
SWIDTH 1010 0
DWIDTH 20 0
BBX 20 20 0 -3
BITMAP
000000
000440
000880
000cc0
000cc0
000000
000000
000000
000000
000000
000000
000000
000000
000000
000000
000000
000000
000000
000000
000000
ENDCHAR
STARTCHAR 01-41
ENCODING 8521
SWIDTH 1010 0
DWIDTH 20 0
BBX 20 20 0 -3
BITMAP
000000
330000
330000
110000
220000
000000
000000
000000
000000
000000
000000
000000
000000
000000
000000
000000
000000
000000
000000
000000
ENDCHAR
STARTCHAR 01-42
ENCODING 8522
SWIDTH 1010 0
DWIDTH 20 0
BBX 20 20 0 -3
BITMAP
000040
000080
000100
000100
000200
000200
000200
000400
000400
000400
000400
000400
000200
000200
000200
000100
000100
000080
000040
000000
ENDCHAR
STARTCHAR 01-43
ENCODING 8523
SWIDTH 1010 0
DWIDTH 20 0
BBX 20 20 0 -3
BITMAP
200000
100000
080000
080000
040000
040000
040000
020000
020000
020000
020000
020000
040000
040000
040000
080000
080000
100000
200000
000000
ENDCHAR
STARTCHAR 01-44
ENCODING 8524
SWIDTH 1010 0
DWIDTH 20 0
BBX 20 20 0 -3
BITMAP
000000
0000c0
000300
000400
000400
000400
000400
000400
000400
000400
000400
000400
000400
000400
000400
000400
000400
000300
0000c0
000000
ENDCHAR
STARTCHAR 01-45
ENCODING 8525
SWIDTH 1010 0
DWIDTH 20 0
BBX 20 20 0 -3
BITMAP
000000
300000
0c0000
030000
010000
010000
010000
010000
010000
010000
010000
010000
010000
010000
010000
010000
030000
0c0000
300000
000000
ENDCHAR
STARTCHAR 01-46
ENCODING 8526
SWIDTH 1010 0
DWIDTH 20 0
BBX 20 20 0 -3
BITMAP
000000
0007c0
000400
000400
000400
000400
000400
000400
000400
000400
000400
000400
000400
000400
000400
000400
000400
000400
0007c0
000000
ENDCHAR
STARTCHAR 01-47
ENCODING 8527
SWIDTH 1010 0
DWIDTH 20 0
BBX 20 20 0 -3
BITMAP
000000
3e0000
020000
020000
020000
020000
020000
020000
020000
020000
020000
020000
020000
020000
020000
020000
020000
020000
3e0000
000000
ENDCHAR
STARTCHAR 01-48
ENCODING 8528
SWIDTH 1010 0
DWIDTH 20 0
BBX 20 20 0 -3
BITMAP
0000c0
000100
000200
000200
000200
000200
000200
000200
000400
001800
000400
000200
000200
000200
000200
000200
000200
000100
0000c0
000000
ENDCHAR
STARTCHAR 01-49
ENCODING 8529
SWIDTH 1010 0
DWIDTH 20 0
BBX 20 20 0 -3
BITMAP
300000
080000
040000
040000
040000
040000
040000
040000
020000
018000
020000
040000
040000
040000
040000
040000
040000
080000
300000
000000
ENDCHAR
STARTCHAR 01-50
ENCODING 8530
SWIDTH 1010 0
DWIDTH 20 0
BBX 20 20 0 -3
BITMAP
000000
000040
000080
000100
000200
000400
000800
001000
002000
004000
004000
002000
001000
000800
000400
000200
000100
000080
000040
000000
ENDCHAR
STARTCHAR 01-51
ENCODING 8531
SWIDTH 1010 0
DWIDTH 20 0
BBX 20 20 0 -3
BITMAP
000000
200000
100000
080000
040000
020000
010000
008000
004000
002000
002000
004000
008000
010000
020000
040000
080000
100000
200000
000000
ENDCHAR
STARTCHAR 01-52
ENCODING 8532
SWIDTH 1010 0
DWIDTH 20 0
BBX 20 20 0 -3
BITMAP
000000
000440
000880
001100
002200
004400
008800
011000
022000
044000
044000
022000
011000
008800
004400
002200
001100
000880
000440
000000
ENDCHAR
STARTCHAR 01-53
ENCODING 8533
SWIDTH 1010 0
DWIDTH 20 0
BBX 20 20 0 -3
BITMAP
000000
220000
110000
088000
044000
022000
011000
008800
004400
002200
002200
004400
008800
011000
022000
044000
088000
110000
220000
000000
ENDCHAR
STARTCHAR 01-54
ENCODING 8534
SWIDTH 1010 0
DWIDTH 20 0
BBX 20 20 0 -3
BITMAP
000000
000fc0
000800
000800
000800
000800
000800
000800
000800
000800
000800
000800
000800
000800
000000
000000
000000
000000
000000
000000
ENDCHAR
STARTCHAR 01-55
ENCODING 8535
SWIDTH 1010 0
DWIDTH 20 0
BBX 20 20 0 -3
BITMAP
000000
000000
000000
000000
000000
000000
010000
010000
010000
010000
010000
010000
010000
010000
010000
010000
010000
010000
3f0000
000000
ENDCHAR
STARTCHAR 01-56
ENCODING 8536
SWIDTH 1010 0
DWIDTH 20 0
BBX 20 20 0 -3
BITMAP
001fe0
001020
001020
0013e0
001200
001200
001200
001200
001200
001200
001200
001200
001200
001200
001e00
000000
000000
000000
000000
000000
ENDCHAR
STARTCHAR 01-57
ENCODING 8537
SWIDTH 1010 0
DWIDTH 20 0
BBX 20 20 0 -3
BITMAP
000000
000000
000000
000000
078000
048000
048000
048000
048000
048000
048000
048000
048000
048000
048000
7c8000
408000
408000
7f8000
000000
ENDCHAR
STARTCHAR 01-58
ENCODING 8538
SWIDTH 1010 0
DWIDTH 20 0
BBX 20 20 0 -3
BITMAP
0007e0
0007c0
000780
000700
000700
000600
000600
000600
000600
000600
000600
000600
000600
000600
000700
000700
000780
0007c0
0007e0
000000
ENDCHAR
STARTCHAR 01-59
ENCODING 8539
SWIDTH 1010 0
DWIDTH 20 0
BBX 20 20 0 -3
BITMAP
7e0000
3e0000
1e0000
0e0000
0e0000
060000
060000
060000
060000
060000
060000
060000
060000
060000
0e0000
0e0000
1e0000
3e0000
7e0000
000000
ENDCHAR
STARTCHAR 01-60
ENCODING 8540
SWIDTH 1010 0
DWIDTH 20 0
BBX 20 20 0 -3
BITMAP
000000
000000
000000
004000
004000
004000
004000
004000
004000
1fff00
004000
004000
004000
004000
004000
004000
000000
000000
000000
000000
ENDCHAR
STARTCHAR 01-61
ENCODING 8541
SWIDTH 1010 0
DWIDTH 20 0
BBX 20 20 0 -3
BITMAP
000000
000000
000000
000000
000000
000000
000000
000000
000000
1fff80
000000
000000
000000
000000
000000
000000
000000
000000
000000
000000
ENDCHAR
STARTCHAR 01-62
ENCODING 8542
SWIDTH 1010 0
DWIDTH 20 0
BBX 20 20 0 -3
BITMAP
000000
004000
004000
004000
004000
004000
004000
1fff00
004000
004000
004000
004000
004000
004000
000000
1fff80
000000
000000
000000
000000
ENDCHAR
STARTCHAR 01-63
ENCODING 8543
SWIDTH 1010 0
DWIDTH 20 0
BBX 20 20 0 -3
BITMAP
000000
000000
000000
000000
080100
040200
020400
010800
009000
006000
006000
009000
010800
020400
040200
080100
000000
000000
000000
000000
ENDCHAR
STARTCHAR 01-64
ENCODING 8544
SWIDTH 1010 0
DWIDTH 20 0
BBX 20 20 0 -3
BITMAP
000000
000000
000000
000000
006000
006000
000000
000000
000000
1fff80
000000
000000
000000
006000
006000
000000
000000
000000
000000
000000
ENDCHAR
STARTCHAR 01-65
ENCODING 8545
SWIDTH 1010 0
DWIDTH 20 0
BBX 20 20 0 -3
BITMAP
000000
000000
000000
000000
000000
000000
000000
1fff80
000000
000000
000000
1fff80
000000
000000
000000
000000
000000
000000
000000
000000
ENDCHAR
STARTCHAR 01-66
ENCODING 8546
SWIDTH 1010 0
DWIDTH 20 0
BBX 20 20 0 -3
BITMAP
000000
000000
000000
001000
001000
002000
002000
1fff00
002000
004000
004000
1fff00
008000
008000
010000
010000
000000
000000
000000
000000
ENDCHAR
STARTCHAR 01-67
ENCODING 8547
SWIDTH 1010 0
DWIDTH 20 0
BBX 20 20 0 -3
BITMAP
000000
0000c0
000300
000400
001800
006000
008000
030000
0c0000
300000
0c0000
030000
008000
006000
001800
000400
000300
0000c0
000000
000000
ENDCHAR
STARTCHAR 01-68
ENCODING 8548
SWIDTH 1010 0
DWIDTH 20 0
BBX 20 20 0 -3
BITMAP
000000
300000
0c0000
020000
018000
006000
001800
000400
000300
0000c0
000300
000400
001800
006000
018000
020000
0c0000
300000
000000
000000
ENDCHAR
STARTCHAR 01-69
ENCODING 8549
SWIDTH 1010 0
DWIDTH 20 0
BBX 20 20 0 -3
BITMAP
000000
000180
000e00
003000
01c000
060000
380000
060000
01c000
003000
000e00
000180
000000
3fff80
000000
000000
3fff80
000000
000000
000000
ENDCHAR
STARTCHAR 01-70
ENCODING 8550
SWIDTH 1010 0
DWIDTH 20 0
BBX 20 20 0 -3
BITMAP
000000
300000
0e0000
018000
007000
000c00
000380
000c00
007000
018000
0e0000
300000
000000
3fff80
000000
000000
3fff80
000000
000000
000000
ENDCHAR
STARTCHAR 01-71
ENCODING 8551
SWIDTH 1010 0
DWIDTH 20 0
BBX 20 20 0 -3
BITMAP
000000
000000
000000
000000
000000
000000
1e0f00
211080
40a040
404040
40a040
211080
1e0f00
000000
000000
000000
000000
000000
000000
000000
ENDCHAR
STARTCHAR 01-72
ENCODING 8552
SWIDTH 1010 0
DWIDTH 20 0
BBX 20 20 0 -3
BITMAP
000000
000000
000000
00e000
00e000
00e000
000000
000000
000000
000000
000000
000000
1c0700
1c0700
1c0700
000000
000000
000000
000000
000000
ENDCHAR
STARTCHAR 01-73
ENCODING 8553
SWIDTH 1010 0
DWIDTH 20 0
BBX 20 20 0 -3
BITMAP
000000
000000
000000
003fc0
0000c0
000140
000240
000440
000840
001040
07a040
084000
102000
102000
102000
102000
084000
078000
000000
000000
ENDCHAR
STARTCHAR 01-74
ENCODING 8554
SWIDTH 1010 0
DWIDTH 20 0
BBX 20 20 0 -3
BITMAP
000000
01f000
020800
040400
040400
040400
040400
040400
020800
01f000
004000
004000
1fff00
004000
004000
004000
004000
004000
000000
000000
ENDCHAR
STARTCHAR 01-75
ENCODING 8555
SWIDTH 1010 0
DWIDTH 20 0
BBX 20 20 0 -3
BITMAP
000000
380000
440000
440000
440000
380000
000000
000000
000000
000000
000000
000000
000000
000000
000000
000000
000000
000000
000000
000000
ENDCHAR
STARTCHAR 01-76
ENCODING 8556
SWIDTH 1010 0
DWIDTH 20 0
BBX 20 20 0 -3
BITMAP
000000
100000
100000
100000
200000
200000
000000
000000
000000
000000
000000
000000
000000
000000
000000
000000
000000
000000
000000
000000
ENDCHAR
STARTCHAR 01-77
ENCODING 8557
SWIDTH 1010 0
DWIDTH 20 0
BBX 20 20 0 -3
BITMAP
000000
120000
120000
120000
240000
240000
000000
000000
000000
000000
000000
000000
000000
000000
000000
000000
000000
000000
000000
000000
ENDCHAR
STARTCHAR 01-78
ENCODING 8558
SWIDTH 1010 0
DWIDTH 20 0
BBX 20 20 0 -3
BITMAP
000000
000000
307800
498600
4a0100
320100
040080
040000
040000
040000
040000
040080
040080
020100
020100
018600
007800
000000
000000
000000
ENDCHAR
STARTCHAR 01-79
ENCODING 8559
SWIDTH 1010 0
DWIDTH 20 0
BBX 20 20 0 -3
BITMAP
000000
000000
080200
080200
040400
020800
020800
011000
1fff00
00a000
004000
1fff00
004000
004000
004000
004000
004000
000000
000000
000000
ENDCHAR
STARTCHAR 01-80
ENCODING 8560
SWIDTH 1010 0
DWIDTH 20 0
BBX 20 20 0 -3
BITMAP
000000
004000
004000
01f000
024800
044400
044000
044000
034000
00f000
004800
004400
004400
044400
024800
01f000
004000
004000
004000
000000
ENDCHAR
STARTCHAR 01-81
ENCODING 8561
SWIDTH 1010 0
DWIDTH 20 0
BBX 20 20 0 -3
BITMAP
000000
000000
000000
001000
00f000
032c00
022400
042000
044000
044000
044200
028400
019800
00e000
010000
010000
000000
000000
000000
000000
ENDCHAR
STARTCHAR 01-82
ENCODING 8562
SWIDTH 1010 0
DWIDTH 20 0
BBX 20 20 0 -3
BITMAP
000000
000000
007000
008800
010400
010000
010000
010000
008000
07f800
008000
008000
004200
074100
08c100
084100
07be00
000000
000000
000000
ENDCHAR
STARTCHAR 01-83
ENCODING 8563
SWIDTH 1010 0
DWIDTH 20 0
BBX 20 20 0 -3
BITMAP
000000
000200
060200
090400
108400
108800
108800
091000
062000
002000
004300
004480
008840
008840
010840
020480
020300
040000
040000
000000
ENDCHAR
STARTCHAR 01-84
ENCODING 8564
SWIDTH 1010 0
DWIDTH 20 0
BBX 20 20 0 -3
BITMAP
000000
000000
008400
008400
008400
008400
0fff80
010800
010800
010800
010800
010800
021000
1fff00
021000
021000
021000
021000
000000
000000
ENDCHAR
STARTCHAR 01-85
ENCODING 8565
SWIDTH 1010 0
DWIDTH 20 0
BBX 20 20 0 -3
BITMAP
000000
000000
038000
044000
082000
082000
082000
044000
028000
030000
050200
088200
104400
102400
101800
081600
07e180
000000
000000
000000
ENDCHAR
STARTCHAR 01-86
ENCODING 8566
SWIDTH 1010 0
DWIDTH 20 0
BBX 20 20 0 -3
BITMAP
000000
000000
000000
000000
004000
004000
044400
024800
015000
00e000
015000
024800
044400
004000
004000
000000
000000
000000
000000
000000
ENDCHAR
STARTCHAR 01-87
ENCODING 8567
SWIDTH 1010 0
DWIDTH 20 0
BBX 20 20 0 -3
BITMAP
000000
000000
01f000
060c00
080200
10e900
111900
220880
220880
240880
241080
241100
223100
11de00
100080
080100
060600
01f800
000000
000000
ENDCHAR
STARTCHAR 01-88
ENCODING 8568
SWIDTH 1010 0
DWIDTH 20 0
BBX 20 20 0 -3
BITMAP
000000
00f000
010800
020400
020000
010000
01c000
023000
020800
010800
010400
00c400
003800
000800
000400
020400
010800
00f000
000000
000000
ENDCHAR
STARTCHAR 01-89
ENCODING 8569
SWIDTH 1010 0
DWIDTH 20 0
BBX 20 20 0 -3
BITMAP
004000
004000
00a000
00a000
00a000
011000
011000
fe0fe0
400040
200080
100100
080200
080200
084200
10a100
131900
240480
380380
200080
000000
ENDCHAR
STARTCHAR 01-90
ENCODING 8570
SWIDTH 1010 0
DWIDTH 20 0
BBX 20 20 0 -3
BITMAP
004000
004000
00e000
00e000
00e000
01f000
01f000
ffffe0
7fffc0
3fff80
1fff00
0ffe00
0ffe00
0ffe00
1fbf00
1f1f00
1c0700
380380
200080
000000
ENDCHAR
STARTCHAR 01-91
ENCODING 8571
SWIDTH 1010 0
DWIDTH 20 0
BBX 20 20 0 -3
BITMAP
000000
01f800
060600
080100
100080
200040
200040
400020
400020
400020
400020
400020
400020
200040
200040
100080
080100
060600
01f800
000000
ENDCHAR
STARTCHAR 01-92
ENCODING 8572
SWIDTH 1010 0
DWIDTH 20 0
BBX 20 20 0 -3
BITMAP
000000
01f800
07fe00
0fff00
1fff80
3fffc0
3fffc0
7fffe0
7fffe0
7fffe0
7fffe0
7fffe0
7fffe0
3fffc0
3fffc0
1fff80
0fff00
07fe00
01f800
000000
ENDCHAR
STARTCHAR 01-93
ENCODING 8573
SWIDTH 1010 0
DWIDTH 20 0
BBX 20 20 0 -3
BITMAP
000000
01f800
060600
080100
106080
219840
220440
440220
440220
480120
480120
440220
440220
220440
219840
106080
080100
060600
01f800
000000
ENDCHAR
STARTCHAR 01-94
ENCODING 8574
SWIDTH 1010 0
DWIDTH 20 0
BBX 20 20 0 -3
BITMAP
000000
004000
00a000
011000
020800
040400
080200
100100
200080
400040
400040
200080
100100
080200
040400
020800
011000
00a000
004000
000000
ENDCHAR
STARTCHAR 02-01
ENCODING 8737
SWIDTH 1010 0
DWIDTH 20 0
BBX 20 20 0 -3
BITMAP
000000
004000
00e000
01f000
03f800
07fc00
0ffe00
1fff00
3fff80
7fffc0
7fffc0
3fff80
1fff00
0ffe00
07fc00
03f800
01f000
00e000
004000
000000
ENDCHAR
STARTCHAR 02-02
ENCODING 8738
SWIDTH 1010 0
DWIDTH 20 0
BBX 20 20 0 -3
BITMAP
000000
7fffc0
400040
400040
400040
400040
400040
400040
400040
400040
400040
400040
400040
400040
400040
400040
400040
7fffc0
000000
000000
ENDCHAR
STARTCHAR 02-03
ENCODING 8739
SWIDTH 1010 0
DWIDTH 20 0
BBX 20 20 0 -3
BITMAP
000000
7fffc0
7fffc0
7fffc0
7fffc0
7fffc0
7fffc0
7fffc0
7fffc0
7fffc0
7fffc0
7fffc0
7fffc0
7fffc0
7fffc0
7fffc0
7fffc0
7fffc0
000000
000000
ENDCHAR
STARTCHAR 02-04
ENCODING 8740
SWIDTH 1010 0
DWIDTH 20 0
BBX 20 20 0 -3
BITMAP
000000
006000
006000
009000
009000
010800
010800
020400
020400
040200
040200
080100
080100
100080
100080
200040
3fffc0
000000
000000
000000
ENDCHAR
STARTCHAR 02-05
ENCODING 8741
SWIDTH 1010 0
DWIDTH 20 0
BBX 20 20 0 -3
BITMAP
000000
006000
006000
00f000
00f000
01f800
01f800
03fc00
03fc00
07fe00
07fe00
0fff00
0fff00
1fff80
1fff80
3fffc0
3fffc0
000000
000000
000000
ENDCHAR
STARTCHAR 02-06
ENCODING 8742
SWIDTH 1010 0
DWIDTH 20 0
BBX 20 20 0 -3
BITMAP
000000
000000
3fffc0
200040
100080
100080
080100
080100
040200
040200
020400
020400
010800
010800
009000
009000
006000
006000
000000
000000
ENDCHAR
STARTCHAR 02-07
ENCODING 8743
SWIDTH 1010 0
DWIDTH 20 0
BBX 20 20 0 -3
BITMAP
000000
000000
3fffc0
3fffc0
1fff80
1fff80
0fff00
0fff00
07fe00
07fe00
03fc00
03fc00
01f800
01f800
00f000
00f000
006000
006000
000000
000000
ENDCHAR
STARTCHAR 02-08
ENCODING 8744
SWIDTH 1010 0
DWIDTH 20 0
BBX 20 20 0 -3
BITMAP
000000
000000
000000
106080
086100
040200
020400
010800
009000
186180
186180
009000
010800
020400
040200
086100
106080
000000
000000
000000
ENDCHAR
STARTCHAR 02-09
ENCODING 8745
SWIDTH 1010 0
DWIDTH 20 0
BBX 20 20 0 -3
BITMAP
000000
000000
3fff80
000000
000000
000000
000000
3fff80
004000
004000
004000
004000
004000
004000
004000
004000
004000
004000
000000
000000
ENDCHAR
STARTCHAR 02-10
ENCODING 8746
SWIDTH 1010 0
DWIDTH 20 0
BBX 20 20 0 -3
BITMAP
000000
000000
000000
000000
000000
000000
000200
000180
0000c0
7fffe0
0000c0
000180
000200
000000
000000
000000
000000
000000
000000
000000
ENDCHAR
STARTCHAR 02-11
ENCODING 8747
SWIDTH 1010 0
DWIDTH 20 0
BBX 20 20 0 -3
BITMAP
000000
000000
000000
000000
000000
000000
040000
180000
300000
7fffe0
300000
180000
040000
000000
000000
000000
000000
000000
000000
000000
ENDCHAR
STARTCHAR 02-12
ENCODING 8748
SWIDTH 1010 0
DWIDTH 20 0
BBX 20 20 0 -3
BITMAP
000000
004000
00e000
01f000
015000
024800
004000
004000
004000
004000
004000
004000
004000
004000
004000
004000
004000
004000
004000
000000
ENDCHAR
STARTCHAR 02-13
ENCODING 8749
SWIDTH 1010 0
DWIDTH 20 0
BBX 20 20 0 -3
BITMAP
004000
004000
004000
004000
004000
004000
004000
004000
004000
004000
004000
004000
004000
024800
015000
01f000
00e000
004000
000000
000000
ENDCHAR
STARTCHAR 02-14
ENCODING 8750
SWIDTH 1010 0
DWIDTH 20 0
BBX 20 20 0 -3
BITMAP
000000
000000
000000
000000
000000
1fff80
1fff80
1fff80
000000
000000
000000
1fff80
1fff80
1fff80
000000
000000
000000
000000
000000
000000
ENDCHAR
STARTCHAR 02-26
ENCODING 8762
SWIDTH 1010 0
DWIDTH 20 0
BBX 20 20 0 -3
BITMAP
000000
000000
03ffc0
0c0000
100000
200000
200000
400000
400000
7fffc0
400000
400000
200000
200000
100000
0c0000
03ffc0
000000
000000
000000
ENDCHAR
STARTCHAR 02-27
ENCODING 8763
SWIDTH 1010 0
DWIDTH 20 0
BBX 20 20 0 -3
BITMAP
000000
000000
7ff800
000600
000100
000080
000080
000040
000040
7fffc0
000040
000040
000080
000080
000100
000600
7ff800
000000
000000
000000
ENDCHAR
STARTCHAR 02-28
ENCODING 8764
SWIDTH 1010 0
DWIDTH 20 0
BBX 20 20 0 -3
BITMAP
000000
000000
07ffc0
180000
200000
200000
400000
400000
400000
200000
200000
180000
07ffc0
000000
000000
000000
7fffc0
000000
000000
000000
ENDCHAR
STARTCHAR 02-29
ENCODING 8765
SWIDTH 1010 0
DWIDTH 20 0
BBX 20 20 0 -3
BITMAP
000000
000000
7ffc00
000300
000080
000080
000040
000040
000040
000080
000080
000300
7ffc00
000000
000000
000000
7fffc0
000000
000000
000000
ENDCHAR
STARTCHAR 02-30
ENCODING 8766
SWIDTH 1010 0
DWIDTH 20 0
BBX 20 20 0 -3
BITMAP
000000
000000
000000
03ffc0
0c0000
100000
200000
200000
400000
400000
400000
400000
200000
200000
100000
0c0000
03ffc0
000000
000000
000000
ENDCHAR
STARTCHAR 02-31
ENCODING 8767
SWIDTH 1010 0
DWIDTH 20 0
BBX 20 20 0 -3
BITMAP
000000
000000
000000
7ff800
000600
000100
000080
000080
000040
000040
000040
000040
000080
000080
000100
000600
7ff800
000000
000000
000000
ENDCHAR
STARTCHAR 02-32
ENCODING 8768
SWIDTH 1010 0
DWIDTH 20 0
BBX 20 20 0 -3
BITMAP
000000
100080
100080
100080
100080
100080
100080
100080
100080
100080
100080
100080
100080
080100
080100
040200
030c00
00f000
000000
000000
ENDCHAR
STARTCHAR 02-33
ENCODING 8769
SWIDTH 1010 0
DWIDTH 20 0
BBX 20 20 0 -3
BITMAP
000000
00f000
030c00
040200
080100
080100
100080
100080
100080
100080
100080
100080
100080
100080
100080
100080
100080
100080
000000
000000
ENDCHAR
STARTCHAR 02-42
ENCODING 8778
SWIDTH 1010 0
DWIDTH 20 0
BBX 20 20 0 -3
BITMAP
000000
004000
004000
00a000
00a000
011000
011000
020800
020800
040400
040400
080200
080200
100100
100100
200080
200080
400040
000000
000000
ENDCHAR
STARTCHAR 02-43
ENCODING 8779
SWIDTH 1010 0
DWIDTH 20 0
BBX 20 20 0 -3
BITMAP
000000
000000
400040
200080
200080
100100
100100
080200
080200
040400
040400
020800
020800
011000
011000
00a000
00a000
004000
004000
000000
ENDCHAR
STARTCHAR 02-44
ENCODING 8780
SWIDTH 1010 0
DWIDTH 20 0
BBX 20 20 0 -3
BITMAP
000000
000000
000000
000000
000000
000000
000000
000000
000000
000000
000000
7fffe0
000020
000020
000020
000020
000020
000020
000020
000000
ENDCHAR
STARTCHAR 02-45
ENCODING 8781
SWIDTH 1010 0
DWIDTH 20 0
BBX 20 20 0 -3
BITMAP
000000
000000
000000
000000
000400
000200
000100
7fff80
000040
000020
000040
7fff80
000100
000200
000400
000000
000000
000000
000000
000000
ENDCHAR
STARTCHAR 02-46
ENCODING 8782
SWIDTH 1010 0
DWIDTH 20 0
BBX 20 20 0 -3
BITMAP
000000
000000
000000
000000
040400
080200
100100
3fff80
400040
800020
400040
3fff80
100100
080200
040400
000000
000000
000000
000000
000000
ENDCHAR
STARTCHAR 02-47
ENCODING 8783
SWIDTH 1010 0
DWIDTH 20 0
BBX 20 20 0 -3
BITMAP
000000
000000
400040
200080
200080
100100
1fff00
080200
080200
040400
040400
020800
020800
011000
011000
00a000
00a000
004000
004000
000000
ENDCHAR
STARTCHAR 02-48
ENCODING 8784
SWIDTH 1010 0
DWIDTH 20 0
BBX 20 20 0 -3
BITMAP
000000
000000
0fff00
000100
000100
000100
000100
000100
000100
0fff00
000100
000100
000100
000100
000100
000100
0fff00
000000
000000
000000
ENDCHAR
STARTCHAR 02-60
ENCODING 8796
SWIDTH 1010 0
DWIDTH 20 0
BBX 20 20 0 -3
BITMAP
000000
000000
000080
000100
000200
000400
000800
001000
002000
004000
008000
010000
020000
040000
080000
100000
200000
7fffc0
000000
000000
ENDCHAR
STARTCHAR 02-61
ENCODING 8797
SWIDTH 1010 0
DWIDTH 20 0
BBX 20 20 0 -3
BITMAP
000000
004000
004000
004000
004000
004000
004000
004000
004000
004000
004000
004000
004000
004000
004000
004000
004000
7fffc0
000000
000000
ENDCHAR
STARTCHAR 02-62
ENCODING 8798
SWIDTH 1010 0
DWIDTH 20 0
BBX 20 20 0 -3
BITMAP
000000
000000
03fc00
0c0300
100080
200040
400020
400020
000000
000000
000000
000000
000000
000000
000000
000000
000000
000000
000000
000000
ENDCHAR
STARTCHAR 02-63
ENCODING 8799
SWIDTH 1010 0
DWIDTH 20 0
BBX 20 20 0 -3
BITMAP
000000
000000
007000
018800
020400
000400
000400
000400
00e400
031400
040c00
040800
080800
080800
081000
081000
042000
03c000
000000
000000
ENDCHAR
STARTCHAR 02-64
ENCODING 8800
SWIDTH 1010 0
DWIDTH 20 0
BBX 20 20 0 -3
BITMAP
000000
000000
7fffc0
200080
200080
100100
100100
080200
080200
040400
040400
020800
020800
011000
011000
00a000
00a000
004000
004000
000000
ENDCHAR
STARTCHAR 02-65
ENCODING 8801
SWIDTH 1010 0
DWIDTH 20 0
BBX 20 20 0 -3
BITMAP
000000
000000
000000
000000
000000
1fff80
000000
000000
000000
1fff80
000000
000000
000000
1fff80
000000
000000
000000
000000
000000
000000
ENDCHAR
STARTCHAR 02-66
ENCODING 8802
SWIDTH 1010 0
DWIDTH 20 0
BBX 20 20 0 -3
BITMAP
000000
000000
000000
060000
060000
000000
000000
3fffc0
000000
000000
000000
3fffc0
000000
000000
000600
000600
000000
000000
000000
000000
ENDCHAR
STARTCHAR 02-67
ENCODING 8803
SWIDTH 1010 0
DWIDTH 20 0
BBX 20 20 0 -3
BITMAP
000000
000420
000840
003180
004200
018c00
021000
0c6000
108000
630000
108000
0c6000
021000
018c00
004200
003180
000840
000420
000000
000000
ENDCHAR
STARTCHAR 02-68
ENCODING 8804
SWIDTH 1010 0
DWIDTH 20 0
BBX 20 20 0 -3
BITMAP
000000
420000
210000
18c000
042000
031800
008400
006300
001080
000c60
001080
006300
008400
031800
042000
18c000
210000
420000
000000
000000
ENDCHAR
STARTCHAR 02-69
ENCODING 8805
SWIDTH 1010 0
DWIDTH 20 0
BBX 20 20 0 -3
BITMAP
003ff0
002000
002000
002000
004000
004000
004000
004000
008000
008000
008000
108000
190000
390000
4d0000
0d0000
060000
060000
020000
000000
ENDCHAR
STARTCHAR 02-70
ENCODING 8806
SWIDTH 1010 0
DWIDTH 20 0
BBX 20 20 0 -3
BITMAP
000000
000000
000000
000000
000000
000000
1c0f00
221080
402040
404040
408040
210880
1e0700
000000
000000
000000
000000
000000
000000
000000
ENDCHAR
STARTCHAR 02-71
ENCODING 8807
SWIDTH 1010 0
DWIDTH 20 0
BBX 20 20 0 -3
BITMAP
000000
000000
000000
000000
000000
000000
1e0780
211840
40a000
404000
40a000
211840
1e0780
000000
000000
000000
000000
000000
000000
000000
ENDCHAR
STARTCHAR 02-72
ENCODING 8808
SWIDTH 1010 0
DWIDTH 20 0
BBX 20 20 0 -3
BITMAP
000000
000000
000000
000000
1c0700
1c0700
1c0700
000000
000000
000000
000000
000000
000000
00e000
00e000
00e000
000000
000000
000000
000000
ENDCHAR
STARTCHAR 02-73
ENCODING 8809
SWIDTH 1010 0
DWIDTH 20 0
BBX 20 20 0 -3
BITMAP
007000
008800
010800
010000
010000
008000
008000
008000
004000
004000
002000
002000
001000
001000
001000
000800
000800
010800
011000
00e000
ENDCHAR
STARTCHAR 02-74
ENCODING 8810
SWIDTH 1010 0
DWIDTH 20 0
BBX 20 20 0 -3
BITMAP
070e00
089100
10a100
102000
102000
081000
081000
081000
040800
040800
020400
020400
010200
010200
010200
008100
008100
10a100
112200
0e1c00
ENDCHAR
STARTCHAR 02-82
ENCODING 8818
SWIDTH 1010 0
DWIDTH 20 0
BBX 20 20 0 -3
BITMAP
000000
006000
009000
009000
006000
000000
006000
006000
009000
009000
010800
010800
020400
03fc00
040200
040200
080100
080100
000000
000000
ENDCHAR
STARTCHAR 02-83
ENCODING 8819
SWIDTH 1010 0
DWIDTH 20 0
BBX 20 20 0 -3
BITMAP
000000
001000
381000
442000
442000
444000
444000
448000
390000
010000
0271c0
028a20
048a20
088a20
088a20
108a20
1071c0
200000
200000
000000
ENDCHAR
STARTCHAR 02-84
ENCODING 8820
SWIDTH 1010 0
DWIDTH 20 0
BBX 20 20 0 -3
BITMAP
000000
000800
010800
010800
010800
010f00
01f800
0f0800
010800
010800
010800
010f00
01f800
0f0800
010800
010800
010800
010800
010000
000000
ENDCHAR
STARTCHAR 02-85
ENCODING 8821
SWIDTH 1010 0
DWIDTH 20 0
BBX 20 20 0 -3
BITMAP
000000
010000
010000
010000
010000
010000
010000
010000
013800
014400
018200
010200
010200
010400
010800
011000
016000
018000
010000
000000
ENDCHAR
STARTCHAR 02-86
ENCODING 8822
SWIDTH 1010 0
DWIDTH 20 0
BBX 20 20 0 -3
BITMAP
000000
004000
006000
007000
007000
005800
004c00
004600
004200
004300
004100
004100
004200
01c400
07c000
0fc000
0f8000
070000
000000
000000
ENDCHAR
STARTCHAR 02-87
ENCODING 8823
SWIDTH 1010 0
DWIDTH 20 0
BBX 20 20 0 -3
BITMAP
006000
006000
006000
006000
07fe00
07fe00
006000
006000
006000
006000
006000
006000
006000
006000
006000
006000
006000
006000
006000
006000
ENDCHAR
STARTCHAR 02-88
ENCODING 8824
SWIDTH 1010 0
DWIDTH 20 0
BBX 20 20 0 -3
BITMAP
006000
006000
006000
006000
07fe00
07fe00
006000
006000
006000
006000
006000
006000
006000
006000
07fe00
07fe00
006000
006000
006000
006000
ENDCHAR
STARTCHAR 02-89
ENCODING 8825
SWIDTH 1010 0
DWIDTH 20 0
BBX 20 20 0 -3
BITMAP
000000
000000
01fc00
03c400
07c400
07c400
07c400
07c400
03c400
01c400
004400
004400
004400
004400
004400
004400
004400
004400
000000
000000
ENDCHAR
STARTCHAR 02-94
ENCODING 8830
SWIDTH 1010 0
DWIDTH 20 0
BBX 20 20 0 -3
BITMAP
03f800
0c0600
100100
200080
400040
400040
800020
800020
800020
800020
800020
800020
800020
400040
400040
200080
100100
0c0600
03f800
000000
ENDCHAR
STARTCHAR 03-16
ENCODING 9008
SWIDTH 1010 0
DWIDTH 20 0
BBX 20 20 0 -3
BITMAP
000000
000000
01f000
020800
040400
040400
080200
080200
080200
080200
080200
080200
080200
040400
040400
020800
01f000
000000
000000
000000
ENDCHAR
STARTCHAR 03-17
ENCODING 9009
SWIDTH 1010 0
DWIDTH 20 0
BBX 20 20 0 -3
BITMAP
000000
000000
002000
006000
01a000
002000
002000
002000
002000
002000
002000
002000
002000
002000
002000
002000
002000
000000
000000
000000
ENDCHAR
STARTCHAR 03-18
ENCODING 9010
SWIDTH 1010 0
DWIDTH 20 0
BBX 20 20 0 -3
BITMAP
000000
000000
00f000
030c00
020400
040200
040200
000200
000400
000800
003000
004000
008000
010000
020000
040000
07fe00
000000
000000
000000
ENDCHAR
STARTCHAR 03-19
ENCODING 9011
SWIDTH 1010 0
DWIDTH 20 0
BBX 20 20 0 -3
BITMAP
000000
000000
00f000
030800
020400
040400
000400
000400
000800
007800
000400
000200
000200
040200
040400
020c00
01f000
000000
000000
000000
ENDCHAR
STARTCHAR 03-20
ENCODING 9012
SWIDTH 1010 0
DWIDTH 20 0
BBX 20 20 0 -3
BITMAP
000000
000000
001000
003000
003000
005000
009000
009000
011000
021000
021000
041000
081000
0ffe00
001000
001000
001000
000000
000000
000000
ENDCHAR
STARTCHAR 03-21
ENCODING 9013
SWIDTH 1010 0
DWIDTH 20 0
BBX 20 20 0 -3
BITMAP
000000
000000
03fc00
020000
020000
020000
020000
020000
02f000
030c00
020400
000200
000200
000200
020400
020c00
01f000
000000
000000
000000
ENDCHAR
STARTCHAR 03-22
ENCODING 9014
SWIDTH 1010 0
DWIDTH 20 0
BBX 20 20 0 -3
BITMAP
000000
000000
00f000
010800
020400
020000
040000
040000
04f000
050c00
060400
040200
040200
040200
020400
030c00
00f000
000000
000000
000000
ENDCHAR
STARTCHAR 03-23
ENCODING 9015
SWIDTH 1010 0
DWIDTH 20 0
BBX 20 20 0 -3
BITMAP
000000
000000
07fe00
000200
000200
000400
000400
000800
000800
000800
001000
001000
001000
002000
002000
002000
002000
000000
000000
000000
ENDCHAR
STARTCHAR 03-24
ENCODING 9016
SWIDTH 1010 0
DWIDTH 20 0
BBX 20 20 0 -3
BITMAP
000000
000000
00f800
010400
020200
020200
020200
020200
010400
00f800
030600
040100
040100
040100
040100
030600
00f800
000000
000000
000000
ENDCHAR
STARTCHAR 03-25
ENCODING 9017
SWIDTH 1010 0
DWIDTH 20 0
BBX 20 20 0 -3
BITMAP
000000
000000
00f000
030800
020400
040400
040200
040200
020600
030a00
00f200
000200
000200
000400
020400
019800
006000
000000
000000
000000
ENDCHAR
STARTCHAR 03-33
ENCODING 9025
SWIDTH 1010 0
DWIDTH 20 0
BBX 20 20 0 -3
BITMAP
000000
000000
004000
004000
00a000
00a000
011000
011000
020800
020800
040400
07fc00
040400
080200
080200
100100
100100
000000
000000
000000
ENDCHAR
STARTCHAR 03-34
ENCODING 9026
SWIDTH 1010 0
DWIDTH 20 0
BBX 20 20 0 -3
BITMAP
000000
000000
07f800
040400
040200
040200
040200
040200
040400
07fc00
040200
040100
040100
040100
040200
040600
07f800
000000
000000
000000
ENDCHAR
STARTCHAR 03-35
ENCODING 9027
SWIDTH 1010 0
DWIDTH 20 0
BBX 20 20 0 -3
BITMAP
000000
000000
00f800
010400
020200
040100
040100
080000
080000
080000
080000
080000
040100
040100
020200
010400
00f800
000000
000000
000000
ENDCHAR
STARTCHAR 03-36
ENCODING 9028
SWIDTH 1010 0
DWIDTH 20 0
BBX 20 20 0 -3
BITMAP
000000
000000
07f000
040c00
040200
040100
040100
040080
040080
040080
040080
040080
040100
040100
040200
040c00
07f000
000000
000000
000000
ENDCHAR
STARTCHAR 03-37
ENCODING 9029
SWIDTH 1010 0
DWIDTH 20 0
BBX 20 20 0 -3
BITMAP
000000
000000
07ff00
040000
040000
040000
040000
040000
040000
07fe00
040000
040000
040000
040000
040000
040000
07ff00
000000
000000
000000
ENDCHAR
STARTCHAR 03-38
ENCODING 9030
SWIDTH 1010 0
DWIDTH 20 0
BBX 20 20 0 -3
BITMAP
000000
000000
07ff00
040000
040000
040000
040000
040000
040000
07fe00
040000
040000
040000
040000
040000
040000
040000
000000
000000
000000
ENDCHAR
STARTCHAR 03-39
ENCODING 9031
SWIDTH 1010 0
DWIDTH 20 0
BBX 20 20 0 -3
BITMAP
000000
000000
00f000
030c00
040200
080100
080100
100000
100000
100000
100f00
100100
080100
080100
040300
030d00
00f100
000000
000000
000000
ENDCHAR
STARTCHAR 03-40
ENCODING 9032
SWIDTH 1010 0
DWIDTH 20 0
BBX 20 20 0 -3
BITMAP
000000
000000
080200
080200
080200
080200
080200
080200
080200
0ffe00
080200
080200
080200
080200
080200
080200
080200
000000
000000
000000
ENDCHAR
STARTCHAR 03-41
ENCODING 9033
SWIDTH 1010 0
DWIDTH 20 0
BBX 20 20 0 -3
BITMAP
000000
000000
00e000
004000
004000
004000
004000
004000
004000
004000
004000
004000
004000
004000
004000
004000
00e000
000000
000000
000000
ENDCHAR
STARTCHAR 03-42
ENCODING 9034
SWIDTH 1010 0
DWIDTH 20 0
BBX 20 20 0 -3
BITMAP
000000
000000
000800
000800
000800
000800
000800
000800
000800
000800
000800
000800
000800
000800
040800
041000
023000
01c000
000000
000000
ENDCHAR
STARTCHAR 03-43
ENCODING 9035
SWIDTH 1010 0
DWIDTH 20 0
BBX 20 20 0 -3
BITMAP
000000
000000
040200
040400
040800
041000
042000
044000
04a000
052000
061000
040800
040800
040400
040200
040200
040100
000000
000000
000000
ENDCHAR
STARTCHAR 03-44
ENCODING 9036
SWIDTH 1010 0
DWIDTH 20 0
BBX 20 20 0 -3
BITMAP
000000
000000
040000
040000
040000
040000
040000
040000
040000
040000
040000
040000
040000
040000
040000
040000
07ff00
000000
000000
000000
ENDCHAR
STARTCHAR 03-45
ENCODING 9037
SWIDTH 1010 0
DWIDTH 20 0
BBX 20 20 0 -3
BITMAP
000000
000000
200080
300180
300180
280280
280280
240480
240480
220880
220880
211080
211080
20a080
20a080
204080
204080
000000
000000
000000
ENDCHAR
STARTCHAR 03-46
ENCODING 9038
SWIDTH 1010 0
DWIDTH 20 0
BBX 20 20 0 -3
BITMAP
000000
000000
080200
0c0200
0a0200
090200
090200
088200
084200
084200
082200
081200
081200
080a00
080600
080600
080200
000000
000000
000000
ENDCHAR
STARTCHAR 03-47
ENCODING 9039
SWIDTH 1010 0
DWIDTH 20 0
BBX 20 20 0 -3
BITMAP
000000
000000
00f000
030c00
040200
080100
080100
100080
100080
100080
100080
100080
080100
080100
040200
030c00
00f000
000000
000000
000000
ENDCHAR
STARTCHAR 03-48
ENCODING 9040
SWIDTH 1010 0
DWIDTH 20 0
BBX 20 20 0 -3
BITMAP
000000
000000
03f800
020600
020100
020100
020100
020100
020600
03f800
020000
020000
020000
020000
020000
020000
020000
000000
000000
000000
ENDCHAR
STARTCHAR 03-49
ENCODING 9041
SWIDTH 1010 0
DWIDTH 20 0
BBX 20 20 0 -3
BITMAP
000000
000000
00f000
030c00
040200
080100
080100
100080
100080
100080
100080
100080
080100
081100
040a00
030c00
00f200
000100
000000
000000
ENDCHAR
STARTCHAR 03-50
ENCODING 9042
SWIDTH 1010 0
DWIDTH 20 0
BBX 20 20 0 -3
BITMAP
000000
000000
07fc00
040200
040100
040100
040100
040100
040200
07fc00
042000
041000
040800
040800
040400
040200
040100
000000
000000
000000
ENDCHAR
STARTCHAR 03-51
ENCODING 9043
SWIDTH 1010 0
DWIDTH 20 0
BBX 20 20 0 -3
BITMAP
000000
000000
00f000
030c00
020200
040200
040000
020000
01c000
003800
000600
000200
080100
080100
040200
030600
00f800
000000
000000
000000
ENDCHAR
STARTCHAR 03-52
ENCODING 9044
SWIDTH 1010 0
DWIDTH 20 0
BBX 20 20 0 -3
BITMAP
000000
000000
3fff80
004000
004000
004000
004000
004000
004000
004000
004000
004000
004000
004000
004000
004000
004000
000000
000000
000000
ENDCHAR
STARTCHAR 03-53
ENCODING 9045
SWIDTH 1010 0
DWIDTH 20 0
BBX 20 20 0 -3
BITMAP
000000
000000
080100
080100
080100
080100
080100
080100
080100
080100
080100
080100
080100
040200
040200
030c00
00f000
000000
000000
000000
ENDCHAR
STARTCHAR 03-54
ENCODING 9046
SWIDTH 1010 0
DWIDTH 20 0
BBX 20 20 0 -3
BITMAP
000000
000000
100100
100100
080200
080200
040400
040400
040400
020800
020800
011000
011000
00a000
00a000
004000
004000
000000
000000
000000
ENDCHAR
STARTCHAR 03-55
ENCODING 9047
SWIDTH 1010 0
DWIDTH 20 0
BBX 20 20 0 -3
BITMAP
000000
000000
404040
404040
404040
20a080
20a080
20a080
111100
111100
111100
0a0a00
0a0a00
0a0a00
040400
040400
040400
000000
000000
000000
ENDCHAR
STARTCHAR 03-56
ENCODING 9048
SWIDTH 1010 0
DWIDTH 20 0
BBX 20 20 0 -3
BITMAP
000000
000000
080080
080080
040100
020200
010400
008800
005000
002000
005000
008800
010400
020200
040100
080080
080080
000000
000000
000000
ENDCHAR
STARTCHAR 03-57
ENCODING 9049
SWIDTH 1010 0
DWIDTH 20 0
BBX 20 20 0 -3
BITMAP
000000
000000
100100
080200
080200
040400
020800
011000
011000
00a000
004000
004000
004000
004000
004000
004000
004000
000000
000000
000000
ENDCHAR
STARTCHAR 03-58
ENCODING 9050
SWIDTH 1010 0
DWIDTH 20 0
BBX 20 20 0 -3
BITMAP
000000
000000
0ffe00
000200
000400
000800
001000
001000
002000
004000
008000
010000
010000
020000
040000
080000
1fff00
000000
000000
000000
ENDCHAR
STARTCHAR 03-65
ENCODING 9057
SWIDTH 1010 0
DWIDTH 20 0
BBX 20 20 0 -3
BITMAP
000000
000000
000000
000000
000000
000000
000000
01f000
020800
040400
001c00
01e400
020400
040400
040400
021c00
01e400
000000
000000
000000
ENDCHAR
STARTCHAR 03-66
ENCODING 9058
SWIDTH 1010 0
DWIDTH 20 0
BBX 20 20 0 -3
BITMAP
000000
000000
020000
020000
020000
020000
020000
02f000
030800
020400
020200
020200
020200
020200
020400
030800
02f000
000000
000000
000000
ENDCHAR
STARTCHAR 03-67
ENCODING 9059
SWIDTH 1010 0
DWIDTH 20 0
BBX 20 20 0 -3
BITMAP
000000
000000
000000
000000
000000
000000
000000
007800
018400
010200
020000
020000
020000
020000
010200
018400
007800
000000
000000
000000
ENDCHAR
STARTCHAR 03-68
ENCODING 9060
SWIDTH 1010 0
DWIDTH 20 0
BBX 20 20 0 -3
BITMAP
000000
000000
000400
000400
000400
000400
000400
00f400
030c00
020400
040400
040400
040400
040400
020400
030c00
00f400
000000
000000
000000
ENDCHAR
STARTCHAR 03-69
ENCODING 9061
SWIDTH 1010 0
DWIDTH 20 0
BBX 20 20 0 -3
BITMAP
000000
000000
000000
000000
000000
000000
000000
007800
018400
010200
020200
03fe00
020000
020000
010200
018400
007800
000000
000000
000000
ENDCHAR
STARTCHAR 03-70
ENCODING 9062
SWIDTH 1010 0
DWIDTH 20 0
BBX 20 20 0 -3
BITMAP
000000
000000
001c00
002000
004000
004000
004000
03fc00
004000
004000
004000
004000
004000
004000
004000
004000
004000
000000
000000
000000
ENDCHAR
STARTCHAR 03-71
ENCODING 9063
SWIDTH 1010 0
DWIDTH 20 0
BBX 20 20 0 -3
BITMAP
000000
000000
000000
000000
000000
000000
000200
00e400
031800
040400
040400
021800
01e000
020000
01f000
060c00
080200
080200
040400
03f800
ENDCHAR
STARTCHAR 03-72
ENCODING 9064
SWIDTH 1010 0
DWIDTH 20 0
BBX 20 20 0 -3
BITMAP
000000
000000
020000
020000
020000
020000
020000
02f000
030800
020400
020400
020400
020400
020400
020400
020400
020400
000000
000000
000000
ENDCHAR
STARTCHAR 03-73
ENCODING 9065
SWIDTH 1010 0
DWIDTH 20 0
BBX 20 20 0 -3
BITMAP
000000
000000
000000
00c000
00c000
000000
000000
004000
004000
004000
004000
004000
004000
004000
004000
004000
004000
000000
000000
000000
ENDCHAR
STARTCHAR 03-74
ENCODING 9066
SWIDTH 1010 0
DWIDTH 20 0
BBX 20 20 0 -3
BITMAP
000000
000000
000000
003000
003000
000000
000000
001000
001000
001000
001000
001000
001000
001000
001000
001000
001000
041000
022000
01c000
ENDCHAR
STARTCHAR 03-75
ENCODING 9067
SWIDTH 1010 0
DWIDTH 20 0
BBX 20 20 0 -3
BITMAP
000000
000000
020000
020000
020000
020000
020000
020800
021000
022000
024000
02a000
031000
021000
020800
020400
020400
000000
000000
000000
ENDCHAR
STARTCHAR 03-76
ENCODING 9068
SWIDTH 1010 0
DWIDTH 20 0
BBX 20 20 0 -3
BITMAP
000000
000000
00c000
004000
004000
004000
004000
004000
004000
004000
004000
004000
004000
004000
004000
004000
004000
000000
000000
000000
ENDCHAR
STARTCHAR 03-77
ENCODING 9069
SWIDTH 1010 0
DWIDTH 20 0
BBX 20 20 0 -3
BITMAP
000000
000000
000000
000000
000000
000000
000000
0b9c00
0c6200
084200
084200
084200
084200
084200
084200
084200
084200
000000
000000
000000
ENDCHAR
STARTCHAR 03-78
ENCODING 9070
SWIDTH 1010 0
DWIDTH 20 0
BBX 20 20 0 -3
BITMAP
000000
000000
000000
000000
000000
000000
000000
02f000
030800
020400
020400
020400
020400
020400
020400
020400
020400
000000
000000
000000
ENDCHAR
STARTCHAR 03-79
ENCODING 9071
SWIDTH 1010 0
DWIDTH 20 0
BBX 20 20 0 -3
BITMAP
000000
000000
000000
000000
000000
000000
000000
00f000
030c00
020400
040200
040200
040200
040200
020400
030c00
00f000
000000
000000
000000
ENDCHAR
STARTCHAR 03-80
ENCODING 9072
SWIDTH 1010 0
DWIDTH 20 0
BBX 20 20 0 -3
BITMAP
000000
000000
000000
000000
000000
000000
000000
017800
018400
010200
010100
010100
010100
010100
010200
018400
017800
010000
010000
010000
ENDCHAR
STARTCHAR 03-81
ENCODING 9073
SWIDTH 1010 0
DWIDTH 20 0
BBX 20 20 0 -3
BITMAP
000000
000000
000000
000000
000000
000000
000000
00f400
010c00
020400
040400
040400
040400
040400
020400
011c00
00e400
000400
000400
000400
ENDCHAR
STARTCHAR 03-82
ENCODING 9074
SWIDTH 1010 0
DWIDTH 20 0
BBX 20 20 0 -3
BITMAP
000000
000000
000000
000000
000000
000000
000000
013c00
014000
018000
010000
010000
010000
010000
010000
010000
010000
000000
000000
000000
ENDCHAR
STARTCHAR 03-83
ENCODING 9075
SWIDTH 1010 0
DWIDTH 20 0
BBX 20 20 0 -3
BITMAP
000000
000000
000000
000000
000000
000000
000000
00f000
010c00
020400
010000
00f000
000c00
040200
040200
020400
01f800
000000
000000
000000
ENDCHAR
STARTCHAR 03-84
ENCODING 9076
SWIDTH 1010 0
DWIDTH 20 0
BBX 20 20 0 -3
BITMAP
000000
000000
004000
004000
004000
004000
03f800
004000
004000
004000
004000
004000
004000
004000
004000
004000
003800
000000
000000
000000
ENDCHAR
STARTCHAR 03-85
ENCODING 9077
SWIDTH 1010 0
DWIDTH 20 0
BBX 20 20 0 -3
BITMAP
000000
000000
000000
000000
000000
000000
000000
040800
040800
040800
040800
040800
040800
040800
041800
022800
01c800
000000
000000
000000
ENDCHAR
STARTCHAR 03-86
ENCODING 9078
SWIDTH 1010 0
DWIDTH 20 0
BBX 20 20 0 -3
BITMAP
000000
000000
000000
000000
000000
000000
000000
040400
040400
020800
020800
011000
011000
00a000
00a000
004000
004000
000000
000000
000000
ENDCHAR
STARTCHAR 03-87
ENCODING 9079
SWIDTH 1010 0
DWIDTH 20 0
BBX 20 20 0 -3
BITMAP
000000
000000
000000
000000
000000
000000
000000
104100
104100
104100
08a200
08a200
08a200
051400
051400
020800
020800
000000
000000
000000
ENDCHAR
STARTCHAR 03-88
ENCODING 9080
SWIDTH 1010 0
DWIDTH 20 0
BBX 20 20 0 -3
BITMAP
000000
000000
000000
000000
000000
000000
000000
040200
020400
010800
009000
006000
006000
009000
010800
020400
040200
000000
000000
000000
ENDCHAR
STARTCHAR 03-89
ENCODING 9081
SWIDTH 1010 0
DWIDTH 20 0
BBX 20 20 0 -3
BITMAP
000000
000000
000000
000000
000000
000000
000000
020400
020400
020800
010800
011000
009000
00a000
006000
004000
004000
008000
008000
030000
ENDCHAR
STARTCHAR 03-90
ENCODING 9082
SWIDTH 1010 0
DWIDTH 20 0
BBX 20 20 0 -3
BITMAP
000000
000000
000000
000000
000000
000000
000000
07fc00
000800
001000
002000
004000
004000
008000
010000
020000
07fc00
000000
000000
000000
ENDCHAR
STARTCHAR 04-01
ENCODING 9249
SWIDTH 1010 0
DWIDTH 20 0
BBX 20 20 0 -3
BITMAP
000000
000000
000000
000000
000000
000000
008000
009000
07e000
011000
011000
01f800
032600
052200
054100
088100
098200
064600
001800
000000
ENDCHAR
STARTCHAR 04-02
ENCODING 9250
SWIDTH 1010 0
DWIDTH 20 0
BBX 20 20 0 -3
BITMAP
000000
010000
010000
010000
010000
1ffc00
020000
020800
020800
02fc00
071300
0a1080
122080
212040
214040
218080
228080
1c4300
001c00
000000
ENDCHAR
STARTCHAR 04-03
ENCODING 9251
SWIDTH 1010 0
DWIDTH 20 0
BBX 20 20 0 -3
BITMAP
000000
000000
000000
000000
000000
000000
000000
000000
080400
080200
080200
080100
080100
080100
040100
048000
030000
010000
000000
000000
ENDCHAR
STARTCHAR 04-04
ENCODING 9252
SWIDTH 1010 0
DWIDTH 20 0
BBX 20 20 0 -3
BITMAP
000000
000000
000000
100000
100000
100200
200100
200080
200080
200040
200040
200040
200040
120000
120000
0c0000
040000
000000
000000
000000
ENDCHAR
STARTCHAR 04-05
ENCODING 9253
SWIDTH 1010 0
DWIDTH 20 0
BBX 20 20 0 -3
BITMAP
000000
000000
000000
000000
000000
000000
01c000
003000
000000
00e000
071000
000800
000800
000800
001000
001000
002000
00c000
000000
000000
ENDCHAR
STARTCHAR 04-06
ENCODING 9254
SWIDTH 1010 0
DWIDTH 20 0
BBX 20 20 0 -3
BITMAP
000000
018000
007000
000c00
000000
000000
00f800
0f0600
000200
000100
000100
000100
000100
000200
000200
000400
000800
003000
00c000
000000
ENDCHAR
STARTCHAR 04-07
ENCODING 9255
SWIDTH 1010 0
DWIDTH 20 0
BBX 20 20 0 -3
BITMAP
000000
000000
000000
000000
000000
018000
006000
000000
000000
00f800
071000
002000
004000
00a000
012000
022000
042000
081e00
000000
000000
ENDCHAR
STARTCHAR 04-08
ENCODING 9256
SWIDTH 1010 0
DWIDTH 20 0
BBX 20 20 0 -3
BITMAP
000000
038000
007000
000000
000000
000000
00fc00
0f0800
001000
002000
006000
009000
011000
021000
041000
081000
101000
200fc0
000000
000000
ENDCHAR
STARTCHAR 04-09
ENCODING 9257
SWIDTH 1010 0
DWIDTH 20 0
BBX 20 20 0 -3
BITMAP
000000
000000
000000
000000
000000
000000
010000
010000
017400
0f8200
010100
010000
017c00
038200
050100
090100
092200
061c00
000000
000000
ENDCHAR
STARTCHAR 04-10
ENCODING 9258
SWIDTH 1010 0
DWIDTH 20 0
BBX 20 20 0 -3
BITMAP
000000
020000
020000
020000
020000
027300
1f8080
020040
020000
020000
027e00
038180
060080
0a0040
120040
220040
221080
120f00
0c0000
000000
ENDCHAR
STARTCHAR 04-11
ENCODING 9259
SWIDTH 1010 0
DWIDTH 20 0
BBX 20 20 0 -3
BITMAP
000000
010000
010000
010000
020000
020200
03e100
3e1080
041080
041040
081040
081040
081000
101000
101000
101000
202000
212000
00c000
000000
ENDCHAR
STARTCHAR 04-12
ENCODING 9260
SWIDTH 1010 0
DWIDTH 20 0
BBX 20 20 0 -3
BITMAP
000000
010000
010040
010020
020080
020240
03e100
3e1080
041080
041040
081040
081040
081000
101000
101000
101000
202000
212000
00c000
000000
ENDCHAR
STARTCHAR 04-13
ENCODING 9261
SWIDTH 1010 0
DWIDTH 20 0
BBX 20 20 0 -3
BITMAP
000000
008000
008000
004600
0ff800
004000
002000
002180
001e00
1ff000
001000
000800
01fc00
060400
080000
080000
080000
060000
01fc00
000000
ENDCHAR
STARTCHAR 04-14
ENCODING 9262
SWIDTH 1010 0
DWIDTH 20 0
BBX 20 20 0 -3
BITMAP
000000
008040
008120
004680
0ff800
004000
002000
002180
001e00
1ff000
001000
000800
01fc00
060400
080000
080000
080000
060000
01fc00
000000
ENDCHAR
STARTCHAR 04-15
ENCODING 9263
SWIDTH 1010 0
DWIDTH 20 0
BBX 20 20 0 -3
BITMAP
000000
001000
001000
002000
004000
008000
010000
020000
040000
080000
080000
040000
020000
010000
008000
004000
002000
001000
001000
000000
ENDCHAR
STARTCHAR 04-16
ENCODING 9264
SWIDTH 1010 0
DWIDTH 20 0
BBX 20 20 0 -3
BITMAP
000000
001000
001000
002000
004000
008100
010080
020400
040200
080000
080000
040000
020000
010000
008000
004000
002000
001000
001000
000000
ENDCHAR
STARTCHAR 04-17
ENCODING 9265
SWIDTH 1010 0
DWIDTH 20 0
BBX 20 20 0 -3
BITMAP
000000
000200
080200
080200
080200
1002c0
10ff00
100200
100200
100200
100200
100200
100200
100200
080200
0a0400
040400
000800
003000
000000
ENDCHAR
STARTCHAR 04-18
ENCODING 9266
SWIDTH 1010 0
DWIDTH 20 0
BBX 20 20 0 -3
BITMAP
000000
000440
100520
100480
100400
200580
21fe00
200400
200400
200400
200400
200400
200400
200400
100400
140800
080800
001000
006000
000000
ENDCHAR
STARTCHAR 04-19
ENCODING 9267
SWIDTH 1010 0
DWIDTH 20 0
BBX 20 20 0 -3
BITMAP
000000
000000
000000
070000
00fc00
000000
000000
000000
000000
000000
000000
000000
000000
100000
100000
100000
0c0000
03ff00
000000
000000
ENDCHAR
STARTCHAR 04-20
ENCODING 9268
SWIDTH 1010 0
DWIDTH 20 0
BBX 20 20 0 -3
BITMAP
000000
000100
000480
070200
00fc00
000000
000000
000000
000000
000000
000000
000000
000000
100000
100000
100000
0c0000
03ff00
000000
000000
ENDCHAR
STARTCHAR 04-21
ENCODING 9269
SWIDTH 1010 0
DWIDTH 20 0
BBX 20 20 0 -3
BITMAP
000000
004000
004000
004000
002300
003c00
1fd000
001000
000800
000800
000400
01fa00
060600
040000
080000
080000
040000
060000
01fc00
000000
ENDCHAR
STARTCHAR 04-22
ENCODING 9270
SWIDTH 1010 0
DWIDTH 20 0
BBX 20 20 0 -3
BITMAP
000000
004040
004120
004080
002300
003c00
1fd000
001000
000800
000800
000400
01fa00
060600
040000
080000
080000
040000
060000
01fc00
000000
ENDCHAR
STARTCHAR 04-23
ENCODING 9271
SWIDTH 1010 0
DWIDTH 20 0
BBX 20 20 0 -3
BITMAP
000000
000000
040000
040000
040000
040000
040000
040000
040000
040000
040000
040000
040000
040000
040080
040100
040200
020c00
01f000
000000
ENDCHAR
STARTCHAR 04-24
ENCODING 9272
SWIDTH 1010 0
DWIDTH 20 0
BBX 20 20 0 -3
BITMAP
000000
000000
040400
040200
041100
040800
040400
040000
040000
040000
040000
040000
040000
040000
040080
040100
040200
020c00
01f000
000000
ENDCHAR
STARTCHAR 04-25
ENCODING 9273
SWIDTH 1010 0
DWIDTH 20 0
BBX 20 20 0 -3
BITMAP
000000
002000
002000
002000
002000
3fffc0
002000
002000
01e000
022000
022000
022000
022000
01e000
002000
004000
004000
008000
010000
000000
ENDCHAR
STARTCHAR 04-26
ENCODING 9274
SWIDTH 1010 0
DWIDTH 20 0
BBX 20 20 0 -3
BITMAP
000080
002440
002220
002100
002000
3fffc0
002000
002000
01e000
022000
022000
022000
022000
01e000
002000
004000
004000
008000
010000
000000
ENDCHAR
STARTCHAR 04-27
ENCODING 9275
SWIDTH 1010 0
DWIDTH 20 0
BBX 20 20 0 -3
BITMAP
000000
000400
000400
040400
040400
040400
040400
043fe0
7fc400
040400
040400
040400
043800
040000
040000
020000
020000
01ff00
000000
000000
ENDCHAR
STARTCHAR 04-28
ENCODING 9276
SWIDTH 1010 0
DWIDTH 20 0
BBX 20 20 0 -3
BITMAP
000080
000a40
000920
040880
040800
040800
040800
047fc0
7f8800
040800
040800
040800
047000
040000
040000
020000
020000
01fe00
000000
000000
ENDCHAR
STARTCHAR 04-29
ENCODING 9277
SWIDTH 1010 0
DWIDTH 20 0
BBX 20 20 0 -3
BITMAP
000000
000000
03fe00
000400
001800
002000
004000
018000
067fc0
3f9800
002000
004000
004000
008000
008000
008000
008000
004000
003e00
000000
ENDCHAR
STARTCHAR 04-30
ENCODING 9278
SWIDTH 1010 0
DWIDTH 20 0
BBX 20 20 0 -3
BITMAP
000000
000000
03fe40
000520
001880
002000
004000
018000
067fc0
3f9800
002000
004000
004000
008000
008000
008000
008000
004000
003e00
000000
ENDCHAR
STARTCHAR 04-31
ENCODING 9279
SWIDTH 1010 0
DWIDTH 20 0
BBX 20 20 0 -3
BITMAP
000000
010000
010000
010000
010000
03f000
3e0000
020000
021fc0
040000
040000
040000
040000
080000
084000
084000
102000
101fc0
100000
000000
ENDCHAR
STARTCHAR 04-32
ENCODING 9280
SWIDTH 1010 0
DWIDTH 20 0
BBX 20 20 0 -3
BITMAP
000000
010000
010080
010240
010140
03f100
3e0000
020000
021fc0
040000
040000
040000
040000
080000
084000
084000
102000
101fc0
100000
000000
ENDCHAR
STARTCHAR 04-33
ENCODING 9281
SWIDTH 1010 0
DWIDTH 20 0
BBX 20 20 0 -3
BITMAP
000000
010000
010000
010000
013c00
3fc000
020000
020000
020000
023c00
04c300
050100
060080
000080
000080
000100
000100
000600
01f800
000000
ENDCHAR
STARTCHAR 04-34
ENCODING 9282
SWIDTH 1010 0
DWIDTH 20 0
BBX 20 20 0 -3
BITMAP
000000
010000
010040
010120
013c80
3fc000
020000
020000
020000
023c00
04c300
050100
060080
000080
000080
000100
000100
000600
01f800
000000
ENDCHAR
STARTCHAR 04-35
ENCODING 9283
SWIDTH 1010 0
DWIDTH 20 0
BBX 20 20 0 -3
BITMAP
000000
000000
000000
000000
000000
000000
000000
000000
000000
000000
01f800
1e0600
000100
000100
000100
000200
000c00
00f000
000000
000000
ENDCHAR
STARTCHAR 04-36
ENCODING 9284
SWIDTH 1010 0
DWIDTH 20 0
BBX 20 20 0 -3
BITMAP
000000
000000
000000
000000
007c00
078300
780080
000040
000040
000040
000040
000040
000080
000180
000600
01f800
000000
000000
000000
000000
ENDCHAR
STARTCHAR 04-37
ENCODING 9285
SWIDTH 1010 0
DWIDTH 20 0
BBX 20 20 0 -3
BITMAP
000000
000080
000240
000100
007c00
078300
780080
000040
000040
000040
000040
000040
000080
000180
000600
01f800
000000
000000
000000
000000
ENDCHAR
STARTCHAR 04-38
ENCODING 9286
SWIDTH 1010 0
DWIDTH 20 0
BBX 20 20 0 -3
BITMAP
000000
000000
000000
003f80
3fcc00
001000
002000
004000
008000
008000
010000
010000
010000
010000
008000
008000
006000
001e00
000000
000000
ENDCHAR
STARTCHAR 04-39
ENCODING 9287
SWIDTH 1010 0
DWIDTH 20 0
BBX 20 20 0 -3
BITMAP
000000
000000
000000
003f80
3fcc00
001000
002100
004080
008400
008200
010000
010000
010000
010000
008000
008000
006000
001e00
000000
000000
ENDCHAR
STARTCHAR 04-40
ENCODING 9288
SWIDTH 1010 0
DWIDTH 20 0
BBX 20 20 0 -3
BITMAP
000000
010000
010000
010000
010000
010000
008000
008300
009c00
006000
018000
020000
040000
080000
080000
080000
060000
01ff00
000000
000000
ENDCHAR
STARTCHAR 04-41
ENCODING 9289
SWIDTH 1010 0
DWIDTH 20 0
BBX 20 20 0 -3
BITMAP
000000
010080
010040
010220
010100
010080
008000
008300
009c00
006000
018000
020000
040000
080000
080000
080000
060000
01ff00
000000
000000
ENDCHAR
STARTCHAR 04-42
ENCODING 9290
SWIDTH 1010 0
DWIDTH 20 0
BBX 20 20 0 -3
BITMAP
000000
010000
010000
010000
02e600
3f0100
020080
040000
040800
080800
080800
100800
100800
200800
00fc00
010b00
020880
020800
01f000
000000
ENDCHAR
STARTCHAR 04-43
ENCODING 9291
SWIDTH 1010 0
DWIDTH 20 0
BBX 20 20 0 -3
BITMAP
000000
000000
100000
100000
100f80
207000
200000
200000
200000
200000
200000
200000
200000
208000
208000
206000
101fc0
140000
080000
000000
ENDCHAR
STARTCHAR 04-44
ENCODING 9292
SWIDTH 1010 0
DWIDTH 20 0
BBX 20 20 0 -3
BITMAP
000000
001000
001000
001000
101000
10fc00
132300
0c2080
082080
144040
144040
228040
228040
210040
219e40
12a180
0c2140
001e20
000000
000000
ENDCHAR
STARTCHAR 04-45
ENCODING 9293
SWIDTH 1010 0
DWIDTH 20 0
BBX 20 20 0 -3
BITMAP
000000
020000
020000
020000
020000
039e00
3f6100
028080
030080
060040
060040
0e0040
0a0040
120080
221e80
022180
022140
021e20
020000
000000
ENDCHAR
STARTCHAR 04-46
ENCODING 9294
SWIDTH 1010 0
DWIDTH 20 0
BBX 20 20 0 -3
BITMAP
000000
000000
000000
00f800
032600
042100
082080
102080
104040
204040
204040
204040
208040
208040
210080
110080
0e0300
001c00
000000
000000
ENDCHAR
STARTCHAR 04-47
ENCODING 9295
SWIDTH 1010 0
DWIDTH 20 0
BBX 20 20 0 -3
BITMAP
000000
100400
100400
100400
100400
200400
20ffc0
200400
200400
200400
200400
200400
200400
200400
207c00
208700
2084c0
288400
107800
000000
ENDCHAR
STARTCHAR 04-48
ENCODING 9296
SWIDTH 1010 0
DWIDTH 20 0
BBX 20 20 0 -3
BITMAP
0000c0
100420
100580
100440
100400
200400
20ffc0
200400
200400
200400
200400
200400
200400
200400
207c00
208700
2084c0
288400
107800
000000
ENDCHAR
STARTCHAR 04-49
ENCODING 9297
SWIDTH 1010 0
DWIDTH 20 0
BBX 20 20 0 -3
BITMAP
000000
1004c0
100520
100520
1004c0
200400
20ffc0
200400
200400
200400
200400
200400
200400
200400
207c00
208700
2084c0
288400
107800
000000
ENDCHAR
STARTCHAR 04-50
ENCODING 9298
SWIDTH 1010 0
DWIDTH 20 0
BBX 20 20 0 -3
BITMAP
000000
000000
008400
078400
390400
020200
040200
040300
080280
080240
100220
100200
100200
100200
100400
080400
0c1800
03e000
000000
000000
ENDCHAR
STARTCHAR 04-51
ENCODING 9299
SWIDTH 1010 0
DWIDTH 20 0
BBX 20 20 0 -3
BITMAP
000000
000040
008520
0784a0
390480
020200
040200
040300
080280
080240
100220
100200
100200
100200
100400
080400
0c1800
03e000
000000
000000
ENDCHAR
STARTCHAR 04-52
ENCODING 9300
SWIDTH 1010 0
DWIDTH 20 0
BBX 20 20 0 -3
BITMAP
000000
000000
0084c0
078520
390520
0202c0
040200
040300
080280
080240
100220
100200
100200
100200
100400
080400
0c1800
03e000
000000
000000
ENDCHAR
STARTCHAR 04-53
ENCODING 9301
SWIDTH 1010 0
DWIDTH 20 0
BBX 20 20 0 -3
BITMAP
000000
000000
018000
006000
001000
000000
010000
010000
010000
010000
008000
006000
001300
060880
080840
100820
200800
011000
00e000
000000
ENDCHAR
STARTCHAR 04-54
ENCODING 9302
SWIDTH 1010 0
DWIDTH 20 0
BBX 20 20 0 -3
BITMAP
000000
000000
018000
006080
001240
000100
010000
010000
010000
010000
008000
006000
001300
060880
080840
100820
200800
011000
00e000
000000
ENDCHAR
STARTCHAR 04-55
ENCODING 9303
SWIDTH 1010 0
DWIDTH 20 0
BBX 20 20 0 -3
BITMAP
000000
000000
018180
006240
001240
000180
010000
010000
010000
010000
008000
006000
001300
060880
080840
100820
200800
011000
00e000
000000
ENDCHAR
STARTCHAR 04-56
ENCODING 9304
SWIDTH 1010 0
DWIDTH 20 0
BBX 20 20 0 -3
BITMAP
000000
000000
000000
000000
000000
018000
024000
042000
081000
100800
200400
000200
000100
000080
000060
000000
000000
000000
000000
000000
ENDCHAR
STARTCHAR 04-57
ENCODING 9305
SWIDTH 1010 0
DWIDTH 20 0
BBX 20 20 0 -3
BITMAP
000000
000000
000000
000080
000240
018100
024000
042000
081000
100800
200400
000200
000100
000080
000060
000000
000000
000000
000000
000000
ENDCHAR
STARTCHAR 04-58
ENCODING 9306
SWIDTH 1010 0
DWIDTH 20 0
BBX 20 20 0 -3
BITMAP
000000
000000
000000
000300
000480
018480
024300
042000
081000
100800
200400
000200
000100
000080
000060
000000
000000
000000
000000
000000
ENDCHAR
STARTCHAR 04-59
ENCODING 9307
SWIDTH 1010 0
DWIDTH 20 0
BBX 20 20 0 -3
BITMAP
000000
000000
100000
10ffc0
100400
100400
200400
20ffc0
200400
200400
200400
200400
200400
200400
207c00
208700
2084c0
288400
107800
000000
ENDCHAR
STARTCHAR 04-60
ENCODING 9308
SWIDTH 1010 0
DWIDTH 20 0
BBX 20 20 0 -3
BITMAP
000000
000040
100020
10ff80
100440
100400
200400
20ffc0
200400
200400
200400
200400
200400
200400
207c00
208700
2084c0
288400
107800
000000
ENDCHAR
STARTCHAR 04-61
ENCODING 9309
SWIDTH 1010 0
DWIDTH 20 0
BBX 20 20 0 -3
BITMAP
000000
000060
100090
10ff90
100460
100400
200400
20ffc0
200400
200400
200400
200400
200400
200400
207c00
208700
2084c0
288400
107800
000000
ENDCHAR
STARTCHAR 04-62
ENCODING 9310
SWIDTH 1010 0
DWIDTH 20 0
BBX 20 20 0 -3
BITMAP
000000
002000
002000
002000
002000
1fff00
002000
002000
002000
0fff00
002000
002000
002000
002000
07e000
083800
082600
082100
07c000
000000
ENDCHAR
STARTCHAR 04-63
ENCODING 9311
SWIDTH 1010 0
DWIDTH 20 0
BBX 20 20 0 -3
BITMAP
000000
000000
000000
0ff000
001000
001000
002000
002080
002080
004080
03f880
0c8700
1081c0
210120
210200
220200
1c0400
000800
003000
000000
ENDCHAR
STARTCHAR 04-64
ENCODING 9312
SWIDTH 1010 0
DWIDTH 20 0
BBX 20 20 0 -3
BITMAP
000000
020000
020000
020000
020000
3fe000
020000
020000
020300
0e0080
120040
220000
220200
240100
1c0100
040100
040100
040200
03fc00
000000
ENDCHAR
STARTCHAR 04-65
ENCODING 9313
SWIDTH 1010 0
DWIDTH 20 0
BBX 20 20 0 -3
BITMAP
000000
000800
000800
080800
080800
08fc00
0b1300
041080
0c2080
142040
144040
224040
228040
218080
210080
128100
0c0600
001800
000000
000000
ENDCHAR
STARTCHAR 04-66
ENCODING 9314
SWIDTH 1010 0
DWIDTH 20 0
BBX 20 20 0 -3
BITMAP
000000
010000
010000
010000
010000
010000
1ff000
010000
020000
020000
1a0000
07f200
020100
020100
020100
020100
010200
018600
007800
000000
ENDCHAR
STARTCHAR 04-67
ENCODING 9315
SWIDTH 1010 0
DWIDTH 20 0
BBX 20 20 0 -3
BITMAP
000000
000000
000000
000000
000000
000000
002000
022000
022000
011e00
016100
038100
0c8100
009e00
004000
004000
004000
002000
002000
000000
ENDCHAR
STARTCHAR 04-68
ENCODING 9316
SWIDTH 1010 0
DWIDTH 20 0
BBX 20 20 0 -3
BITMAP
000000
000000
001000
041000
041000
040e00
027180
038040
0e0040
710040
010040
009080
008f00
008000
004000
004000
002000
002000
002000
000000
ENDCHAR
STARTCHAR 04-69
ENCODING 9317
SWIDTH 1010 0
DWIDTH 20 0
BBX 20 20 0 -3
BITMAP
000000
000000
000000
000000
000000
000000
002000
001000
081000
087c00
099200
0a1100
0a1100
0c1100
0c1200
08a600
087800
002000
004000
000000
ENDCHAR
STARTCHAR 04-70
ENCODING 9318
SWIDTH 1010 0
DWIDTH 20 0
BBX 20 20 0 -3
BITMAP
000000
002000
001000
101000
101000
203e00
20d180
211080
221040
241040
281040
181040
111080
109180
107e00
002000
002000
004000
008000
000000
ENDCHAR
STARTCHAR 04-71
ENCODING 9319
SWIDTH 1010 0
DWIDTH 20 0
BBX 20 20 0 -3
BITMAP
000000
000000
000000
000000
000000
000000
002000
002000
002000
002600
003800
002000
002000
002000
03e000
043800
042600
03c000
000000
000000
ENDCHAR
STARTCHAR 04-72
ENCODING 9320
SWIDTH 1010 0
DWIDTH 20 0
BBX 20 20 0 -3
BITMAP
000000
002000
002000
002000
002000
002300
003c00
002000
002000
002000
002000
002000
002000
002000
07f000
082e00
082180
084000
078000
000000
ENDCHAR
STARTCHAR 04-73
ENCODING 9321
SWIDTH 1010 0
DWIDTH 20 0
BBX 20 20 0 -3
BITMAP
000000
030000
00e000
001800
000000
040000
040000
040000
040000
080000
087c00
098300
0a0100
0c0080
000080
000080
000100
000600
01f800
000000
ENDCHAR
STARTCHAR 04-74
ENCODING 9322
SWIDTH 1010 0
DWIDTH 20 0
BBX 20 20 0 -3
BITMAP
000000
000400
020400
020200
040200
040200
040200
040200
040200
040200
040200
050200
020400
000400
000800
000800
001000
002000
00c000
000000
ENDCHAR
STARTCHAR 04-75
ENCODING 9323
SWIDTH 1010 0
DWIDTH 20 0
BBX 20 20 0 -3
BITMAP
000000
000000
007800
078800
001000
001000
002000
004000
008000
017c00
038300
040100
080080
100080
000080
01e080
021100
021600
01f800
000000
ENDCHAR
STARTCHAR 04-76
ENCODING 9324
SWIDTH 1010 0
DWIDTH 20 0
BBX 20 20 0 -3
BITMAP
000000
040000
040000
040000
040000
070c00
3d3200
064200
048200
050200
060200
0c0200
0c0200
140200
240200
440220
040240
040180
040000
000000
ENDCHAR
STARTCHAR 04-77
ENCODING 9325
SWIDTH 1010 0
DWIDTH 20 0
BBX 20 20 0 -3
BITMAP
000000
000000
007c00
078800
000800
001000
002000
004000
008000
017c00
038300
060100
080080
100080
000080
000080
000100
000600
01f800
000000
ENDCHAR
STARTCHAR 04-78
ENCODING 9326
SWIDTH 1010 0
DWIDTH 20 0
BBX 20 20 0 -3
BITMAP
000000
000000
000000
000000
000000
020000
020000
020000
030000
1f3c00
02c200
030100
060100
060100
0a0100
120200
021c00
020000
000000
000000
ENDCHAR
STARTCHAR 04-79
ENCODING 9327
SWIDTH 1010 0
DWIDTH 20 0
BBX 20 20 0 -3
BITMAP
000000
020000
020000
020000
020000
078000
3a9e00
036180
028080
030040
060040
0e0040
0a0040
120040
220080
420080
020300
021c00
020000
000000
ENDCHAR
STARTCHAR 04-80
ENCODING 9328
SWIDTH 1010 0
DWIDTH 20 0
BBX 20 20 0 -3
BITMAP
000000
000000
01e000
0e2000
002000
002000
002000
00fe00
034180
044080
088040
108040
210040
210040
221c40
242280
182180
001e00
000000
000000
ENDCHAR
STARTCHAR 04-81
ENCODING 9329
SWIDTH 1010 0
DWIDTH 20 0
BBX 20 20 0 -3
BITMAP
000000
000000
07f800
002000
004000
008000
01f800
030400
040200
08e200
011600
01fc00
008000
010000
0787c0
185820
206020
4041c0
000000
000000
ENDCHAR
STARTCHAR 04-82
ENCODING 9330
SWIDTH 1010 0
DWIDTH 20 0
BBX 20 20 0 -3
BITMAP
000000
008000
008000
010000
1ff800
010000
020000
020000
05c380
0e2c00
183000
006000
01a000
022000
042000
040000
040000
030000
00ff00
000000
ENDCHAR
STARTCHAR 04-83
ENCODING 9331
SWIDTH 1010 0
DWIDTH 20 0
BBX 20 20 0 -3
BITMAP
000000
000000
004000
004000
008000
008000
010000
010000
020000
020000
05c000
062040
042040
082080
082080
102100
102100
201200
200c00
000000
ENDCHAR
STARTCHAR 04-84
ENCODING 9332
SWIDTH 1010 0
DWIDTH 20 0
BBX 20 20 0 -3
BITMAP
000000
018000
0070c0
000c20
000180
000040
00f800
0f0600
000200
000100
000100
000100
000100
000200
000200
000400
000800
003000
00c000
000000
ENDCHAR
STARTCHAR 05-01
ENCODING 9505
SWIDTH 1010 0
DWIDTH 20 0
BBX 20 20 0 -3
BITMAP
000000
000000
000000
000000
000000
000000
000000
000000
0fff00
000100
002200
002400
002800
002000
004000
004000
008000
010000
020000
000000
ENDCHAR
STARTCHAR 05-02
ENCODING 9506
SWIDTH 1010 0
DWIDTH 20 0
BBX 20 20 0 -3
BITMAP
000000
000000
000000
3fffc0
000040
000080
000080
002100
002200
002c00
002000
002000
004000
004000
004000
008000
008000
010000
020000
000000
ENDCHAR
STARTCHAR 05-03
ENCODING 9507
SWIDTH 1010 0
DWIDTH 20 0
BBX 20 20 0 -3
BITMAP
000000
000000
000000
000000
000000
000000
000400
000400
000800
001000
002000
006000
00a000
032000
0c2000
002000
002000
002000
002000
000000
ENDCHAR
STARTCHAR 05-04
ENCODING 9508
SWIDTH 1010 0
DWIDTH 20 0
BBX 20 20 0 -3
BITMAP
000000
000000
000100
000100
000200
000400
000800
001000
003000
005000
019000
061000
181000
001000
001000
001000
001000
001000
001000
000000
ENDCHAR
STARTCHAR 05-05
ENCODING 9509
SWIDTH 1010 0
DWIDTH 20 0
BBX 20 20 0 -3
BITMAP
000000
000000
000000
000000
000000
000000
004000
004000
07fe00
040200
040200
040200
040200
000400
000400
000800
003000
00c000
000000
000000
ENDCHAR
STARTCHAR 05-06
ENCODING 9510
SWIDTH 1010 0
DWIDTH 20 0
BBX 20 20 0 -3
BITMAP
000000
004000
004000
004000
004000
1fff80
100080
100080
100080
100080
100080
000100
000100
000200
000200
000400
000800
003000
01c000
000000
ENDCHAR
STARTCHAR 05-07
ENCODING 9511
SWIDTH 1010 0
DWIDTH 20 0
BBX 20 20 0 -3
BITMAP
000000
000000
000000
000000
000000
000000
000000
000000
000000
0ffe00
004000
004000
004000
004000
004000
004000
1fff00
000000
000000
000000
ENDCHAR
STARTCHAR 05-08
ENCODING 9512
SWIDTH 1010 0
DWIDTH 20 0
BBX 20 20 0 -3
BITMAP
000000
000000
000000
000000
000000
1fff00
004000
004000
004000
004000
004000
004000
004000
004000
004000
004000
7fffc0
000000
000000
000000
ENDCHAR
STARTCHAR 05-09
ENCODING 9513
SWIDTH 1010 0
DWIDTH 20 0
BBX 20 20 0 -3
BITMAP
000000
000000
000000
000000
000000
000000
001000
001000
001000
0fff00
003000
003000
005000
009000
031000
0c1000
001000
007000
000000
000000
ENDCHAR
STARTCHAR 05-10
ENCODING 9514
SWIDTH 1010 0
DWIDTH 20 0
BBX 20 20 0 -3
BITMAP
000000
000800
000800
000800
000800
000800
3fffe0
001800
001800
002800
002800
004800
008800
010800
020800
0c0800
300800
000800
003800
000000
ENDCHAR
STARTCHAR 05-11
ENCODING 9515
SWIDTH 1010 0
DWIDTH 20 0
BBX 20 20 0 -3
BITMAP
000000
000000
004000
004000
004000
004000
1fff80
004080
004080
004080
008080
008080
008080
010080
010080
020080
020100
040900
080600
000000
ENDCHAR
STARTCHAR 05-12
ENCODING 9516
SWIDTH 1010 0
DWIDTH 20 0
BBX 20 20 0 -3
BITMAP
000000
000000
004040
004120
004080
004000
1fff80
004080
004080
004080
008080
008080
008080
010080
010080
020080
020100
040900
080600
000000
ENDCHAR
STARTCHAR 05-13
ENCODING 9517
SWIDTH 1010 0
DWIDTH 20 0
BBX 20 20 0 -3
BITMAP
000000
000000
008000
008000
008000
007f00
1fc000
004000
004000
002000
0027c0
01f800
3e1000
001000
001000
000800
000800
000800
000800
000000
ENDCHAR
STARTCHAR 05-14
ENCODING 9518
SWIDTH 1010 0
DWIDTH 20 0
BBX 20 20 0 -3
BITMAP
000000
000000
008040
008120
008080
007f00
1fc000
004000
004000
002000
0027c0
01f800
3e1000
001000
001000
000800
000800
000800
000800
000000
ENDCHAR
STARTCHAR 05-15
ENCODING 9519
SWIDTH 1010 0
DWIDTH 20 0
BBX 20 20 0 -3
BITMAP
000000
000000
008000
008000
008000
01ff00
010100
020100
040100
080200
100200
000400
000400
000800
001000
002000
004000
018000
0e0000
000000
ENDCHAR
STARTCHAR 05-16
ENCODING 9520
SWIDTH 1010 0
DWIDTH 20 0
BBX 20 20 0 -3
BITMAP
000000
000040
008020
008080
008040
01ff00
010100
020100
040100
080200
100200
000400
000400
000800
001000
002000
004000
018000
0e0000
000000
ENDCHAR
STARTCHAR 05-17
ENCODING 9521
SWIDTH 1010 0
DWIDTH 20 0
BBX 20 20 0 -3
BITMAP
000000
000000
010000
010000
010000
020000
03ffc0
020400
040400
040400
080400
100400
000400
000800
000800
001000
002000
00c000
030000
000000
ENDCHAR
STARTCHAR 05-18
ENCODING 9522
SWIDTH 1010 0
DWIDTH 20 0
BBX 20 20 0 -3
BITMAP
000000
000100
010080
010200
010100
020000
03ffc0
020400
040400
040400
080400
100400
000400
000800
000800
001000
002000
00c000
030000
000000
ENDCHAR
STARTCHAR 05-19
ENCODING 9523
SWIDTH 1010 0
DWIDTH 20 0
BBX 20 20 0 -3
BITMAP
000000
000000
000000
000000
000000
1fff00
000100
000100
000100
000100
000100
000100
000100
000100
000100
000100
1fff00
000100
000000
000000
ENDCHAR
STARTCHAR 05-20
ENCODING 9524
SWIDTH 1010 0
DWIDTH 20 0
BBX 20 20 0 -3
BITMAP
000000
000000
000040
000120
000080
1fff00
000100
000100
000100
000100
000100
000100
000100
000100
000100
000100
1fff00
000100
000000
000000
ENDCHAR
STARTCHAR 05-21
ENCODING 9525
SWIDTH 1010 0
DWIDTH 20 0
BBX 20 20 0 -3
BITMAP
000000
000000
000400
040400
040400
040400
040400
7fffe0
040400
040400
040400
040400
040400
000400
000800
000800
001000
002000
00c000
000000
ENDCHAR
STARTCHAR 05-22
ENCODING 9526
SWIDTH 1010 0
DWIDTH 20 0
BBX 20 20 0 -3
BITMAP
000000
000040
000520
040480
040400
040400
040400
7fffe0
040400
040400
040400
040400
040400
000400
000800
000800
001000
002000
00c000
000000
ENDCHAR
STARTCHAR 05-23
ENCODING 9527
SWIDTH 1010 0
DWIDTH 20 0
BBX 20 20 0 -3
BITMAP
000000
000000
000000
060000
018000
004000
000000
180000
060040
010040
000080
000080
000100
000200
000400
000800
003000
01c000
0e0000
000000
ENDCHAR
STARTCHAR 05-24
ENCODING 9528
SWIDTH 1010 0
DWIDTH 20 0
BBX 20 20 0 -3
BITMAP
000000
000000
000080
060240
018100
004000
000000
180000
060040
010040
000080
000080
000100
000200
000400
000800
003000
01c000
0e0000
000000
ENDCHAR
STARTCHAR 05-25
ENCODING 9529
SWIDTH 1010 0
DWIDTH 20 0
BBX 20 20 0 -3
BITMAP
000000
000000
000000
000000
0ffc00
000400
000400
000400
000400
000800
000800
000800
001400
002200
004100
018080
060040
380040
000000
000000
ENDCHAR
STARTCHAR 05-26
ENCODING 9530
SWIDTH 1010 0
DWIDTH 20 0
BBX 20 20 0 -3
BITMAP
000000
000040
000120
0000a0
0ffc80
000400
000400
000400
000400
000800
000800
000800
001400
002200
004100
018080
060040
380040
000000
000000
ENDCHAR
STARTCHAR 05-27
ENCODING 9531
SWIDTH 1010 0
DWIDTH 20 0
BBX 20 20 0 -3
BITMAP
000000
000000
020000
020000
020000
020f80
03f080
7e0100
020200
020400
020800
020000
020000
020000
020000
020000
010000
00ff80
000000
000000
ENDCHAR
STARTCHAR 05-28
ENCODING 9532
SWIDTH 1010 0
DWIDTH 20 0
BBX 20 20 0 -3
BITMAP
000000
000080
020240
020100
020000
020f80
03f080
7e0100
020200
020400
020800
020000
020000
020000
020000
020000
010000
00ff80
000000
000000
ENDCHAR
STARTCHAR 05-29
ENCODING 9533
SWIDTH 1010 0
DWIDTH 20 0
BBX 20 20 0 -3
BITMAP
000000
000000
000000
000000
080080
040080
020080
010080
000100
000100
000100
000200
000200
000400
000800
001000
002000
00c000
030000
000000
ENDCHAR
STARTCHAR 05-30
ENCODING 9534
SWIDTH 1010 0
DWIDTH 20 0
BBX 20 20 0 -3
BITMAP
000040
000020
000080
000040
100100
080100
040100
020100
000200
000200
000200
000400
000400
000800
001000
002000
004000
018000
060000
000000
ENDCHAR
STARTCHAR 05-31
ENCODING 9535
SWIDTH 1010 0
DWIDTH 20 0
BBX 20 20 0 -3
BITMAP
000000
000000
008000
008000
00ff00
010100
010100
020100
058200
086200
101200
000c00
000400
000a00
001000
002000
004000
018000
0e0000
000000
ENDCHAR
STARTCHAR 05-32
ENCODING 9536
SWIDTH 1010 0
DWIDTH 20 0
BBX 20 20 0 -3
BITMAP
000000
000040
008120
008080
00ff00
010100
010100
020100
058200
086200
101200
000c00
000400
000a00
001000
002000
004000
018000
0e0000
000000
ENDCHAR
STARTCHAR 05-33
ENCODING 9537
SWIDTH 1010 0
DWIDTH 20 0
BBX 20 20 0 -3
BITMAP
000000
000000
000600
007800
0fa000
002000
002000
002000
002000
3fffc0
002000
002000
002000
002000
004000
004000
008000
010000
060000
000000
ENDCHAR
STARTCHAR 05-34
ENCODING 9538
SWIDTH 1010 0
DWIDTH 20 0
BBX 20 20 0 -3
BITMAP
000000
000000
000640
007820
0fa080
002040
002000
002000
002000
3fffc0
002000
002000
002000
002000
004000
004000
008000
010000
060000
000000
ENDCHAR
STARTCHAR 05-35
ENCODING 9539
SWIDTH 1010 0
DWIDTH 20 0
BBX 20 20 0 -3
BITMAP
000000
000000
000000
000000
000000
000000
000000
000000
010200
090200
088200
048400
040400
000800
000800
001000
002000
00c000
000000
000000
ENDCHAR
STARTCHAR 05-36
ENCODING 9540
SWIDTH 1010 0
DWIDTH 20 0
BBX 20 20 0 -3
BITMAP
000000
000000
000000
000080
010080
208080
104080
084100
080100
000100
000200
000200
000400
000400
000800
001000
002000
00c000
070000
000000
ENDCHAR
STARTCHAR 05-37
ENCODING 9541
SWIDTH 1010 0
DWIDTH 20 0
BBX 20 20 0 -3
BITMAP
000040
000120
000080
000000
010080
208080
104080
084100
080100
000100
000200
000200
000400
000400
000800
001000
002000
00c000
070000
000000
ENDCHAR
STARTCHAR 05-38
ENCODING 9542
SWIDTH 1010 0
DWIDTH 20 0
BBX 20 20 0 -3
BITMAP
000000
000000
000000
07fe00
000000
000000
000000
000000
3fffc0
002000
002000
002000
002000
002000
004000
004000
008000
010000
060000
000000
ENDCHAR
STARTCHAR 05-39
ENCODING 9543
SWIDTH 1010 0
DWIDTH 20 0
BBX 20 20 0 -3
BITMAP
000000
000040
000120
07fe80
000000
000000
000000
000000
3fffc0
002000
002000
002000
002000
002000
004000
004000
008000
010000
060000
000000
ENDCHAR
STARTCHAR 05-40
ENCODING 9544
SWIDTH 1010 0
DWIDTH 20 0
BBX 20 20 0 -3
BITMAP
000000
000000
008000
008000
008000
008000
008000
008000
008000
00e000
009800
008600
008100
008000
008000
008000
008000
008000
008000
000000
ENDCHAR
STARTCHAR 05-41
ENCODING 9545
SWIDTH 1010 0
DWIDTH 20 0
BBX 20 20 0 -3
BITMAP
000000
000000
008100
008480
008280
008200
008000
008000
008000
00e000
009800
008600
008100
008000
008000
008000
008000
008000
008000
000000
ENDCHAR
STARTCHAR 05-42
ENCODING 9546
SWIDTH 1010 0
DWIDTH 20 0
BBX 20 20 0 -3
BITMAP
000000
000000
002000
002000
002000
002000
002000
3fffc0
002000
002000
002000
002000
002000
002000
004000
004000
008000
010000
060000
000000
ENDCHAR
STARTCHAR 05-43
ENCODING 9547
SWIDTH 1010 0
DWIDTH 20 0
BBX 20 20 0 -3
BITMAP
000000
000000
000000
000000
000000
0fff00
000000
000000
000000
000000
000000
000000
000000
000000
000000
3fffc0
000000
000000
000000
000000
ENDCHAR
STARTCHAR 05-44
ENCODING 9548
SWIDTH 1010 0
DWIDTH 20 0
BBX 20 20 0 -3
BITMAP
000000
000000
000000
000000
07ff00
000100
000100
000100
000200
00c200
003400
000800
000c00
001200
002100
004080
018080
060000
180000
000000
ENDCHAR
STARTCHAR 05-45
ENCODING 9549
SWIDTH 1010 0
DWIDTH 20 0
BBX 20 20 0 -3
BITMAP
000000
004000
004000
004000
004000
0ffe00
000200
000400
000400
001800
003000
00cc00
074300
384080
004000
004000
004000
004000
004000
000000
ENDCHAR
STARTCHAR 05-46
ENCODING 9550
SWIDTH 1010 0
DWIDTH 20 0
BBX 20 20 0 -3
BITMAP
000000
000000
000000
000200
000200
000200
000200
000400
000400
000400
000800
000800
001000
002000
004000
018000
060000
180000
000000
000000
ENDCHAR
STARTCHAR 05-47
ENCODING 9551
SWIDTH 1010 0
DWIDTH 20 0
BBX 20 20 0 -3
BITMAP
000000
000000
000000
000000
000000
000800
010400
010200
010200
020100
020100
040080
040080
080080
080040
100040
200040
000000
000000
000000
ENDCHAR
STARTCHAR 05-48
ENCODING 9552
SWIDTH 1010 0
DWIDTH 20 0
BBX 20 20 0 -3
BITMAP
000000
000000
000080
000240
000140
000900
010400
010200
010200
020100
020100
040080
040080
080080
080040
100040
200040
000000
000000
000000
ENDCHAR
STARTCHAR 05-49
ENCODING 9553
SWIDTH 1010 0
DWIDTH 20 0
BBX 20 20 0 -3
BITMAP
000000
000000
0000c0
000120
000120
0008c0
010400
010200
010200
020100
020100
040080
040080
080080
080040
100040
200040
000000
000000
000000
ENDCHAR
STARTCHAR 05-50
ENCODING 9554
SWIDTH 1010 0
DWIDTH 20 0
BBX 20 20 0 -3
BITMAP
000000
000000
080000
080000
080000
080000
080000
080600
087800
0f8000
080000
080000
080000
080000
080000
080000
060000
01ff00
000000
000000
ENDCHAR
STARTCHAR 05-51
ENCODING 9555
SWIDTH 1010 0
DWIDTH 20 0
BBX 20 20 0 -3
BITMAP
000000
000000
080080
080240
080100
080000
080000
080600
087800
0f8000
080000
080000
080000
080000
080000
080000
060000
01ff00
000000
000000
ENDCHAR
STARTCHAR 05-52
ENCODING 9556
SWIDTH 1010 0
DWIDTH 20 0
BBX 20 20 0 -3
BITMAP
000000
000180
080240
080240
080180
080000
080000
080600
087800
0f8000
080000
080000
080000
080000
080000
080000
060000
01ff00
000000
000000
ENDCHAR
STARTCHAR 05-53
ENCODING 9557
SWIDTH 1010 0
DWIDTH 20 0
BBX 20 20 0 -3
BITMAP
000000
000000
000000
000000
1fff00
000100
000100
000100
000200
000200
000200
000400
000400
000800
001000
002000
00c000
070000
000000
000000
ENDCHAR
STARTCHAR 05-54
ENCODING 9558
SWIDTH 1010 0
DWIDTH 20 0
BBX 20 20 0 -3
BITMAP
000000
000040
000120
000080
1fff00
000100
000100
000100
000200
000200
000200
000400
000400
000800
001000
002000
00c000
070000
000000
000000
ENDCHAR
STARTCHAR 05-55
ENCODING 9559
SWIDTH 1010 0
DWIDTH 20 0
BBX 20 20 0 -3
BITMAP
0000c0
000120
000120
0000c0
1fff00
000100
000100
000100
000200
000200
000200
000400
000400
000800
001000
002000
00c000
070000
000000
000000
ENDCHAR
STARTCHAR 05-56
ENCODING 9560
SWIDTH 1010 0
DWIDTH 20 0
BBX 20 20 0 -3
BITMAP
000000
000000
000000
000000
000000
018000
024000
042000
081000
100800
200400
000200
000100
0000c0
000000
000000
000000
000000
000000
000000
ENDCHAR
STARTCHAR 05-57
ENCODING 9561
SWIDTH 1010 0
DWIDTH 20 0
BBX 20 20 0 -3
BITMAP
000000
000000
000000
000100
000480
018200
024000
042000
081000
100800
200400
000200
000100
0000c0
000000
000000
000000
000000
000000
000000
ENDCHAR
STARTCHAR 05-58
ENCODING 9562
SWIDTH 1010 0
DWIDTH 20 0
BBX 20 20 0 -3
BITMAP
000000
000000
000000
000300
000480
018480
024300
042000
081000
100800
200400
000200
000100
0000c0
000000
000000
000000
000000
000000
000000
ENDCHAR
STARTCHAR 05-59
ENCODING 9563
SWIDTH 1010 0
DWIDTH 20 0
BBX 20 20 0 -3
BITMAP
000000
002000
002000
002000
002000
002000
3fffc0
002000
002000
002000
022200
022100
042080
042040
082040
102000
002000
00a000
006000
000000
ENDCHAR
STARTCHAR 05-60
ENCODING 9564
SWIDTH 1010 0
DWIDTH 20 0
BBX 20 20 0 -3
BITMAP
000000
002040
002120
002080
002000
002000
3fffc0
002000
002000
002000
022200
022100
042080
042040
082040
102000
002000
00a000
006000
000000
ENDCHAR
STARTCHAR 05-61
ENCODING 9565
SWIDTH 1010 0
DWIDTH 20 0
BBX 20 20 0 -3
BITMAP
000000
0020c0
002120
002120
0020c0
002000
3fffc0
002000
002000
002000
022200
022100
042080
042040
082040
102000
002000
00a000
006000
000000
ENDCHAR
STARTCHAR 05-62
ENCODING 9566
SWIDTH 1010 0
DWIDTH 20 0
BBX 20 20 0 -3
BITMAP
000000
000000
000000
000000
000000
1fffc0
000040
000080
000100
000200
000400
018800
005000
002000
001000
000800
000400
000400
000000
000000
ENDCHAR
STARTCHAR 05-63
ENCODING 9567
SWIDTH 1010 0
DWIDTH 20 0
BBX 20 20 0 -3
BITMAP
000000
000000
078000
007800
000600
000000
000000
000000
078000
007000
000c00
000000
000000
000000
1e0000
01e000
001c00
000300
000000
000000
ENDCHAR
STARTCHAR 05-64
ENCODING 9568
SWIDTH 1010 0
DWIDTH 20 0
BBX 20 20 0 -3
BITMAP
000000
000000
004000
004000
004000
004000
008000
008000
008000
010000
010400
010200
020100
020080
040f80
05f040
3e0040
000040
000000
000000
ENDCHAR
STARTCHAR 05-65
ENCODING 9569
SWIDTH 1010 0
DWIDTH 20 0
BBX 20 20 0 -3
BITMAP
000000
000000
000000
000100
000100
000100
000200
010200
00c400
002400
001800
000800
001400
002200
004100
008000
010000
060000
180000
000000
ENDCHAR
STARTCHAR 05-66
ENCODING 9570
SWIDTH 1010 0
DWIDTH 20 0
BBX 20 20 0 -3
BITMAP
000000
000000
000000
000000
1ffe00
008000
008000
008000
008000
3fffc0
008000
008000
008000
008000
008000
008000
004000
003f80
000000
000000
ENDCHAR
STARTCHAR 05-67
ENCODING 9571
SWIDTH 1010 0
DWIDTH 20 0
BBX 20 20 0 -3
BITMAP
000000
000000
000000
000000
000000
000000
008000
008000
008f00
00f100
0f4200
004400
004800
004000
002000
002000
002000
002000
000000
000000
ENDCHAR
STARTCHAR 05-68
ENCODING 9572
SWIDTH 1010 0
DWIDTH 20 0
BBX 20 20 0 -3
BITMAP
000000
000000
010000
010000
010000
0083c0
00bc40
03c080
3c8100
008200
004400
004800
004000
004000
002000
002000
002000
002000
002000
000000
ENDCHAR
STARTCHAR 05-69
ENCODING 9573
SWIDTH 1010 0
DWIDTH 20 0
BBX 20 20 0 -3
BITMAP
000000
000000
000000
000000
000000
000000
000000
000000
07f800
000800
000800
000800
000800
000800
000800
000800
0fff00
000000
000000
000000
ENDCHAR
STARTCHAR 05-70
ENCODING 9574
SWIDTH 1010 0
DWIDTH 20 0
BBX 20 20 0 -3
BITMAP
000000
000000
000000
000000
000000
0ffc00
000400
000400
000400
000400
000800
000800
000800
000800
000800
000800
3fffc0
000000
000000
000000
ENDCHAR
STARTCHAR 05-71
ENCODING 9575
SWIDTH 1010 0
DWIDTH 20 0
BBX 20 20 0 -3
BITMAP
000000
000000
000000
000000
000000
000000
000000
07fc00
000400
000400
000400
07fc00
000400
000400
000400
000400
07fc00
000400
000000
000000
ENDCHAR
STARTCHAR 05-72
ENCODING 9576
SWIDTH 1010 0
DWIDTH 20 0
BBX 20 20 0 -3
BITMAP
000000
000000
000000
000000
0fff00
000100
000100
000100
000100
000100
07ff00
000100
000100
000100
000100
000100
0fff00
000100
000000
000000
ENDCHAR
STARTCHAR 05-73
ENCODING 9577
SWIDTH 1010 0
DWIDTH 20 0
BBX 20 20 0 -3
BITMAP
000000
000000
07fc00
000000
000000
000000
000000
1fff00
000100
000100
000100
000200
000200
000400
000800
001000
002000
00c000
070000
000000
ENDCHAR
STARTCHAR 05-74
ENCODING 9578
SWIDTH 1010 0
DWIDTH 20 0
BBX 20 20 0 -3
BITMAP
000000
000000
000400
040400
040400
040400
040400
040400
040400
040400
040400
040400
000400
000400
000800
000800
001000
002000
00c000
000000
ENDCHAR
STARTCHAR 05-75
ENCODING 9579
SWIDTH 1010 0
DWIDTH 20 0
BBX 20 20 0 -3
BITMAP
000000
000000
000000
002000
022000
022000
022000
022000
022000
022000
022000
022040
042040
042080
042080
082100
082200
102c00
203000
000000
ENDCHAR
STARTCHAR 05-76
ENCODING 9580
SWIDTH 1010 0
DWIDTH 20 0
BBX 20 20 0 -3
BITMAP
000000
000000
000000
040000
040000
040000
040000
040000
040000
040000
040080
040080
040100
040200
040400
040800
043000
04c000
070000
000000
ENDCHAR
STARTCHAR 05-77
ENCODING 9581
SWIDTH 1010 0
DWIDTH 20 0
BBX 20 20 0 -3
BITMAP
000000
000000
000000
000000
1fff00
100100
100100
100100
100100
100100
100100
100100
100100
100100
100100
100100
1fff00
100100
000000
000000
ENDCHAR
STARTCHAR 05-78
ENCODING 9582
SWIDTH 1010 0
DWIDTH 20 0
BBX 20 20 0 -3
BITMAP
000000
000000
000000
000000
000000
000000
000000
000000
07fe00
040200
040200
040200
040200
000400
000400
000800
003000
00c000
000000
000000
ENDCHAR
STARTCHAR 05-79
ENCODING 9583
SWIDTH 1010 0
DWIDTH 20 0
BBX 20 20 0 -3
BITMAP
000000
000000
000000
000000
1fff00
100100
100100
100100
100100
100100
100100
000200
000200
000400
000400
000800
001000
006000
038000
000000
ENDCHAR
STARTCHAR 05-80
ENCODING 9584
SWIDTH 1010 0
DWIDTH 20 0
BBX 20 20 0 -3
BITMAP
000000
000800
000800
000800
000800
000800
0fff80
020800
020800
020800
020800
020800
3fffe0
000800
000800
000800
000800
000800
000800
000000
ENDCHAR
STARTCHAR 05-81
ENCODING 9585
SWIDTH 1010 0
DWIDTH 20 0
BBX 20 20 0 -3
BITMAP
000000
000000
000000
000000
000000
0fff00
000100
000200
004400
005800
004000
004000
004000
004000
004000
004000
3fffc0
000000
000000
000000
ENDCHAR
STARTCHAR 05-82
ENCODING 9586
SWIDTH 1010 0
DWIDTH 20 0
BBX 20 20 0 -3
BITMAP
000000
000000
000000
0fff00
000100
000100
000100
000100
0fff00
000100
000100
000100
000200
000200
000400
000800
001000
006000
038000
000000
ENDCHAR
STARTCHAR 05-83
ENCODING 9587
SWIDTH 1010 0
DWIDTH 20 0
BBX 20 20 0 -3
BITMAP
000000
000000
000000
000000
080000
060000
018040
000040
000080
000080
000100
000200
000400
000800
001000
006000
018000
0e0000
000000
000000
ENDCHAR
STARTCHAR 05-84
ENCODING 9588
SWIDTH 1010 0
DWIDTH 20 0
BBX 20 20 0 -3
BITMAP
000000
004040
004120
0040a0
004080
1fff80
100080
100080
100080
100080
100100
000100
000100
000200
000200
000400
000800
003000
01c000
000000
ENDCHAR
STARTCHAR 05-85
ENCODING 9589
SWIDTH 1010 0
DWIDTH 20 0
BBX 20 20 0 -3
BITMAP
000000
000000
000000
000000
000000
000000
008000
008000
008000
0ffc00
008400
010400
010400
010400
020400
020400
041400
080800
000000
000000
ENDCHAR
STARTCHAR 05-86
ENCODING 9590
SWIDTH 1010 0
DWIDTH 20 0
BBX 20 20 0 -3
BITMAP
000000
000000
000000
000000
000000
000000
010000
010000
010000
01ff00
020800
020800
040800
081000
001000
002000
004000
018000
000000
000000
ENDCHAR
STARTCHAR 06-01
ENCODING 9761
SWIDTH 1010 0
DWIDTH 20 0
BBX 20 20 0 -3
BITMAP
000000
000000
004000
004000
00a000
00a000
011000
011000
020800
020800
020800
07fc00
040400
080200
080200
100100
100100
000000
000000
000000
ENDCHAR
STARTCHAR 06-02
ENCODING 9762
SWIDTH 1010 0
DWIDTH 20 0
BBX 20 20 0 -3
BITMAP
000000
000000
07f800
040400
040200
040200
040200
040200
040400
07fc00
040200
040100
040100
040100
040100
040200
07fc00
000000
000000
000000
ENDCHAR
STARTCHAR 06-03
ENCODING 9763
SWIDTH 1010 0
DWIDTH 20 0
BBX 20 20 0 -3
BITMAP
000000
000000
03ff00
020000
020000
020000
020000
020000
020000
020000
020000
020000
020000
020000
020000
020000
020000
000000
000000
000000
ENDCHAR
STARTCHAR 06-04
ENCODING 9764
SWIDTH 1010 0
DWIDTH 20 0
BBX 20 20 0 -3
BITMAP
000000
000000
004000
004000
00a000
00a000
011000
011000
020800
020800
040400
040400
080200
080200
100100
100100
3fff80
000000
000000
000000
ENDCHAR
STARTCHAR 06-05
ENCODING 9765
SWIDTH 1010 0
DWIDTH 20 0
BBX 20 20 0 -3
BITMAP
000000
000000
07ff00
040000
040000
040000
040000
040000
040000
07f800
040000
040000
040000
040000
040000
040000
07ff00
000000
000000
000000
ENDCHAR
STARTCHAR 06-06
ENCODING 9766
SWIDTH 1010 0
DWIDTH 20 0
BBX 20 20 0 -3
BITMAP
000000
000000
0fff00
000200
000400
000800
000800
001000
002000
004000
008000
010000
010000
020000
040000
080000
1fff00
000000
000000
000000
ENDCHAR
STARTCHAR 06-07
ENCODING 9767
SWIDTH 1010 0
DWIDTH 20 0
BBX 20 20 0 -3
BITMAP
000000
000000
080100
080100
080100
080100
080100
080100
080100
0fff00
080100
080100
080100
080100
080100
080100
080100
000000
000000
000000
ENDCHAR
STARTCHAR 06-08
ENCODING 9768
SWIDTH 1010 0
DWIDTH 20 0
BBX 20 20 0 -3
BITMAP
000000
000000
00f000
030c00
040200
080100
080100
100080
100080
11f880
100080
100080
080100
080100
040200
030c00
00f000
000000
000000
000000
ENDCHAR
STARTCHAR 06-09
ENCODING 9769
SWIDTH 1010 0
DWIDTH 20 0
BBX 20 20 0 -3
BITMAP
000000
000000
00e000
004000
004000
004000
004000
004000
004000
004000
004000
004000
004000
004000
004000
004000
00e000
000000
000000
000000
ENDCHAR
STARTCHAR 06-10
ENCODING 9770
SWIDTH 1010 0
DWIDTH 20 0
BBX 20 20 0 -3
BITMAP
000000
000000
040200
040400
040800
041000
042000
044000
048000
058000
064000
042000
041000
040800
040400
040200
040100
000000
000000
000000
ENDCHAR
STARTCHAR 06-11
ENCODING 9771
SWIDTH 1010 0
DWIDTH 20 0
BBX 20 20 0 -3
BITMAP
000000
000000
004000
004000
00a000
00a000
011000
011000
020800
020800
040400
040400
080200
080200
100100
100100
100100
000000
000000
000000
ENDCHAR
STARTCHAR 06-12
ENCODING 9772
SWIDTH 1010 0
DWIDTH 20 0
BBX 20 20 0 -3
BITMAP
000000
000000
300180
300180
280280
280280
240480
240480
220880
220880
211080
211080
20a080
20a080
204080
204080
204080
000000
000000
000000
ENDCHAR
STARTCHAR 06-13
ENCODING 9773
SWIDTH 1010 0
DWIDTH 20 0
BBX 20 20 0 -3
BITMAP
000000
000000
100100
180100
140100
120100
110100
110100
108100
104100
102100
101100
101100
100900
100500
100300
100100
000000
000000
000000
ENDCHAR
STARTCHAR 06-14
ENCODING 9774
SWIDTH 1010 0
DWIDTH 20 0
BBX 20 20 0 -3
BITMAP
000000
000000
1fff00
000000
000000
000000
000000
000000
000000
03f800
000000
000000
000000
000000
000000
000000
1fff00
000000
000000
000000
ENDCHAR
STARTCHAR 06-15
ENCODING 9775
SWIDTH 1010 0
DWIDTH 20 0
BBX 20 20 0 -3
BITMAP
000000
000000
00f000
030c00
040200
080100
080100
100080
100080
100080
100080
100080
080100
080100
040200
030c00
00f000
000000
000000
000000
ENDCHAR
STARTCHAR 06-16
ENCODING 9776
SWIDTH 1010 0
DWIDTH 20 0
BBX 20 20 0 -3
BITMAP
000000
000000
0ffe00
080200
080200
080200
080200
080200
080200
080200
080200
080200
080200
080200
080200
080200
080200
000000
000000
000000
ENDCHAR
STARTCHAR 06-17
ENCODING 9777
SWIDTH 1010 0
DWIDTH 20 0
BBX 20 20 0 -3
BITMAP
000000
000000
07fc00
040200
040100
040100
040100
040100
040200
07fc00
040000
040000
040000
040000
040000
040000
040000
000000
000000
000000
ENDCHAR
STARTCHAR 06-18
ENCODING 9778
SWIDTH 1010 0
DWIDTH 20 0
BBX 20 20 0 -3
BITMAP
000000
000000
0fff80
040000
020000
010000
008000
004000
002000
001800
002000
004000
008000
010000
020000
040000
0fff80
000000
000000
000000
ENDCHAR
STARTCHAR 06-19
ENCODING 9779
SWIDTH 1010 0
DWIDTH 20 0
BBX 20 20 0 -3
BITMAP
000000
000000
3fff80
004000
004000
004000
004000
004000
004000
004000
004000
004000
004000
004000
004000
004000
004000
000000
000000
000000
ENDCHAR
STARTCHAR 06-20
ENCODING 9780
SWIDTH 1010 0
DWIDTH 20 0
BBX 20 20 0 -3
BITMAP
000000
000000
071c00
18a300
204080
204080
404040
404040
004000
004000
004000
004000
004000
004000
004000
004000
004000
000000
000000
000000
ENDCHAR
STARTCHAR 06-21
ENCODING 9781
SWIDTH 1010 0
DWIDTH 20 0
BBX 20 20 0 -3
BITMAP
000000
000000
004000
004000
03f800
0c4600
104100
204080
204080
204080
204080
104100
0c4600
03f800
004000
004000
004000
000000
000000
000000
ENDCHAR
STARTCHAR 06-22
ENCODING 9782
SWIDTH 1010 0
DWIDTH 20 0
BBX 20 20 0 -3
BITMAP
000000
000000
100100
080200
040400
040400
020800
011000
00a000
004000
00a000
011000
020800
040400
040400
080200
100100
000000
000000
000000
ENDCHAR
STARTCHAR 06-23
ENCODING 9783
SWIDTH 1010 0
DWIDTH 20 0
BBX 20 20 0 -3
BITMAP
000000
000000
004000
104100
104100
104100
104100
104100
104100
104100
084200
044400
03f800
004000
004000
004000
004000
000000
000000
000000
ENDCHAR
STARTCHAR 06-24
ENCODING 9784
SWIDTH 1010 0
DWIDTH 20 0
BBX 20 20 0 -3
BITMAP
000000
000000
01f800
060600
080100
080100
100080
100080
100080
100080
100080
080100
040200
020400
019800
009000
1f9f80
000000
000000
000000
ENDCHAR
STARTCHAR 06-33
ENCODING 9793
SWIDTH 1010 0
DWIDTH 20 0
BBX 20 20 0 -3
BITMAP
000000
000000
000000
000000
000000
000000
000000
00e200
011200
021200
021400
041400
041800
041000
042a00
022a00
01c400
000000
000000
000000
ENDCHAR
STARTCHAR 06-34
ENCODING 9794
SWIDTH 1010 0
DWIDTH 20 0
BBX 20 20 0 -3
BITMAP
000000
000000
001c00
002200
004100
004100
008100
008200
00b400
010800
010400
010200
010200
020200
020200
028400
027800
020000
020000
000000
ENDCHAR
STARTCHAR 06-35
ENCODING 9795
SWIDTH 1010 0
DWIDTH 20 0
BBX 20 20 0 -3
BITMAP
000000
000000
000000
000000
000000
000000
000000
000000
018600
024800
045000
002000
006000
004000
004000
004000
008000
008000
008000
000000
ENDCHAR
STARTCHAR 06-36
ENCODING 9796
SWIDTH 1010 0
DWIDTH 20 0
BBX 20 20 0 -3
BITMAP
000000
000000
003000
004c00
004200
004100
002000
003000
00cc00
010400
010200
020200
020200
020400
020400
010800
00f000
000000
000000
000000
ENDCHAR
STARTCHAR 06-37
ENCODING 9797
SWIDTH 1010 0
DWIDTH 20 0
BBX 20 20 0 -3
BITMAP
000000
000000
000000
000000
000000
000000
000000
007800
008400
010000
010000
00f000
010000
020000
020400
010800
00f000
000000
000000
000000
ENDCHAR
STARTCHAR 06-38
ENCODING 9798
SWIDTH 1010 0
DWIDTH 20 0
BBX 20 20 0 -3
BITMAP
000000
000000
010000
020c00
021800
01e000
004000
008000
010000
010000
020000
020000
020000
020000
018000
007000
000c00
000400
00c400
003800
ENDCHAR
STARTCHAR 06-39
ENCODING 9799
SWIDTH 1010 0
DWIDTH 20 0
BBX 20 20 0 -3
BITMAP
000000
000000
000000
000000
000000
000000
000000
031800
04a400
00c200
008200
010400
010400
010400
020800
020800
020800
001000
001000
001000
ENDCHAR
STARTCHAR 06-40
ENCODING 9800
SWIDTH 1010 0
DWIDTH 20 0
BBX 20 20 0 -3
BITMAP
000000
000000
003800
004400
008200
010200
010200
020200
020200
03fc00
040400
040400
040800
040800
041000
022000
01c000
000000
000000
000000
ENDCHAR
STARTCHAR 06-41
ENCODING 9801
SWIDTH 1010 0
DWIDTH 20 0
BBX 20 20 0 -3
BITMAP
000000
000000
000000
000000
000000
000000
000000
008000
008000
010000
010000
010000
020000
020000
020800
023000
01c000
000000
000000
000000
ENDCHAR
STARTCHAR 06-42
ENCODING 9802
SWIDTH 1010 0
DWIDTH 20 0
BBX 20 20 0 -3
BITMAP
000000
000000
000000
000000
000000
000000
000000
010c00
011000
012000
024000
038000
024000
022000
042400
042800
041000
000000
000000
000000
ENDCHAR
STARTCHAR 06-43
ENCODING 9803
SWIDTH 1010 0
DWIDTH 20 0
BBX 20 20 0 -3
BITMAP
000000
000000
00c000
002000
001000
001000
001000
001000
003000
005000
005000
009000
009000
011000
010800
020800
020600
000000
000000
000000
ENDCHAR
STARTCHAR 06-44
ENCODING 9804
SWIDTH 1010 0
DWIDTH 20 0
BBX 20 20 0 -3
BITMAP
000000
000000
000000
000000
000000
000000
000000
020800
020800
020800
041000
041000
041000
042000
0c2200
0a5400
098800
080000
100000
100000
ENDCHAR
STARTCHAR 06-45
ENCODING 9805
SWIDTH 1010 0
DWIDTH 20 0
BBX 20 20 0 -3
BITMAP
000000
000000
000000
000000
000000
000000
000000
040400
020400
020400
010400
010800
010800
011000
012000
014000
018000
000000
000000
000000
ENDCHAR
STARTCHAR 06-46
ENCODING 9806
SWIDTH 1010 0
DWIDTH 20 0
BBX 20 20 0 -3
BITMAP
000000
000000
007800
008000
004000
00fe00
010000
020000
020000
010000
01fc00
020000
040000
040000
020000
01c000
003800
000400
020400
01f800
ENDCHAR
STARTCHAR 06-47
ENCODING 9807
SWIDTH 1010 0
DWIDTH 20 0
BBX 20 20 0 -3
BITMAP
000000
000000
000000
000000
000000
000000
000000
007000
018800
020400
020400
040400
040400
040800
040800
023000
01c000
000000
000000
000000
ENDCHAR
STARTCHAR 06-48
ENCODING 9808
SWIDTH 1010 0
DWIDTH 20 0
BBX 20 20 0 -3
BITMAP
000000
000000
000000
000000
000000
000000
000100
07fe00
089000
009000
009000
011000
011000
021000
021100
041200
080c00
000000
000000
000000
ENDCHAR
STARTCHAR 06-49
ENCODING 9809
SWIDTH 1010 0
DWIDTH 20 0
BBX 20 20 0 -3
BITMAP
000000
000000
000000
000000
000000
000000
000000
003c00
004200
008100
008100
010100
010100
010200
010200
028c00
027000
020000
020000
020000
ENDCHAR
STARTCHAR 06-50
ENCODING 9810
SWIDTH 1010 0
DWIDTH 20 0
BBX 20 20 0 -3
BITMAP
000000
000000
000000
000000
000000
000000
000180
007e00
018800
020400
020400
040400
040400
040400
040800
021000
01e000
000000
000000
000000
ENDCHAR
STARTCHAR 06-51
ENCODING 9811
SWIDTH 1010 0
DWIDTH 20 0
BBX 20 20 0 -3
BITMAP
000000
000000
000000
000000
000000
000000
000400
07f800
088000
008000
008000
010000
010000
010000
010800
013000
00c000
000000
000000
000000
ENDCHAR
STARTCHAR 06-52
ENCODING 9812
SWIDTH 1010 0
DWIDTH 20 0
BBX 20 20 0 -3
BITMAP
000000
000000
000000
000000
000000
000000
000000
040800
020400
020400
020400
020400
020800
020800
021000
022000
01c000
000000
000000
000000
ENDCHAR
STARTCHAR 06-53
ENCODING 9813
SWIDTH 1010 0
DWIDTH 20 0
BBX 20 20 0 -3
BITMAP
000000
000000
001000
001000
001000
001000
002000
00f800
012400
022200
042200
044200
044200
044400
024800
01f000
008000
008000
008000
008000
ENDCHAR
STARTCHAR 06-54
ENCODING 9814
SWIDTH 1010 0
DWIDTH 20 0
BBX 20 20 0 -3
BITMAP
000000
000000
000000
000000
000000
000000
000000
018400
024800
005000
005000
006000
00c000
014000
014400
022400
041800
000000
000000
000000
ENDCHAR
STARTCHAR 06-55
ENCODING 9815
SWIDTH 1010 0
DWIDTH 20 0
BBX 20 20 0 -3
BITMAP
000000
000000
001000
001000
001000
001000
002000
012400
022200
042200
042200
044200
044200
044400
024800
01f000
008000
008000
008000
008000
ENDCHAR
STARTCHAR 06-56
ENCODING 9816
SWIDTH 1010 0
DWIDTH 20 0
BBX 20 20 0 -3
BITMAP
000000
000000
000000
000000
000000
000000
000000
010400
020200
040200
042100
082100
082100
084200
084200
04a400
031800
000000
000000
000000
ENDCHAR
STARTCHAR 07-01
ENCODING 10017
SWIDTH 1010 0
DWIDTH 20 0
BBX 20 20 0 -3
BITMAP
000000
000000
004000
004000
00a000
00a000
011000
011000
020800
020800
040400
07fc00
040400
080200
080200
100100
100100
000000
000000
000000
ENDCHAR
STARTCHAR 07-02
ENCODING 10018
SWIDTH 1010 0
DWIDTH 20 0
BBX 20 20 0 -3
BITMAP
000000
000000
07fe00
040000
040000
040000
040000
040000
040000
07fc00
040200
040100
040100
040100
040100
040200
07fc00
000000
000000
000000
ENDCHAR
STARTCHAR 07-03
ENCODING 10019
SWIDTH 1010 0
DWIDTH 20 0
BBX 20 20 0 -3
BITMAP
000000
000000
07f800
040400
040200
040200
040200
040400
040800
07fc00
040200
040100
040100
040100
040100
040200
07fc00
000000
000000
000000
ENDCHAR
STARTCHAR 07-04
ENCODING 10020
SWIDTH 1010 0
DWIDTH 20 0
BBX 20 20 0 -3
BITMAP
000000
000000
03ff00
020000
020000
020000
020000
020000
020000
020000
020000
020000
020000
020000
020000
020000
020000
000000
000000
000000
ENDCHAR
STARTCHAR 07-05
ENCODING 10021
SWIDTH 1010 0
DWIDTH 20 0
BBX 20 20 0 -3
BITMAP
000000
000000
00ff00
008100
008100
008100
008100
008100
010100
010100
010100
020100
020100
040100
040100
080100
1fff80
100080
100080
000000
ENDCHAR
STARTCHAR 07-06
ENCODING 10022
SWIDTH 1010 0
DWIDTH 20 0
BBX 20 20 0 -3
BITMAP
000000
000000
07ff00
040000
040000
040000
040000
040000
040000
07f000
040000
040000
040000
040000
040000
040000
07ff00
000000
000000
000000
ENDCHAR
STARTCHAR 07-07
ENCODING 10023
SWIDTH 1010 0
DWIDTH 20 0
BBX 20 20 0 -3
BITMAP
030c00
030c00
000000
07ff00
040000
040000
040000
040000
040000
07f000
040000
040000
040000
040000
040000
040000
07ff00
000000
000000
000000
ENDCHAR
STARTCHAR 07-08
ENCODING 10024
SWIDTH 1010 0
DWIDTH 20 0
BBX 20 20 0 -3
BITMAP
000000
000000
304180
484240
084200
044400
044400
024800
01f000
015000
024800
024800
044400
044400
084200
104100
6040c0
000000
000000
000000
ENDCHAR
STARTCHAR 07-09
ENCODING 10025
SWIDTH 1010 0
DWIDTH 20 0
BBX 20 20 0 -3
BITMAP
000000
000000
03f800
040400
080200
080100
000100
000200
000400
00fc00
000200
000100
000100
080100
080200
040400
03f800
000000
000000
000000
ENDCHAR
STARTCHAR 07-10
ENCODING 10026
SWIDTH 1010 0
DWIDTH 20 0
BBX 20 20 0 -3
BITMAP
000000
000000
100300
100500
100900
100900
101100
102100
104100
104100
108100
110100
120100
120100
140100
180100
100100
000000
000000
000000
ENDCHAR
STARTCHAR 07-11
ENCODING 10027
SWIDTH 1010 0
DWIDTH 20 0
BBX 20 20 0 -3
BITMAP
021000
021000
01e000
100100
100300
100500
100900
101100
102100
102100
104100
108100
110100
110100
120100
140100
180100
000000
000000
000000
ENDCHAR
STARTCHAR 07-12
ENCODING 10028
SWIDTH 1010 0
DWIDTH 20 0
BBX 20 20 0 -3
BITMAP
000000
000000
080600
080980
081000
082000
082000
084000
088000
0f8000
084000
082000
081000
080800
080400
080200
080180
000000
000000
000000
ENDCHAR
STARTCHAR 07-13
ENCODING 10029
SWIDTH 1010 0
DWIDTH 20 0
BBX 20 20 0 -3
BITMAP
000000
000000
01ff00
010100
010100
010100
010100
010100
010100
010100
010100
010100
020100
020100
020100
040100
380100
000000
000000
000000
ENDCHAR
STARTCHAR 07-14
ENCODING 10030
SWIDTH 1010 0
DWIDTH 20 0
BBX 20 20 0 -3
BITMAP
000000
000000
180300
180300
140300
140500
140500
120900
220880
211080
211080
20a080
20a080
404040
404040
404040
400040
000000
000000
000000
ENDCHAR
STARTCHAR 07-15
ENCODING 10031
SWIDTH 1010 0
DWIDTH 20 0
BBX 20 20 0 -3
BITMAP
000000
000000
080100
080100
080100
080100
080100
080100
080100
0fff00
080100
080100
080100
080100
080100
080100
080100
000000
000000
000000
ENDCHAR
STARTCHAR 07-16
ENCODING 10032
SWIDTH 1010 0
DWIDTH 20 0
BBX 20 20 0 -3
BITMAP
000000
000000
00f000
030c00
040200
080100
080100
100080
100080
100080
100080
100080
080100
080100
040200
030c00
00f000
000000
000000
000000
ENDCHAR
STARTCHAR 07-17
ENCODING 10033
SWIDTH 1010 0
DWIDTH 20 0
BBX 20 20 0 -3
BITMAP
000000
000000
0fff00
080100
080100
080100
080100
080100
080100
080100
080100
080100
080100
080100
080100
080100
080100
000000
000000
000000
ENDCHAR
STARTCHAR 07-18
ENCODING 10034
SWIDTH 1010 0
DWIDTH 20 0
BBX 20 20 0 -3
BITMAP
000000
000000
07fc00
040200
040100
040100
040100
040100
040200
07fc00
040000
040000
040000
040000
040000
040000
040000
000000
000000
000000
ENDCHAR
STARTCHAR 07-19
ENCODING 10035
SWIDTH 1010 0
DWIDTH 20 0
BBX 20 20 0 -3
BITMAP
000000
000000
00fc00
030200
040100
080080
080080
100000
100000
100000
100000
100000
080000
080080
040100
030600
00f800
000000
000000
000000
ENDCHAR
STARTCHAR 07-20
ENCODING 10036
SWIDTH 1010 0
DWIDTH 20 0
BBX 20 20 0 -3
BITMAP
000000
000000
3fff80
004000
004000
004000
004000
004000
004000
004000
004000
004000
004000
004000
004000
004000
004000
000000
000000
000000
ENDCHAR
STARTCHAR 07-21
ENCODING 10037
SWIDTH 1010 0
DWIDTH 20 0
BBX 20 20 0 -3
BITMAP
000000
000000
080080
080080
040100
040100
020200
010400
010400
008800
008800
005000
003000
002000
002000
004000
008000
0f0000
000000
000000
ENDCHAR
STARTCHAR 07-22
ENCODING 10038
SWIDTH 1010 0
DWIDTH 20 0
BBX 20 20 0 -3
BITMAP
000000
000000
004000
004000
03f800
0c4600
104100
204080
204080
204080
204080
104100
0c4600
03f800
004000
004000
004000
000000
000000
000000
ENDCHAR
STARTCHAR 07-23
ENCODING 10039
SWIDTH 1010 0
DWIDTH 20 0
BBX 20 20 0 -3
BITMAP
000000
000000
080100
080100
040200
020400
010800
010800
009000
006000
009000
010800
010800
020400
040200
080100
080100
000000
000000
000000
ENDCHAR
STARTCHAR 07-24
ENCODING 10040
SWIDTH 1010 0
DWIDTH 20 0
BBX 20 20 0 -3
BITMAP
000000
000000
040200
040200
040200
040200
040200
040200
040200
040200
040200
040200
040200
040200
040200
040200
07ff80
000080
000080
000000
ENDCHAR
STARTCHAR 07-25
ENCODING 10041
SWIDTH 1010 0
DWIDTH 20 0
BBX 20 20 0 -3
BITMAP
000000
000000
080200
080200
080200
080200
080200
080200
080200
080200
080e00
041200
03e200
000200
000200
000200
000200
000000
000000
000000
ENDCHAR
STARTCHAR 07-26
ENCODING 10042
SWIDTH 1010 0
DWIDTH 20 0
BBX 20 20 0 -3
BITMAP
000000
000000
204080
204080
204080
204080
204080
204080
204080
204080
204080
204080
204080
204080
204080
204080
3fff80
000000
000000
000000
ENDCHAR
STARTCHAR 07-27
ENCODING 10043
SWIDTH 1010 0
DWIDTH 20 0
BBX 20 20 0 -3
BITMAP
000000
000000
204080
204080
204080
204080
204080
204080
204080
204080
204080
204080
204080
204080
204080
204080
3fffe0
000020
000020
000000
ENDCHAR
STARTCHAR 07-28
ENCODING 10044
SWIDTH 1010 0
DWIDTH 20 0
BBX 20 20 0 -3
BITMAP
000000
000000
3e0000
220000
220000
020000
020000
020000
020000
03fe00
020100
020080
020080
020080
020080
020100
03fe00
000000
000000
000000
ENDCHAR
STARTCHAR 07-29
ENCODING 10045
SWIDTH 1010 0
DWIDTH 20 0
BBX 20 20 0 -3
BITMAP
000000
000000
100080
100080
100080
100080
100080
100080
100080
1fe080
101080
100880
100880
100880
101080
101080
1fe080
000000
000000
000000
ENDCHAR
STARTCHAR 07-30
ENCODING 10046
SWIDTH 1010 0
DWIDTH 20 0
BBX 20 20 0 -3
BITMAP
000000
000000
040000
040000
040000
040000
040000
040000
040000
07fc00
040200
040100
040100
040100
040100
040600
07f800
000000
000000
000000
ENDCHAR
STARTCHAR 07-31
ENCODING 10047
SWIDTH 1010 0
DWIDTH 20 0
BBX 20 20 0 -3
BITMAP
000000
000000
03f000
0c0c00
100200
000200
000100
000100
038100
044700
003900
000100
000100
000200
100200
0c0c00
03f000
000000
000000
000000
ENDCHAR
STARTCHAR 07-32
ENCODING 10048
SWIDTH 1010 0
DWIDTH 20 0
BBX 20 20 0 -3
BITMAP
000000
000000
203e00
204100
208080
208080
210040
210040
210040
3f0040
210040
210040
210040
208080
208080
204100
203e00
000000
000000
000000
ENDCHAR
STARTCHAR 07-33
ENCODING 10049
SWIDTH 1010 0
DWIDTH 20 0
BBX 20 20 0 -3
BITMAP
000000
000000
03ff00
040100
080100
080100
080100
080100
040100
03ff00
008100
010100
010100
020100
040100
080100
300100
000000
000000
000000
ENDCHAR
STARTCHAR 07-49
ENCODING 10065
SWIDTH 1010 0
DWIDTH 20 0
BBX 20 20 0 -3
BITMAP
000000
000000
000000
000000
000000
000000
000000
00f000
010800
020400
000400
007c00
018400
020400
020400
020d00
01f600
000000
000000
000000
ENDCHAR
STARTCHAR 07-50
ENCODING 10066
SWIDTH 1010 0
DWIDTH 20 0
BBX 20 20 0 -3
BITMAP
000000
000000
000200
000c00
007000
018000
020000
04f000
050c00
060400
040200
040200
040200
040200
020400
010800
00f000
000000
000000
000000
ENDCHAR
STARTCHAR 07-51
ENCODING 10067
SWIDTH 1010 0
DWIDTH 20 0
BBX 20 20 0 -3
BITMAP
000000
000000
000000
000000
000000
000000
000000
01f800
010400
010200
010400
01f800
010400
010200
010200
010400
01f800
000000
000000
000000
ENDCHAR
STARTCHAR 07-52
ENCODING 10068
SWIDTH 1010 0
DWIDTH 20 0
BBX 20 20 0 -3
BITMAP
000000
000000
000000
000000
000000
000000
000000
01fe00
010000
010000
010000
010000
010000
010000
010000
010000
010000
000000
000000
000000
ENDCHAR
STARTCHAR 07-53
ENCODING 10069
SWIDTH 1010 0
DWIDTH 20 0
BBX 20 20 0 -3
BITMAP
000000
000000
000000
000000
000000
000000
000000
01fe00
010200
010200
010200
010200
020200
020200
020200
040200
07ff00
080100
080100
000000
ENDCHAR
STARTCHAR 07-54
ENCODING 10070
SWIDTH 1010 0
DWIDTH 20 0
BBX 20 20 0 -3
BITMAP
000000
000000
000000
000000
000000
000000
000000
00f800
010400
020200
020200
03fe00
020000
020000
020200
010400
00f800
000000
000000
000000
ENDCHAR
STARTCHAR 07-55
ENCODING 10071
SWIDTH 1010 0
DWIDTH 20 0
BBX 20 20 0 -3
BITMAP
000000
000000
000000
018c00
018c00
000000
000000
00f800
010400
020200
020200
03fe00
020000
020000
020200
010400
00f800
000000
000000
000000
ENDCHAR
STARTCHAR 07-56
ENCODING 10072
SWIDTH 1010 0
DWIDTH 20 0
BBX 20 20 0 -3
BITMAP
000000
000000
000000
000000
000000
000000
000000
184300
244480
024800
015000
01f000
024800
044400
084200
104100
204080
000000
000000
000000
ENDCHAR
STARTCHAR 07-57
ENCODING 10073
SWIDTH 1010 0
DWIDTH 20 0
BBX 20 20 0 -3
BITMAP
000000
000000
000000
000000
000000
000000
000000
01f000
020800
040400
000800
007000
000800
000400
040400
020800
01f000
000000
000000
000000
ENDCHAR
STARTCHAR 07-58
ENCODING 10074
SWIDTH 1010 0
DWIDTH 20 0
BBX 20 20 0 -3
BITMAP
000000
000000
000000
000000
000000
000000
000000
040200
040600
040a00
041200
042200
044200
048200
050200
060200
040200
000000
000000
000000
ENDCHAR
STARTCHAR 07-59
ENCODING 10075
SWIDTH 1010 0
DWIDTH 20 0
BBX 20 20 0 -3
BITMAP
000000
000000
000000
000000
020400
01f800
000000
040200
040600
040a00
041200
042200
044200
048200
050200
060200
040200
000000
000000
000000
ENDCHAR
STARTCHAR 07-60
ENCODING 10076
SWIDTH 1010 0
DWIDTH 20 0
BBX 20 20 0 -3
BITMAP
000000
000000
000000
000000
000000
000000
000000
020c00
021200
022000
024000
038000
024000
022000
021000
020800
020600
000000
000000
000000
ENDCHAR
STARTCHAR 07-61
ENCODING 10077
SWIDTH 1010 0
DWIDTH 20 0
BBX 20 20 0 -3
BITMAP
000000
000000
000000
000000
000000
000000
000000
007e00
004200
004200
004200
004200
008200
008200
008200
010200
0e0200
000000
000000
000000
ENDCHAR
STARTCHAR 07-62
ENCODING 10078
SWIDTH 1010 0
DWIDTH 20 0
BBX 20 20 0 -3
BITMAP
000000
000000
000000
000000
000000
000000
000000
020400
020400
020400
050a00
051200
089100
08a100
084100
104080
104080
000000
000000
000000
ENDCHAR
STARTCHAR 07-63
ENCODING 10079
SWIDTH 1010 0
DWIDTH 20 0
BBX 20 20 0 -3
BITMAP
000000
000000
000000
000000
000000
000000
000000
040200
040200
040200
040200
07fe00
040200
040200
040200
040200
040200
000000
000000
000000
ENDCHAR
STARTCHAR 07-64
ENCODING 10080
SWIDTH 1010 0
DWIDTH 20 0
BBX 20 20 0 -3
BITMAP
000000
000000
000000
000000
000000
000000
000000
01f000
020800
040400
040400
040400
040400
040400
040400
020800
01f000
000000
000000
000000
ENDCHAR
STARTCHAR 07-65
ENCODING 10081
SWIDTH 1010 0
DWIDTH 20 0
BBX 20 20 0 -3
BITMAP
000000
000000
000000
000000
000000
000000
000000
07fe00
040200
040200
040200
040200
040200
040200
040200
040200
040200
000000
000000
000000
ENDCHAR
STARTCHAR 07-66
ENCODING 10082
SWIDTH 1010 0
DWIDTH 20 0
BBX 20 20 0 -3
BITMAP
000000
000000
000000
000000
000000
000000
000000
02f800
030400
020200
020100
020100
020100
020100
020200
030400
02f800
020000
020000
020000
ENDCHAR
STARTCHAR 07-67
ENCODING 10083
SWIDTH 1010 0
DWIDTH 20 0
BBX 20 20 0 -3
BITMAP
000000
000000
000000
000000
000000
000000
000000
00f800
010400
020200
020200
020000
020000
020000
020200
010400
00f800
000000
000000
000000
ENDCHAR
STARTCHAR 07-68
ENCODING 10084
SWIDTH 1010 0
DWIDTH 20 0
BBX 20 20 0 -3
BITMAP
000000
000000
000000
000000
000000
000000
000000
0ffe00
004000
004000
004000
004000
004000
004000
004000
004000
004000
000000
000000
000000
ENDCHAR
STARTCHAR 07-69
ENCODING 10085
SWIDTH 1010 0
DWIDTH 20 0
BBX 20 20 0 -3
BITMAP
000000
000000
000000
000000
000000
000000
000000
040200
020400
020400
010800
010800
009000
009000
006000
002000
004000
004000
088000
070000
ENDCHAR
STARTCHAR 07-70
ENCODING 10086
SWIDTH 1010 0
DWIDTH 20 0
BBX 20 20 0 -3
BITMAP
000000
004000
004000
004000
004000
004000
004000
075c00
08e200
104100
104100
104100
104100
104100
08e200
075c00
004000
004000
004000
004000
ENDCHAR
STARTCHAR 07-71
ENCODING 10087
SWIDTH 1010 0
DWIDTH 20 0
BBX 20 20 0 -3
BITMAP
000000
000000
000000
000000
000000
000000
000000
080400
040800
021000
012000
00c000
00c000
012000
021000
040800
080400
000000
000000
000000
ENDCHAR
STARTCHAR 07-72
ENCODING 10088
SWIDTH 1010 0
DWIDTH 20 0
BBX 20 20 0 -3
BITMAP
000000
000000
000000
000000
000000
000000
000000
040400
040400
040400
040400
040400
040400
040400
040400
040400
07ff00
000100
000100
000000
ENDCHAR
STARTCHAR 07-73
ENCODING 10089
SWIDTH 1010 0
DWIDTH 20 0
BBX 20 20 0 -3
BITMAP
000000
000000
000000
000000
000000
000000
000000
040400
040400
040400
040400
040400
040400
041c00
03e400
000400
000400
000000
000000
000000
ENDCHAR
STARTCHAR 07-74
ENCODING 10090
SWIDTH 1010 0
DWIDTH 20 0
BBX 20 20 0 -3
BITMAP
000000
000000
000000
000000
000000
000000
000000
104100
104100
104100
104100
104100
104100
104100
104100
104100
1fffc0
000000
000000
000000
ENDCHAR
STARTCHAR 07-75
ENCODING 10091
SWIDTH 1010 0
DWIDTH 20 0
BBX 20 20 0 -3
BITMAP
000000
000000
000000
000000
000000
000000
000000
104100
104100
104100
104100
104100
104100
104100
104100
104100
1fffc0
000040
000040
000000
ENDCHAR
STARTCHAR 07-76
ENCODING 10092
SWIDTH 1010 0
DWIDTH 20 0
BBX 20 20 0 -3
BITMAP
000000
000000
000000
000000
000000
000000
000000
0f8000
008000
008000
008000
00fe00
008100
008080
008080
008100
00fe00
000000
000000
000000
ENDCHAR
STARTCHAR 07-77
ENCODING 10093
SWIDTH 1010 0
DWIDTH 20 0
BBX 20 20 0 -3
BITMAP
000000
000000
000000
000000
000000
000000
000000
080100
080100
080100
080100
0fc100
082100
081100
081100
082100
0fc100
000000
000000
000000
ENDCHAR
STARTCHAR 07-78
ENCODING 10094
SWIDTH 1010 0
DWIDTH 20 0
BBX 20 20 0 -3
BITMAP
000000
000000
000000
000000
000000
000000
000000
020000
020000
020000
020000
03f800
020400
020200
020200
020400
03f800
000000
000000
000000
ENDCHAR
STARTCHAR 07-79
ENCODING 10095
SWIDTH 1010 0
DWIDTH 20 0
BBX 20 20 0 -3
BITMAP
000000
000000
000000
000000
000000
000000
000000
03f000
040800
000400
000400
00cc00
013400
000400
000400
040800
03f000
000000
000000
000000
ENDCHAR
STARTCHAR 07-80
ENCODING 10096
SWIDTH 1010 0
DWIDTH 20 0
BBX 20 20 0 -3
BITMAP
000000
000000
000000
000000
000000
000000
000000
087c00
088200
088200
090100
0f0100
090100
090100
088200
088200
087c00
000000
000000
000000
ENDCHAR
STARTCHAR 07-81
ENCODING 10097
SWIDTH 1010 0
DWIDTH 20 0
BBX 20 20 0 -3
BITMAP
000000
000000
000000
000000
000000
000000
000000
01fc00
020400
040400
020400
01fc00
004400
008400
010400
020400
0c0400
000000
000000
000000
ENDCHAR
STARTCHAR 08-01
ENCODING 10273
SWIDTH 1010 0
DWIDTH 20 0
BBX 20 20 0 -3
BITMAP
000000
000000
000000
000000
000000
000000
000000
000000
000000
fffff0
000000
000000
000000
000000
000000
000000
000000
000000
000000
000000
ENDCHAR
STARTCHAR 08-02
ENCODING 10274
SWIDTH 1010 0
DWIDTH 20 0
BBX 20 20 0 -3
BITMAP
004000
004000
004000
004000
004000
004000
004000
004000
004000
004000
004000
004000
004000
004000
004000
004000
004000
004000
004000
004000
ENDCHAR
STARTCHAR 08-03
ENCODING 10275
SWIDTH 1010 0
DWIDTH 20 0
BBX 20 20 0 -3
BITMAP
000000
000000
000000
000000
000000
000000
000000
000000
000000
007ff0
004000
004000
004000
004000
004000
004000
004000
004000
004000
004000
ENDCHAR
STARTCHAR 08-04
ENCODING 10276
SWIDTH 1010 0
DWIDTH 20 0
BBX 20 20 0 -3
BITMAP
000000
000000
000000
000000
000000
000000
000000
000000
000000
ffc000
004000
004000
004000
004000
004000
004000
004000
004000
004000
004000
ENDCHAR
STARTCHAR 08-05
ENCODING 10277
SWIDTH 1010 0
DWIDTH 20 0
BBX 20 20 0 -3
BITMAP
004000
004000
004000
004000
004000
004000
004000
004000
004000
ffc000
000000
000000
000000
000000
000000
000000
000000
000000
000000
000000
ENDCHAR
STARTCHAR 08-06
ENCODING 10278
SWIDTH 1010 0
DWIDTH 20 0
BBX 20 20 0 -3
BITMAP
004000
004000
004000
004000
004000
004000
004000
004000
004000
007ff0
000000
000000
000000
000000
000000
000000
000000
000000
000000
000000
ENDCHAR
STARTCHAR 08-07
ENCODING 10279
SWIDTH 1010 0
DWIDTH 20 0
BBX 20 20 0 -3
BITMAP
004000
004000
004000
004000
004000
004000
004000
004000
004000
007ff0
004000
004000
004000
004000
004000
004000
004000
004000
004000
004000
ENDCHAR
STARTCHAR 08-08
ENCODING 10280
SWIDTH 1010 0
DWIDTH 20 0
BBX 20 20 0 -3
BITMAP
000000
000000
000000
000000
000000
000000
000000
000000
000000
fffff0
004000
004000
004000
004000
004000
004000
004000
004000
004000
004000
ENDCHAR
STARTCHAR 08-09
ENCODING 10281
SWIDTH 1010 0
DWIDTH 20 0
BBX 20 20 0 -3
BITMAP
004000
004000
004000
004000
004000
004000
004000
004000
004000
ffc000
004000
004000
004000
004000
004000
004000
004000
004000
004000
004000
ENDCHAR
STARTCHAR 08-10
ENCODING 10282
SWIDTH 1010 0
DWIDTH 20 0
BBX 20 20 0 -3
BITMAP
004000
004000
004000
004000
004000
004000
004000
004000
004000
fffff0
000000
000000
000000
000000
000000
000000
000000
000000
000000
000000
ENDCHAR
STARTCHAR 08-11
ENCODING 10283
SWIDTH 1010 0
DWIDTH 20 0
BBX 20 20 0 -3
BITMAP
004000
004000
004000
004000
004000
004000
004000
004000
004000
fffff0
004000
004000
004000
004000
004000
004000
004000
004000
004000
004000
ENDCHAR
STARTCHAR 08-12
ENCODING 10284
SWIDTH 1010 0
DWIDTH 20 0
BBX 20 20 0 -3
BITMAP
000000
000000
000000
000000
000000
000000
000000
000000
000000
fffff0
fffff0
000000
000000
000000
000000
000000
000000
000000
000000
000000
ENDCHAR
STARTCHAR 08-13
ENCODING 10285
SWIDTH 1010 0
DWIDTH 20 0
BBX 20 20 0 -3
BITMAP
006000
006000
006000
006000
006000
006000
006000
006000
006000
006000
006000
006000
006000
006000
006000
006000
006000
006000
006000
006000
ENDCHAR
STARTCHAR 08-14
ENCODING 10286
SWIDTH 1010 0
DWIDTH 20 0
BBX 20 20 0 -3
BITMAP
000000
000000
000000
000000
000000
000000
000000
000000
000000
007ff0
007ff0
006000
006000
006000
006000
006000
006000
006000
006000
006000
ENDCHAR
STARTCHAR 08-15
ENCODING 10287
SWIDTH 1010 0
DWIDTH 20 0
BBX 20 20 0 -3
BITMAP
000000
000000
000000
000000
000000
000000
000000
000000
000000
ffe000
ffe000
006000
006000
006000
006000
006000
006000
006000
006000
006000
ENDCHAR
STARTCHAR 08-16
ENCODING 10288
SWIDTH 1010 0
DWIDTH 20 0
BBX 20 20 0 -3
BITMAP
006000
006000
006000
006000
006000
006000
006000
006000
006000
ffe000
ffe000
000000
000000
000000
000000
000000
000000
000000
000000
000000
ENDCHAR
STARTCHAR 08-17
ENCODING 10289
SWIDTH 1010 0
DWIDTH 20 0
BBX 20 20 0 -3
BITMAP
006000
006000
006000
006000
006000
006000
006000
006000
006000
007ff0
007ff0
000000
000000
000000
000000
000000
000000
000000
000000
000000
ENDCHAR
STARTCHAR 08-18
ENCODING 10290
SWIDTH 1010 0
DWIDTH 20 0
BBX 20 20 0 -3
BITMAP
006000
006000
006000
006000
006000
006000
006000
006000
006000
007ff0
007ff0
006000
006000
006000
006000
006000
006000
006000
006000
006000
ENDCHAR
STARTCHAR 08-19
ENCODING 10291
SWIDTH 1010 0
DWIDTH 20 0
BBX 20 20 0 -3
BITMAP
000000
000000
000000
000000
000000
000000
000000
000000
000000
fffff0
fffff0
006000
006000
006000
006000
006000
006000
006000
006000
006000
ENDCHAR
STARTCHAR 08-20
ENCODING 10292
SWIDTH 1010 0
DWIDTH 20 0
BBX 20 20 0 -3
BITMAP
006000
006000
006000
006000
006000
006000
006000
006000
006000
ffe000
ffe000
006000
006000
006000
006000
006000
006000
006000
006000
006000
ENDCHAR
STARTCHAR 08-21
ENCODING 10293
SWIDTH 1010 0
DWIDTH 20 0
BBX 20 20 0 -3
BITMAP
006000
006000
006000
006000
006000
006000
006000
006000
006000
fffff0
fffff0
000000
000000
000000
000000
000000
000000
000000
000000
000000
ENDCHAR
STARTCHAR 08-22
ENCODING 10294
SWIDTH 1010 0
DWIDTH 20 0
BBX 20 20 0 -3
BITMAP
006000
006000
006000
006000
006000
006000
006000
006000
006000
fffff0
fffff0
006000
006000
006000
006000
006000
006000
006000
006000
006000
ENDCHAR
STARTCHAR 08-23
ENCODING 10295
SWIDTH 1010 0
DWIDTH 20 0
BBX 20 20 0 -3
BITMAP
006000
006000
006000
006000
006000
006000
006000
006000
006000
007ff0
006000
006000
006000
006000
006000
006000
006000
006000
006000
006000
ENDCHAR
STARTCHAR 08-24
ENCODING 10296
SWIDTH 1010 0
DWIDTH 20 0
BBX 20 20 0 -3
BITMAP
000000
000000
000000
000000
000000
000000
000000
000000
000000
fffff0
fffff0
004000
004000
004000
004000
004000
004000
004000
004000
004000
ENDCHAR
STARTCHAR 08-25
ENCODING 10297
SWIDTH 1010 0
DWIDTH 20 0
BBX 20 20 0 -3
BITMAP
006000
006000
006000
006000
006000
006000
006000
006000
006000
ffe000
006000
006000
006000
006000
006000
006000
006000
006000
006000
006000
ENDCHAR
STARTCHAR 08-26
ENCODING 10298
SWIDTH 1010 0
DWIDTH 20 0
BBX 20 20 0 -3
BITMAP
004000
004000
004000
004000
004000
004000
004000
004000
004000
fffff0
fffff0
000000
000000
000000
000000
000000
000000
000000
000000
000000
ENDCHAR
STARTCHAR 08-27
ENCODING 10299
SWIDTH 1010 0
DWIDTH 20 0
BBX 20 20 0 -3
BITMAP
004000
004000
004000
004000
004000
004000
004000
004000
004000
fffff0
fffff0
004000
004000
004000
004000
004000
004000
004000
004000
004000
ENDCHAR
STARTCHAR 08-28
ENCODING 10300
SWIDTH 1010 0
DWIDTH 20 0
BBX 20 20 0 -3
BITMAP
004000
004000
004000
004000
004000
004000
004000
004000
004000
007ff0
007ff0
004000
004000
004000
004000
004000
004000
004000
004000
004000
ENDCHAR
STARTCHAR 08-29
ENCODING 10301
SWIDTH 1010 0
DWIDTH 20 0
BBX 20 20 0 -3
BITMAP
000000
000000
000000
000000
000000
000000
000000
000000
000000
fffff0
006000
006000
006000
006000
006000
006000
006000
006000
006000
006000
ENDCHAR
STARTCHAR 08-30
ENCODING 10302
SWIDTH 1010 0
DWIDTH 20 0
BBX 20 20 0 -3
BITMAP
004000
004000
004000
004000
004000
004000
004000
004000
004000
ffc000
ffc000
004000
004000
004000
004000
004000
004000
004000
004000
004000
ENDCHAR
STARTCHAR 08-31
ENCODING 10303
SWIDTH 1010 0
DWIDTH 20 0
BBX 20 20 0 -3
BITMAP
006000
006000
006000
006000
006000
006000
006000
006000
006000
fffff0
000000
000000
000000
000000
000000
000000
000000
000000
000000
000000
ENDCHAR
STARTCHAR 08-32
ENCODING 10304
SWIDTH 1010 0
DWIDTH 20 0
BBX 20 20 0 -3
BITMAP
006000
006000
006000
006000
006000
006000
006000
006000
006000
fffff0
006000
006000
006000
006000
006000
006000
006000
006000
006000
006000
ENDCHAR
STARTCHAR 13-01
ENCODING 11553
SWIDTH 1010 0
DWIDTH 20 0
BBX 20 20 0 -3
BITMAP
03f800
0c0600
100100
204080
41c040
404040
804020
804020
804020
804020
804020
804020
804020
404040
404040
204080
100100
0c0600
03f800
000000
ENDCHAR
STARTCHAR 13-02
ENCODING 11554
SWIDTH 1010 0
DWIDTH 20 0
BBX 20 20 0 -3
BITMAP
03f800
0c0600
100100
20e080
411040
420840
820820
800820
801020
801020
802020
804020
808020
410040
420040
23f880
100100
0c0600
03f800
000000
ENDCHAR
STARTCHAR 13-03
ENCODING 11555
SWIDTH 1010 0
DWIDTH 20 0
BBX 20 20 0 -3
BITMAP
03f800
0c0600
100100
20e080
411040
420840
820820
801020
806020
801020
800820
800820
820820
420840
411040
20e080
100100
0c0600
03f800
000000
ENDCHAR
STARTCHAR 13-04
ENCODING 11556
SWIDTH 1010 0
DWIDTH 20 0
BBX 20 20 0 -3
BITMAP
03f800
0c0600
100100
202080
406040
40a040
80a020
812020
822020
822020
842020
8ffc20
802020
402040
402040
202080
100100
0c0600
03f800
000000
ENDCHAR
STARTCHAR 13-05
ENCODING 11557
SWIDTH 1010 0
DWIDTH 20 0
BBX 20 20 0 -3
BITMAP
03f800
0c0600
100100
21f880
410040
410040
810020
820020
83e020
821020
800820
800820
800820
420840
421040
21e080
100100
0c0600
03f800
000000
ENDCHAR
STARTCHAR 13-06
ENCODING 11558
SWIDTH 1010 0
DWIDTH 20 0
BBX 20 20 0 -3
BITMAP
03f800
0c0600
100100
20e080
411040
420840
820020
820020
82e020
831020
820820
820820
820820
420840
411040
20e080
100100
0c0600
03f800
000000
ENDCHAR
STARTCHAR 13-07
ENCODING 11559
SWIDTH 1010 0
DWIDTH 20 0
BBX 20 20 0 -3
BITMAP
03f800
0c0600
100100
23f880
400840
400840
801020
801020
802020
802020
802020
804020
804020
404040
404040
204080
100100
0c0600
03f800
000000
ENDCHAR
STARTCHAR 13-08
ENCODING 11560
SWIDTH 1010 0
DWIDTH 20 0
BBX 20 20 0 -3
BITMAP
03f800
0c0600
100100
20e080
411040
420840
820820
811020
80e020
811020
820820
820820
820820
420840
411040
20e080
100100
0c0600
03f800
000000
ENDCHAR
STARTCHAR 13-09
ENCODING 11561
SWIDTH 1010 0
DWIDTH 20 0
BBX 20 20 0 -3
BITMAP
03f800
0c0600
100100
20e080
411040
420840
820820
820820
820820
811820
80e820
800820
800820
420840
411040
20e080
100100
0c0600
03f800
000000
ENDCHAR
STARTCHAR 13-10
ENCODING 11562
SWIDTH 1010 0
DWIDTH 20 0
BBX 20 20 0 -3
BITMAP
03f800
0c0600
100100
221880
4e2440
422440
824220
824220
824220
824220
824220
824220
824220
422440
422440
221880
100100
0c0600
03f800
000000
ENDCHAR
STARTCHAR 13-11
ENCODING 11563
SWIDTH 1010 0
DWIDTH 20 0
BBX 20 20 0 -3
BITMAP
03f800
0c0600
100100
220880
4e3840
420840
820820
820820
820820
820820
820820
820820
820820
420840
420840
220880
100100
0c0600
03f800
000000
ENDCHAR
STARTCHAR 13-12
ENCODING 11564
SWIDTH 1010 0
DWIDTH 20 0
BBX 20 20 0 -3
BITMAP
03f800
0c0600
100100
223880
4e4440
424440
824420
820420
820820
820820
821020
821020
822020
422040
424040
227c80
100100
0c0600
03f800
000000
ENDCHAR
STARTCHAR 13-13
ENCODING 11565
SWIDTH 1010 0
DWIDTH 20 0
BBX 20 20 0 -3
BITMAP
03f800
0c0600
100100
221880
4e2440
424240
824220
820220
820420
821820
820420
820220
824220
424240
422440
221880
100100
0c0600
03f800
000000
ENDCHAR
STARTCHAR 13-14
ENCODING 11566
SWIDTH 1010 0
DWIDTH 20 0
BBX 20 20 0 -3
BITMAP
03f800
0c0600
100100
220880
4e0840
421840
821820
822820
822820
824820
824820
82fe20
820820
420840
420840
220880
100100
0c0600
03f800
000000
ENDCHAR
STARTCHAR 13-15
ENCODING 11567
SWIDTH 1010 0
DWIDTH 20 0
BBX 20 20 0 -3
BITMAP
03f800
0c0600
100100
227c80
4e4040
424040
824020
824020
827820
824420
820220
820220
820220
424240
424440
223880
100100
0c0600
03f800
000000
ENDCHAR
STARTCHAR 13-16
ENCODING 11568
SWIDTH 1010 0
DWIDTH 20 0
BBX 20 20 0 -3
BITMAP
03f800
0c0600
100100
221880
4e2440
424240
824020
824020
825820
826420
824220
824220
824220
424240
422440
221880
100100
0c0600
03f800
000000
ENDCHAR
STARTCHAR 13-17
ENCODING 11569
SWIDTH 1010 0
DWIDTH 20 0
BBX 20 20 0 -3
BITMAP
03f800
0c0600
100100
227e80
4e0240
420440
820420
820820
820820
820820
820820
821020
821020
421040
421040
221080
100100
0c0600
03f800
000000
ENDCHAR
STARTCHAR 13-18
ENCODING 11570
SWIDTH 1010 0
DWIDTH 20 0
BBX 20 20 0 -3
BITMAP
03f800
0c0600
100100
221880
4e2440
424240
824220
822420
821820
822420
824220
824220
824220
424240
422440
221880
100100
0c0600
03f800
000000
ENDCHAR
STARTCHAR 13-19
ENCODING 11571
SWIDTH 1010 0
DWIDTH 20 0
BBX 20 20 0 -3
BITMAP
03f800
0c0600
100100
221880
4e2440
424240
824220
824220
824220
822620
821a20
820220
820220
424240
424440
223880
100100
0c0600
03f800
000000
ENDCHAR
STARTCHAR 13-20
ENCODING 11572
SWIDTH 1010 0
DWIDTH 20 0
BBX 20 20 0 -3
BITMAP
03f800
0c0600
100100
271c80
48a240
48a240
88a220
812220
812220
822220
822220
842220
842220
482240
482240
2f9c80
100100
0c0600
03f800
000000
ENDCHAR
STARTCHAR 13-21
ENCODING 11573
SWIDTH 1010 0
DWIDTH 20 0
BBX 20 20 0 -3
BITMAP
000000
000000
01f000
004000
004000
004000
004000
004000
004000
004000
004000
004000
004000
004000
004000
004000
01f000
000000
000000
000000
ENDCHAR
STARTCHAR 13-22
ENCODING 11574
SWIDTH 1010 0
DWIDTH 20 0
BBX 20 20 0 -3
BITMAP
000000
000000
07fe00
010800
010800
010800
010800
010800
010800
010800
010800
010800
010800
010800
010800
010800
07fe00
000000
000000
000000
ENDCHAR
STARTCHAR 13-23
ENCODING 11575
SWIDTH 1010 0
DWIDTH 20 0
BBX 20 20 0 -3
BITMAP
000000
000000
1fff00
044400
044400
044400
044400
044400
044400
044400
044400
044400
044400
044400
044400
044400
1fff00
000000
000000
000000
ENDCHAR
STARTCHAR 13-24
ENCODING 11576
SWIDTH 1010 0
DWIDTH 20 0
BBX 20 20 0 -3
BITMAP
000000
000000
1fff80
048200
048200
048200
044400
044400
044400
044400
042800
042800
042800
042800
041000
041000
1f1000
000000
000000
000000
ENDCHAR
STARTCHAR 13-25
ENCODING 11577
SWIDTH 1010 0
DWIDTH 20 0
BBX 20 20 0 -3
BITMAP
000000
000000
1f1f00
040400
040400
040400
020800
020800
020800
011000
011000
011000
00a000
00a000
00a000
004000
004000
000000
000000
000000
ENDCHAR
STARTCHAR 13-26
ENCODING 11578
SWIDTH 1010 0
DWIDTH 20 0
BBX 20 20 0 -3
BITMAP
000000
000000
3fff00
082400
082400
082400
044400
044400
044400
044400
028400
028400
028400
028400
010400
010400
011f00
000000
000000
000000
ENDCHAR
STARTCHAR 13-27
ENCODING 11579
SWIDTH 1010 0
DWIDTH 20 0
BBX 20 20 0 -3
BITMAP
000000
000000
7fffc0
104900
104900
104900
088900
088900
088900
088900
050900
050900
050900
050900
020900
020900
023fc0
000000
000000
000000
ENDCHAR
STARTCHAR 13-28
ENCODING 11580
SWIDTH 1010 0
DWIDTH 20 0
BBX 20 20 0 -3
BITMAP
000000
000000
7fffc0
105500
105500
105500
089500
089500
089500
089500
051500
051500
051500
051500
021500
021500
027fc0
000000
000000
000000
ENDCHAR
STARTCHAR 13-29
ENCODING 11581
SWIDTH 1010 0
DWIDTH 20 0
BBX 20 20 0 -3
BITMAP
000000
000000
3f83c0
090100
088200
084400
084400
082800
082800
081000
082800
082800
084400
084400
088200
090100
3f83c0
000000
000000
000000
ENDCHAR
STARTCHAR 13-30
ENCODING 11582
SWIDTH 1010 0
DWIDTH 20 0
BBX 20 20 0 -3
BITMAP
000000
000000
3e0f80
080200
040400
020800
020800
011000
00a000
004000
00a000
011000
020800
020800
040400
080200
3e0f80
000000
000000
000000
ENDCHAR
STARTCHAR 13-32
ENCODING 11584
SWIDTH 1010 0
DWIDTH 20 0
BBX 20 20 0 -3
BITMAP
000000
7c0000
030000
000000
7c0000
030000
000000
000000
7c0040
039040
001040
001040
001040
001040
001040
000040
000080
000080
000100
000000
ENDCHAR
STARTCHAR 13-33
ENCODING 11585
SWIDTH 1010 0
DWIDTH 20 0
BBX 20 20 0 -3
BITMAP
000000
040000
040000
078000
7c0000
040000
03c000
7e0000
020000
020000
020000
021fc0
001040
001040
001040
001040
001040
001040
001fc0
000000
ENDCHAR
STARTCHAR 13-34
ENCODING 11586
SWIDTH 1010 0
DWIDTH 20 0
BBX 20 20 0 -3
BITMAP
100000
100000
101800
7fc620
108020
130040
100080
100300
0f9c00
000000
078000
3a0000
020000
7fc000
020000
020000
040000
040000
080000
000000
ENDCHAR
STARTCHAR 13-35
ENCODING 11587
SWIDTH 1010 0
DWIDTH 20 0
BBX 20 20 0 -3
BITMAP
008000
008000
110000
0d0000
023f80
050000
088000
108000
600000
000000
081200
081200
081200
0c1200
0a1200
091240
082280
082300
084200
000000
ENDCHAR
STARTCHAR 13-36
ENCODING 11588
SWIDTH 1010 0
DWIDTH 20 0
BBX 20 20 0 -3
BITMAP
08a000
08af80
1f0000
111fc0
210040
420040
020080
040080
080300
300c00
000000
040000
040000
040000
080000
088000
084000
13c000
3c4000
000000
ENDCHAR
STARTCHAR 13-37
ENCODING 11589
SWIDTH 1010 0
DWIDTH 20 0
BBX 20 20 0 -3
BITMAP
000000
080000
080000
080000
080000
0e0000
090000
088000
080000
080000
083000
000840
000040
000080
000080
000100
000200
000c00
003000
000000
ENDCHAR
STARTCHAR 13-38
ENCODING 11590
SWIDTH 1010 0
DWIDTH 20 0
BBX 20 20 0 -3
BITMAP
000000
7fc000
004000
048000
070000
041fc0
040000
080000
300000
000000
090000
090000
090000
090000
090000
112000
114000
218000
410000
000000
ENDCHAR
STARTCHAR 13-39
ENCODING 11591
SWIDTH 1010 0
DWIDTH 20 0
BBX 20 20 0 -3
BITMAP
000400
000400
1807c0
240840
421040
010080
008100
000600
001800
100000
100500
1e0500
220500
32f500
4a0520
860520
040940
080980
301100
000000
ENDCHAR
STARTCHAR 13-40
ENCODING 11592
SWIDTH 1010 0
DWIDTH 20 0
BBX 20 20 0 -3
BITMAP
010000
110000
110000
110000
111480
111480
020080
020100
040e00
000000
101200
101200
101200
101200
1c1200
121240
112280
102300
104200
000000
ENDCHAR
STARTCHAR 13-41
ENCODING 11593
SWIDTH 1010 0
DWIDTH 20 0
BBX 20 20 0 -3
BITMAP
000000
3f8000
208000
208000
209480
009480
010080
020100
0c0e00
000000
080000
080000
080000
080000
0e0000
090000
088000
080000
080000
000000
ENDCHAR
STARTCHAR 13-42
ENCODING 11594
SWIDTH 1010 0
DWIDTH 20 0
BBX 20 20 0 -3
BITMAP
040000
040000
7f9fc0
089040
089040
109040
109040
209040
431fc0
000000
110000
110000
110000
110000
113f80
010000
020000
020000
040000
000000
ENDCHAR
STARTCHAR 13-43
ENCODING 11595
SWIDTH 1010 0
DWIDTH 20 0
BBX 20 20 0 -3
BITMAP
000000
088000
084000
090000
088000
0e0000
090000
088000
080000
080000
081200
001200
001200
001200
001200
002240
002280
004300
008200
000000
ENDCHAR
STARTCHAR 13-44
ENCODING 11596
SWIDTH 1010 0
DWIDTH 20 0
BBX 20 20 0 -3
BITMAP
100000
100000
101800
7fc620
108020
130040
100080
100300
0f9c00
000000
080000
080000
080000
080000
0e0000
090000
088000
080000
080000
000000
ENDCHAR
STARTCHAR 13-45
ENCODING 11597
SWIDTH 1010 0
DWIDTH 20 0
BBX 20 20 0 -3
BITMAP
000000
124000
12a000
114000
110000
111fc0
208000
208000
408000
000000
200100
20c100
2e3500
f20580
240540
200920
200920
201100
1ee100
000000
ENDCHAR
STARTCHAR 13-46
ENCODING 11598
SWIDTH 1010 0
DWIDTH 20 0
BBX 20 20 0 -3
BITMAP
000080
3c1080
031080
001080
3c1080
031080
000100
3c0100
038200
000000
028000
028280
140280
140280
120280
127480
2104a0
2108c0
411080
000000
ENDCHAR
STARTCHAR 13-47
ENCODING 11599
SWIDTH 1010 0
DWIDTH 20 0
BBX 20 20 0 -3
BITMAP
008000
014000
088000
140000
221fc0
410000
008000
006000
000000
000000
30a000
0ca000
600000
184000
004000
008000
010000
060000
380000
000000
ENDCHAR
STARTCHAR 13-48
ENCODING 11600
SWIDTH 1010 0
DWIDTH 20 0
BBX 20 20 0 -3
BITMAP
000000
000000
000000
000000
000000
000000
000000
5b16c0
649920
449120
449120
449120
449120
449120
449120
449120
449120
000000
000000
000000
ENDCHAR
STARTCHAR 13-49
ENCODING 11601
SWIDTH 1010 0
DWIDTH 20 0
BBX 20 20 0 -3
BITMAP
000000
000000
000000
000000
000000
000000
000000
1e2dc0
213220
412220
402220
402220
402220
402220
40a220
212220
1e2220
000000
000000
000000
ENDCHAR
STARTCHAR 13-50
ENCODING 11602
SWIDTH 1010 0
DWIDTH 20 0
BBX 20 20 0 -3
BITMAP
000000
000000
200000
200000
200000
200000
200000
21adc0
223220
242220
282220
342220
222220
222220
212220
20a220
20a220
000000
000000
000000
ENDCHAR
STARTCHAR 13-51
ENCODING 11603
SWIDTH 1010 0
DWIDTH 20 0
BBX 20 20 0 -3
BITMAP
000000
000000
000000
000000
000000
000000
000060
5b0740
648880
449040
449040
449080
448f00
448800
448f80
449040
44a020
002020
002020
001fc0
ENDCHAR
STARTCHAR 13-52
ENCODING 11604
SWIDTH 1010 0
DWIDTH 20 0
BBX 20 20 0 -3
BITMAP
000000
000000
200000
200000
200000
200000
200060
218740
220880
241040
281040
341080
220f00
220800
210f80
209040
20a020
002020
002020
001fc0
ENDCHAR
STARTCHAR 13-53
ENCODING 11605
SWIDTH 1010 0
DWIDTH 20 0
BBX 20 20 0 -3
BITMAP
000000
000000
000000
000000
000000
000000
000000
1e0f00
211080
412080
402000
402000
402000
402000
40a040
211080
1e0f00
000000
000000
000000
ENDCHAR
STARTCHAR 13-54
ENCODING 11606
SWIDTH 1010 0
DWIDTH 20 0
BBX 20 20 0 -3
BITMAP
000000
0000c0
000120
000020
0000c0
000100
0001e0
2f3c00
30c200
208200
208200
208200
208200
208200
208200
208200
208200
000000
000000
000000
ENDCHAR
STARTCHAR 13-63
ENCODING 11615
SWIDTH 1010 0
DWIDTH 20 0
BBX 20 20 0 -3
BITMAP
000280
7f8240
040240
248200
14bfe0
14a200
14a200
152200
052140
043d40
ffe540
042580
042580
042500
042500
042d00
0422a0
0422a0
044460
044020
ENDCHAR
STARTCHAR 13-64
ENCODING 11616
SWIDTH 1010 0
DWIDTH 20 0
BBX 20 20 0 -3
BITMAP
000000
000360
000240
0006c0
000480
000000
000000
000000
000000
000000
000000
000000
000000
000000
000000
000000
000000
000000
000000
000000
ENDCHAR
STARTCHAR 13-65
ENCODING 11617
SWIDTH 1010 0
DWIDTH 20 0
BBX 20 20 0 -3
BITMAP
000000
000000
000000
000000
000000
000000
000000
000000
000000
000000
000000
000000
000000
000000
000000
360000
240000
6c0000
480000
000000
ENDCHAR
STARTCHAR 13-66
ENCODING 11618
SWIDTH 1010 0
DWIDTH 20 0
BBX 20 20 0 -3
BITMAP
000000
000000
408000
408000
608000
608000
508000
508c00
489200
48a100
44a100
44a100
42a100
42a100
41a100
419260
408c60
000000
000000
000000
ENDCHAR
STARTCHAR 13-67
ENCODING 11619
SWIDTH 1010 0
DWIDTH 20 0
BBX 20 20 0 -3
BITMAP
000000
000000
421080
421080
441100
441100
481200
481200
501400
681a00
481200
441100
441100
441100
421080
42d0b0
42d0b0
000000
000000
000000
ENDCHAR
STARTCHAR 13-68
ENCODING 11620
SWIDTH 1010 0
DWIDTH 20 0
BBX 20 20 0 -3
BITMAP
000000
000000
ff8000
080000
080000
080000
080000
08fa00
088200
088200
088200
08f200
088200
088200
088200
088200
08fbe0
000000
000000
000000
ENDCHAR
STARTCHAR 13-69
ENCODING 11621
SWIDTH 1010 0
DWIDTH 20 0
BBX 20 20 0 -3
BITMAP
03f800
0c0600
100100
204080
404040
404040
804020
807e20
804020
804020
804020
804020
804020
5fff40
400040
200080
100100
0c0600
03f800
000000
ENDCHAR
STARTCHAR 13-70
ENCODING 11622
SWIDTH 1010 0
DWIDTH 20 0
BBX 20 20 0 -3
BITMAP
03f800
0c0600
100100
204080
404040
404040
8ffe20
884220
884220
884220
8ffe20
804020
804020
404040
404040
204080
100100
0c0600
03f800
000000
ENDCHAR
STARTCHAR 13-71
ENCODING 11623
SWIDTH 1010 0
DWIDTH 20 0
BBX 20 20 0 -3
BITMAP
03f800
0c0600
100100
200080
400040
5fff40
804020
804020
807020
804820
804420
804020
804020
404040
404040
204080
100100
0c0600
03f800
000000
ENDCHAR
STARTCHAR 13-72
ENCODING 11624
SWIDTH 1010 0
DWIDTH 20 0
BBX 20 20 0 -3
BITMAP
03f800
0c0600
108100
208080
408040
5fff40
808020
810020
810020
83fc20
842020
882020
902020
402040
47ff40
200080
100100
0c0600
03f800
000000
ENDCHAR
STARTCHAR 13-73
ENCODING 11625
SWIDTH 1010 0
DWIDTH 20 0
BBX 20 20 0 -3
BITMAP
03f800
0c0600
108100
208080
408040
5fff40
808020
810020
810020
83fe20
830220
850220
990220
410240
41fe40
200080
100100
0c0600
03f800
000000
ENDCHAR
STARTCHAR 13-74
ENCODING 11626
SWIDTH 1010 0
DWIDTH 20 0
BBX 20 20 0 -3
BITMAP
100100
240880
440840
444840
444840
bf7f20
844820
848820
8e0820
8dffa0
951c20
942a20
a42a20
844920
444940
4488c0
450840
240880
100100
000000
ENDCHAR
STARTCHAR 13-75
ENCODING 11627
SWIDTH 1010 0
DWIDTH 20 0
BBX 20 20 0 -3
BITMAP
100100
208080
408040
5fff40
408040
810020
810020
83fc20
820420
860420
87fc20
8a0420
920420
83fc20
420440
420440
420440
221c80
100100
000000
ENDCHAR
STARTCHAR 13-76
ENCODING 11628
SWIDTH 1010 0
DWIDTH 20 0
BBX 20 20 0 -3
BITMAP
100100
222080
422440
422240
442240
842020
8dff20
8c2020
942020
a42020
841020
841020
841020
841020
440a40
440a40
440640
240280
100100
000000
ENDCHAR
STARTCHAR 13-77
ENCODING 11629
SWIDTH 1010 0
DWIDTH 20 0
BBX 20 20 0 -3
BITMAP
002100
079100
f49100
948100
948200
94a240
979240
f494e0
948f20
948020
948000
9797c0
f49440
849440
049440
04a440
08a440
08a440
10a7c0
23a000
ENDCHAR
STARTCHAR 13-78
ENCODING 11630
SWIDTH 1010 0
DWIDTH 20 0
BBX 20 20 0 -3
BITMAP
040000
043fe0
040200
040200
040200
040200
ffc200
040200
041200
0413c0
041200
0a1200
0a1200
0a1200
121200
111200
211200
209200
40bfe0
804000
ENDCHAR
STARTCHAR 13-79
ENCODING 11631
SWIDTH 1010 0
DWIDTH 20 0
BBX 20 20 0 -3
BITMAP
000200
0fcc00
f27800
924800
9249e0
924920
927f20
944920
f44920
98dd20
901b20
979b20
94a920
94a920
94a920
f4c920
8489e0
048800
078800
000800
ENDCHAR
STARTCHAR 13-80
ENCODING 11632
SWIDTH 1010 0
DWIDTH 20 0
BBX 20 20 0 -3
BITMAP
000000
000000
000000
060000
060000
000000
000000
3fffc0
000000
000000
000000
3fffc0
000000
000000
000600
000600
000000
000000
000000
000000
ENDCHAR
STARTCHAR 13-81
ENCODING 11633
SWIDTH 1010 0
DWIDTH 20 0
BBX 20 20 0 -3
BITMAP
000000
000000
000000
000000
000000
1fff80
000000
000000
000000
1fff80
000000
000000
000000
1fff80
000000
000000
000000
000000
000000
000000
ENDCHAR
STARTCHAR 13-82
ENCODING 11634
SWIDTH 1010 0
DWIDTH 20 0
BBX 20 20 0 -3
BITMAP
007000
008800
010800
010000
010000
008000
008000
008000
004000
004000
002000
002000
001000
001000
001000
000800
000800
010800
011000
00e000
ENDCHAR
STARTCHAR 13-83
ENCODING 11635
SWIDTH 1010 0
DWIDTH 20 0
BBX 20 20 0 -3
BITMAP
007000
008800
010800
010000
010000
008000
008000
00f000
014800
024400
022400
012800
00f000
001000
001000
000800
000800
010800
011000
00e000
ENDCHAR
STARTCHAR 13-84
ENCODING 11636
SWIDTH 1010 0
DWIDTH 20 0
BBX 20 20 0 -3
BITMAP
000000
000000
0fff80
040000
020000
010000
008000
004000
002000
001800
002000
004000
008000
010000
020000
040000
0fff80
000000
000000
000000
ENDCHAR
STARTCHAR 13-85
ENCODING 11637
SWIDTH 1010 0
DWIDTH 20 0
BBX 20 20 0 -3
BITMAP
003ff0
002000
002000
002000
004000
004000
004000
004000
008000
008000
008000
108000
190000
390000
4d0000
0d0000
060000
060000
020000
000000
ENDCHAR
STARTCHAR 13-86
ENCODING 11638
SWIDTH 1010 0
DWIDTH 20 0
BBX 20 20 0 -3
BITMAP
000000
004000
004000
004000
004000
004000
004000
004000
004000
004000
004000
004000
004000
004000
004000
004000
004000
7fffc0
000000
000000
ENDCHAR
STARTCHAR 13-87
ENCODING 11639
SWIDTH 1010 0
DWIDTH 20 0
BBX 20 20 0 -3
BITMAP
000000
000000
000080
000100
000200
000400
000800
001000
002000
004000
008000
010000
020000
040000
080000
100000
200000
7fffc0
000000
000000
ENDCHAR
STARTCHAR 13-88
ENCODING 11640
SWIDTH 1010 0
DWIDTH 20 0
BBX 20 20 0 -3
BITMAP
000000
200000
200000
200000
200000
200000
200000
200000
200000
200000
200000
200000
200000
200000
200000
200000
200000
3fffc0
000000
000000
ENDCHAR
STARTCHAR 13-89
ENCODING 11641
SWIDTH 1010 0
DWIDTH 20 0
BBX 20 20 0 -3
BITMAP
000000
000040
0000c0
000140
000240
000440
000840
001040
002040
004040
008040
010040
020040
040040
080040
100040
200040
7fffc0
000000
000000
ENDCHAR
STARTCHAR 13-90
ENCODING 11642
SWIDTH 1010 0
DWIDTH 20 0
BBX 20 20 0 -3
BITMAP
000000
000000
000000
000000
1c0700
1c0700
1c0700
000000
000000
000000
000000
000000
000000
00e000
00e000
00e000
000000
000000
000000
000000
ENDCHAR
STARTCHAR 13-91
ENCODING 11643
SWIDTH 1010 0
DWIDTH 20 0
BBX 20 20 0 -3
BITMAP
000000
00f000
030c00
040200
080100
080100
100080
100080
100080
100080
100080
100080
100080
100080
100080
100080
100080
100080
000000
000000
ENDCHAR
STARTCHAR 13-92
ENCODING 11644
SWIDTH 1010 0
DWIDTH 20 0
BBX 20 20 0 -3
BITMAP
000000
100080
100080
100080
100080
100080
100080
100080
100080
100080
100080
100080
100080
080100
080100
040200
030c00
00f000
000000
000000
ENDCHAR
STARTCHAR 16-01
ENCODING 12321
SWIDTH 1010 0
DWIDTH 20 0
BBX 20 20 0 -3
BITMAP
000000
7fffc0
021000
021000
021000
021000
3fff00
221100
221100
221100
221100
221100
3fff00
021000
021000
021000
021000
021000
ffffe0
000000
ENDCHAR
STARTCHAR 16-02
ENCODING 12322
SWIDTH 1010 0
DWIDTH 20 0
BBX 20 20 0 -3
BITMAP
000000
01ffe0
001200
7c1200
441200
441200
44ffc0
449240
449240
449240
449240
449240
44ffc0
441200
7c1200
401200
001200
001200
03ffe0
000000
ENDCHAR
STARTCHAR 16-03
ENCODING 12323
SWIDTH 1010 0
DWIDTH 20 0
BBX 20 20 0 -3
BITMAP
100400
100400
100400
107fc0
100400
fe0400
220400
220400
22ffe0
220000
420400
440400
640400
947fc0
0c0400
0a0400
110400
210400
40ffe0
800000
ENDCHAR
STARTCHAR 16-04
ENCODING 12324
SWIDTH 1010 0
DWIDTH 20 0
BBX 20 20 0 -3
BITMAP
000000
000000
fdffe0
880080
880080
900080
90f880
a08880
908880
888880
888880
848880
848880
84f880
848080
880080
b80080
800080
800080
800380
ENDCHAR
STARTCHAR 16-05
ENCODING 12325
SWIDTH 1010 0
DWIDTH 20 0
BBX 20 20 0 -3
BITMAP
004000
004000
004000
7fffe0
000000
000000
0ffe00
080200
080200
080200
080200
0ffe00
012000
0220c0
061100
1a0a00
620400
020200
03f180
3e0060
ENDCHAR
STARTCHAR 16-06
ENCODING 12326
SWIDTH 1010 0
DWIDTH 20 0
BBX 20 20 0 -3
BITMAP
000000
003fc0
3fc200
088200
044400
ffffe0
800020
844120
142080
240480
43fc00
000000
020000
07fe00
1a0400
611800
00e000
01b000
0e0e00
f001e0
ENDCHAR
STARTCHAR 16-07
ENCODING 12327
SWIDTH 1010 0
DWIDTH 20 0
BBX 20 20 0 -3
BITMAP
101000
101000
102100
102080
fc4740
11f840
100000
104000
104000
14ffc0
190800
300800
500800
93ffe0
100800
101400
102200
104100
108080
730060
ENDCHAR
STARTCHAR 16-08
ENCODING 12328
SWIDTH 1010 0
DWIDTH 20 0
BBX 20 20 0 -3
BITMAP
100400
100400
100a00
100a00
101100
fe1100
222080
222080
224040
22bf20
420000
440000
640000
947f80
084080
0c4080
124080
224080
407f80
800000
ENDCHAR
STARTCHAR 16-09
ENCODING 12329
SWIDTH 1010 0
DWIDTH 20 0
BBX 20 20 0 -3
BITMAP
002000
402000
203f00
104100
10c200
032400
001800
003600
f0c180
130860
10ff80
100800
10ff80
100800
100800
13ffc0
100800
280800
470000
80ffe0
ENDCHAR
STARTCHAR 16-10
ENCODING 12330
SWIDTH 1010 0
DWIDTH 20 0
BBX 20 20 0 -3
BITMAP
040400
040400
ffffe0
040400
040400
008000
3fc200
012240
421440
340880
0bf600
308180
c08060
008000
7fff80
012000
021000
040c00
180300
e000e0
ENDCHAR
STARTCHAR 16-11
ENCODING 12331
SWIDTH 1010 0
DWIDTH 20 0
BBX 20 20 0 -3
BITMAP
020800
020800
020800
ffffe0
020800
020800
000000
ffffe0
012000
012000
3fff80
222080
222080
242080
281f80
300080
200080
200080
3fff80
000000
ENDCHAR
STARTCHAR 16-12
ENCODING 12332
SWIDTH 1010 0
DWIDTH 20 0
BBX 20 20 0 -3
BITMAP
062000
183e00
f04400
108800
11ff80
108880
feff80
108880
308880
38ff80
540800
55ffc0
510840
91ffc0
910840
110840
11ffc0
100820
100820
1007e0
ENDCHAR
STARTCHAR 16-13
ENCODING 12333
SWIDTH 1010 0
DWIDTH 20 0
BBX 20 20 0 -3
BITMAP
000000
7fffc0
011000
011000
1fff00
111100
111100
111100
1fff00
011000
011000
011000
ffffe0
000000
124100
122080
222040
420240
810200
00fe00
ENDCHAR
STARTCHAR 16-14
ENCODING 12334
SWIDTH 1010 0
DWIDTH 20 0
BBX 20 20 0 -3
BITMAP
100000
11ffc0
110040
110040
11ffc0
ff0000
110000
117fc0
110800
151100
191080
312340
d17c40
120400
120400
127fc0
120400
140400
15ffe0
700000
ENDCHAR
STARTCHAR 16-15
ENCODING 12335
SWIDTH 1010 0
DWIDTH 20 0
BBX 20 20 0 -3
BITMAP
200000
11ffc0
090040
090040
81ffc0
410000
210000
217fc0
010800
011100
091080
092340
117c40
120400
120400
227fc0
220400
440400
45ffe0
480000
ENDCHAR
STARTCHAR 16-16
ENCODING 12336
SWIDTH 1010 0
DWIDTH 20 0
BBX 20 20 0 -3
BITMAP
080000
080000
083f80
082080
082080
082080
7f2080
093f80
092080
092080
092080
092080
092080
093f80
112000
110000
110020
208020
207fe0
400000
ENDCHAR
STARTCHAR 16-17
ENCODING 12337
SWIDTH 1010 0
DWIDTH 20 0
BBX 20 20 0 -3
BITMAP
040800
040800
ffffe0
040800
050800
010000
3ffe00
020200
ffffe0
000000
1ffe00
100200
1ffe00
002000
3fff80
082000
082000
ffffe0
002000
002000
ENDCHAR
STARTCHAR 16-18
ENCODING 12338
SWIDTH 1010 0
DWIDTH 20 0
BBX 20 20 0 -3
BITMAP
020800
020800
ffffe0
020800
020800
000000
7fffc0
000000
000000
0fff00
080100
080100
080100
0fff00
100000
100000
200000
200000
400000
800000
ENDCHAR
STARTCHAR 16-19
ENCODING 12339
SWIDTH 1010 0
DWIDTH 20 0
BBX 20 20 0 -3
BITMAP
200800
201100
3c2080
444740
49f840
fc0800
540800
55ffe0
541200
7c2100
544080
558460
541800
7c6180
000600
001800
aae060
aa0180
a80e00
81f000
ENDCHAR
STARTCHAR 16-20
ENCODING 12340
SWIDTH 1010 0
DWIDTH 20 0
BBX 20 20 0 -3
BITMAP
100800
100800
100800
11ffc0
fe4100
102100
382200
342200
540400
55ffe0
540800
500800
900800
900800
10ffc0
100800
100800
100800
100800
100800
ENDCHAR
STARTCHAR 16-21
ENCODING 12341
SWIDTH 1010 0
DWIDTH 20 0
BBX 20 20 0 -3
BITMAP
000000
000000
1fffe0
100000
100000
101000
101000
101000
101000
101000
23ff80
201000
201000
201000
201000
401000
401000
401000
9fffe0
000000
ENDCHAR
STARTCHAR 16-22
ENCODING 12342
SWIDTH 1010 0
DWIDTH 20 0
BBX 20 20 0 -3
BITMAP
080400
080400
080a00
ff8900
081080
081040
7f2020
414100
411100
7f0900
410500
414100
7f2100
081100
0801e0
ff8f00
087100
080100
080100
080100
ENDCHAR
STARTCHAR 16-23
ENCODING 12343
SWIDTH 1010 0
DWIDTH 20 0
BBX 20 20 0 -3
BITMAP
100000
13ff00
102100
102100
102200
fe2200
105200
1057c0
105040
125040
144880
184880
304500
d08500
108200
108200
110500
110880
123040
74c020
ENDCHAR
STARTCHAR 16-24
ENCODING 12344
SWIDTH 1010 0
DWIDTH 20 0
BBX 20 20 0 -3
BITMAP
004000
004000
004000
ffffe0
800020
800020
080000
080000
1f3f00
112100
212100
412100
b22100
0a2100
042100
042700
082040
102040
202040
c01fc0
ENDCHAR
STARTCHAR 16-25
ENCODING 12345
SWIDTH 1010 0
DWIDTH 20 0
BBX 20 20 0 -3
BITMAP
080000
083f00
082100
082100
082100
ff2100
112100
113f00
212100
222100
222100
422100
742100
4c3f00
042100
0a2100
112100
212100
402100
80ffe0
ENDCHAR
STARTCHAR 16-26
ENCODING 12346
SWIDTH 1010 0
DWIDTH 20 0
BBX 20 20 0 -3
BITMAP
080800
080800
080800
080800
7f0800
497fe0
492000
492000
492000
492000
7f2000
082000
082000
082000
0a2000
092000
0b2000
1ca000
e09fc0
000000
ENDCHAR
STARTCHAR 16-27
ENCODING 12347
SWIDTH 1010 0
DWIDTH 20 0
BBX 20 20 0 -3
BITMAP
080400
080400
140400
120800
210800
291080
481040
bf2040
2127a0
3f7820
210000
210000
3f3fc0
202040
242040
222040
222040
2d2040
313fc0
c00000
ENDCHAR
STARTCHAR 16-28
ENCODING 12348
SWIDTH 1010 0
DWIDTH 20 0
BBX 20 20 0 -3
BITMAP
041000
041000
081000
092000
313fe0
122020
0a4020
045f20
091120
111120
7e9120
049f20
141120
151120
149120
249f20
248020
440040
040040
040180
ENDCHAR
STARTCHAR 16-29
ENCODING 12349
SWIDTH 1010 0
DWIDTH 20 0
BBX 20 20 0 -3
BITMAP
100800
100800
200800
24ffc0
c40800
480800
29ffe0
101200
241200
422220
fe41e0
129000
501f80
582080
545100
558a00
540400
900a00
103180
11c060
ENDCHAR
STARTCHAR 16-30
ENCODING 12350
SWIDTH 1010 0
DWIDTH 20 0
BBX 20 20 0 -3
BITMAP
100400
100400
3e0400
220400
440400
bf87e0
248400
248400
248400
3f8400
24bf80
24a080
24a080
3fa080
002080
002080
2aa080
2aa080
4abf80
400000
ENDCHAR
STARTCHAR 16-31
ENCODING 12351
SWIDTH 1010 0
DWIDTH 20 0
BBX 20 20 0 -3
BITMAP
001200
001100
001100
001000
ffffe0
001000
001000
001080
3f8880
208900
208900
208a00
3f8400
200400
004c00
019200
062200
384120
c180a0
060060
ENDCHAR
STARTCHAR 16-32
ENCODING 12352
SWIDTH 1010 0
DWIDTH 20 0
BBX 20 20 0 -3
BITMAP
000000
ffffe0
020800
020800
7fffc0
420840
420840
420840
7fffc0
084000
044600
024800
025000
ffffe0
00d000
014800
064600
184180
e04060
004000
ENDCHAR
STARTCHAR 16-33
ENCODING 12353
SWIDTH 1010 0
DWIDTH 20 0
BBX 20 20 0 -3
BITMAP
100400
100400
100a00
100a00
fe1100
021100
042080
042080
094040
12bfa0
3c0000
540000
920000
113f80
112080
102080
102080
102080
103f80
100000
ENDCHAR
STARTCHAR 16-34
ENCODING 12354
SWIDTH 1010 0
DWIDTH 20 0
BBX 20 20 0 -3
BITMAP
004000
004000
004000
ffffe0
800020
820020
020000
020000
020000
ffffe0
040400
040800
080800
081000
1e2000
21e000
009800
030600
0c0100
f00080
ENDCHAR
STARTCHAR 16-35
ENCODING 12355
SWIDTH 1010 0
DWIDTH 20 0
BBX 20 20 0 -3
BITMAP
002000
002000
3fffe0
200000
204000
204000
2fff80
208800
212400
222200
27ff80
3a2260
23fe00
222200
222200
43fe00
402000
402020
802020
001fe0
ENDCHAR
STARTCHAR 16-36
ENCODING 12356
SWIDTH 1010 0
DWIDTH 20 0
BBX 20 20 0 -3
BITMAP
100800
100800
100800
11ffe0
110020
fd1020
101000
101000
101000
15ffe0
182100
302100
d04200
104200
10f400
100c00
101300
102080
10c040
730040
ENDCHAR
STARTCHAR 16-37
ENCODING 12357
SWIDTH 1010 0
DWIDTH 20 0
BBX 20 20 0 -3
BITMAP
000800
000800
7c0800
44ffc0
440100
442100
441100
441200
7c0200
45ffe0
440000
440000
447f80
444080
7c4080
407f80
004080
004080
004080
007f80
ENDCHAR
STARTCHAR 16-38
ENCODING 12358
SWIDTH 1010 0
DWIDTH 20 0
BBX 20 20 0 -3
BITMAP
004000
004000
ffffe0
800020
810020
010000
ffffe0
020400
040800
0f3000
00e000
071c00
f84300
004000
ffffe0
00d000
034c00
1c4300
e040e0
004000
ENDCHAR
STARTCHAR 16-39
ENCODING 12359
SWIDTH 1010 0
DWIDTH 20 0
BBX 20 20 0 -3
BITMAP
000000
7f1fc0
411040
411040
7f1fc0
411040
411040
7f1fc0
404040
404040
47fc40
421040
412040
4ffe40
400040
43f840
420840
43f840
420840
43f8c0
ENDCHAR
STARTCHAR 16-40
ENCODING 12360
SWIDTH 1010 0
DWIDTH 20 0
BBX 20 20 0 -3
BITMAP
220400
220400
220400
ff7fe0
224020
224420
3e0400
080400
080800
7f7fe0
490880
490880
7f1080
081100
082900
ff8600
080500
080880
083040
08c040
ENDCHAR
STARTCHAR 16-41
ENCODING 12361
SWIDTH 1010 0
DWIDTH 20 0
BBX 20 20 0 -3
BITMAP
004000
004000
004000
004000
ffffe0
00e000
015000
024800
0c4600
304180
c04060
004000
000000
0ffe00
080200
080200
080200
080200
080200
0ffe00
ENDCHAR
STARTCHAR 16-42
ENCODING 12362
SWIDTH 1010 0
DWIDTH 20 0
BBX 20 20 0 -3
BITMAP
000000
100100
100100
100100
110100
108100
104100
102100
102200
100200
100200
100200
100600
100500
118880
161080
182040
304040
c18020
060020
ENDCHAR
STARTCHAR 16-43
ENCODING 12363
SWIDTH 1010 0
DWIDTH 20 0
BBX 20 20 0 -3
BITMAP
080000
080000
09ff80
101080
101080
101080
301080
33ffe0
501080
501080
901080
101080
11ff80
101000
101000
102000
102000
104000
108000
130000
ENDCHAR
STARTCHAR 16-44
ENCODING 12364
SWIDTH 1010 0
DWIDTH 20 0
BBX 20 20 0 -3
BITMAP
080800
080800
080800
100800
100800
11ffc0
300000
300100
510100
508100
908100
104200
104200
104200
104200
100400
100400
100400
13ffe0
100000
ENDCHAR
STARTCHAR 16-45
ENCODING 12365
SWIDTH 1010 0
DWIDTH 20 0
BBX 20 20 0 -3
BITMAP
080800
080800
080800
100800
13ffe0
101000
301000
302820
502840
504880
90c500
114600
124400
144200
104200
104100
104100
104c80
107040
138020
ENDCHAR
STARTCHAR 16-46
ENCODING 12366
SWIDTH 1010 0
DWIDTH 20 0
BBX 20 20 0 -3
BITMAP
081000
081000
08ff00
102100
102100
13ffe0
300000
300000
50ff80
508080
908080
10ff80
100400
100400
10ffc0
104400
104400
13ffe0
100400
100400
ENDCHAR
STARTCHAR 16-47
ENCODING 12367
SWIDTH 1010 0
DWIDTH 20 0
BBX 20 20 0 -3
BITMAP
000000
7fffc0
400040
411040
411040
411040
411040
4ffe40
411040
411040
411040
5fff40
421040
421040
441040
481040
501040
400040
7fffc0
000000
ENDCHAR
STARTCHAR 16-48
ENCODING 12368
SWIDTH 1010 0
DWIDTH 20 0
BBX 20 20 0 -3
BITMAP
004000
004000
7fffe0
004000
004000
3fff80
004080
004080
1fff80
104000
204000
3fffc0
204040
00a040
012040
021180
040800
080600
300180
c00060
ENDCHAR
STARTCHAR 16-49
ENCODING 12369
SWIDTH 1010 0
DWIDTH 20 0
BBX 20 20 0 -3
BITMAP
000e00
00f000
1f4000
004000
ffffe0
00e000
015000
024800
0c4600
304180
c10060
010000
ffffe0
020800
041000
0f2000
00e000
019c00
0e0300
f00080
ENDCHAR
STARTCHAR 16-50
ENCODING 12370
SWIDTH 1010 0
DWIDTH 20 0
BBX 20 20 0 -3
BITMAP
000900
000880
000880
000800
3fffe0
200800
200800
2fc840
220440
220480
3fe480
248500
248300
248200
2f0200
410500
428520
4448a0
881060
002020
ENDCHAR
STARTCHAR 16-51
ENCODING 12371
SWIDTH 1010 0
DWIDTH 20 0
BBX 20 20 0 -3
BITMAP
000080
3fe080
202080
202080
202080
3fe080
201fe0
200080
2fc080
200880
200480
3fe280
210280
294080
492080
492080
512080
410080
810080
030380
ENDCHAR
STARTCHAR 16-52
ENCODING 12372
SWIDTH 1010 0
DWIDTH 20 0
BBX 20 20 0 -3
BITMAP
102000
102200
102200
104200
144400
527fe0
52c400
52c400
514400
927fc0
904400
104400
104400
107fc0
104400
104400
104400
104400
107fe0
100000
ENDCHAR
STARTCHAR 16-53
ENCODING 12373
SWIDTH 1010 0
DWIDTH 20 0
BBX 20 20 0 -3
BITMAP
004000
004000
3fff80
040400
020400
020800
ffffe0
000000
0ffe00
080200
0ffe00
080200
080200
0ffe00
004000
242100
242080
440440
840440
03fc00
ENDCHAR
STARTCHAR 16-54
ENCODING 12374
SWIDTH 1010 0
DWIDTH 20 0
BBX 20 20 0 -3
BITMAP
000080
3fc080
204080
3fc080
201fe0
200080
2fc880
200480
5fe480
410480
494080
912080
210080
030380
004000
242100
241080
440040
840200
03fe00
ENDCHAR
STARTCHAR 16-55
ENCODING 12375
SWIDTH 1010 0
DWIDTH 20 0
BBX 20 20 0 -3
BITMAP
000000
0ffe00
080200
080200
0ffe00
080200
080200
080200
0ffe00
010000
020000
07ffc0
084440
308440
c10840
021040
0c2080
304080
018100
000600
ENDCHAR
STARTCHAR 16-56
ENCODING 12376
SWIDTH 1010 0
DWIDTH 20 0
BBX 20 20 0 -3
BITMAP
100800
100800
100800
11ffc0
101800
fe2600
104100
318080
380000
55ffe0
540080
540080
50f880
908880
908880
10f880
108080
100080
100080
100380
ENDCHAR
STARTCHAR 16-57
ENCODING 12377
SWIDTH 1010 0
DWIDTH 20 0
BBX 20 20 0 -3
BITMAP
042000
022000
022000
002000
1ffe00
004200
004200
008200
00ff80
010080
020080
040080
0fffe0
100020
612420
089220
089220
109040
200040
000180
ENDCHAR
STARTCHAR 16-58
ENCODING 12378
SWIDTH 1010 0
DWIDTH 20 0
BBX 20 20 0 -3
BITMAP
000000
1fff00
104100
104100
1fff00
104100
104100
104100
1fff00
000000
000000
ffffe0
084000
0820c0
082300
081400
080800
09c400
0e0300
7000e0
ENDCHAR
STARTCHAR 16-59
ENCODING 12379
SWIDTH 1010 0
DWIDTH 20 0
BBX 20 20 0 -3
BITMAP
000000
1fff00
104100
104100
1fff00
104100
104100
1fff00
000000
020800
020800
7fffc0
020800
020800
ffffe0
010000
021800
040600
180100
600080
ENDCHAR
STARTCHAR 16-60
ENCODING 12380
SWIDTH 1010 0
DWIDTH 20 0
BBX 20 20 0 -3
BITMAP
030800
0c0fc0
780840
081080
082880
084500
7f0200
080400
180a00
1c33e0
2ac420
290420
290840
281440
486280
480100
080200
080400
081800
08e000
ENDCHAR
STARTCHAR 16-61
ENCODING 12381
SWIDTH 1010 0
DWIDTH 20 0
BBX 20 20 0 -3
BITMAP
081100
081100
101200
122200
622400
243fe0
146200
086200
12a200
223fc0
fd2200
092200
282200
2a3fc0
292200
492200
492200
882200
083fe0
080000
ENDCHAR
STARTCHAR 16-62
ENCODING 12382
SWIDTH 1010 0
DWIDTH 20 0
BBX 20 20 0 -3
BITMAP
080800
080800
107f00
121100
621100
24ffe0
140000
080000
123f80
222080
fd2080
093f80
280400
2a0400
297fc0
492400
482400
88ffe0
080400
080400
ENDCHAR
STARTCHAR 16-63
ENCODING 12383
SWIDTH 1010 0
DWIDTH 20 0
BBX 20 20 0 -3
BITMAP
000000
3fff80
204080
204080
3fff80
204080
204080
3fff80
000000
0ffe00
080200
080200
0ffe00
080200
080200
0ffe00
080200
080200
080200
080e00
ENDCHAR
STARTCHAR 16-64
ENCODING 12384
SWIDTH 1010 0
DWIDTH 20 0
BBX 20 20 0 -3
BITMAP
040400
040400
ffffe0
040400
000000
007e00
1fc000
004000
ffffe0
015000
064c00
184300
e080e0
010000
ffffe0
040400
0f0800
00f000
038e00
7c0180
ENDCHAR
STARTCHAR 16-65
ENCODING 12385
SWIDTH 1010 0
DWIDTH 20 0
BBX 20 20 0 -3
BITMAP
004000
004000
004000
004000
ffffe0
00a000
012000
022000
0420c0
0c1100
341200
c41400
040800
040800
040400
040400
040200
04e100
0f0080
700060
ENDCHAR
STARTCHAR 16-66
ENCODING 12386
SWIDTH 1010 0
DWIDTH 20 0
BBX 20 20 0 -3
BITMAP
000000
3cffe0
008420
00ffe0
7e8420
008420
00ffe0
7e0000
000000
007fc0
7e4040
004040
007fc0
7e4040
424040
427fc0
424040
7e4040
404040
0041c0
ENDCHAR
STARTCHAR 16-67
ENCODING 12387
SWIDTH 1010 0
DWIDTH 20 0
BBX 20 20 0 -3
BITMAP
002000
402000
21ff00
104100
104100
03ffe0
000000
00ff80
f08080
108080
10ff80
100400
100400
10ffc0
108400
108400
13ffe0
280400
460400
81ffe0
ENDCHAR
STARTCHAR 16-68
ENCODING 12388
SWIDTH 1010 0
DWIDTH 20 0
BBX 20 20 0 -3
BITMAP
001000
401000
21ff80
111080
11ff80
001000
07ffe0
000000
f1ff80
110080
11ff80
110080
11ff80
110080
11ff80
102200
104100
2980c0
460000
81ffe0
ENDCHAR
STARTCHAR 16-69
ENCODING 12389
SWIDTH 1010 0
DWIDTH 20 0
BBX 20 20 0 -3
BITMAP
000000
7fffe0
400000
420000
420000
47ff00
442000
482000
402000
4fff80
402000
405000
404800
408400
410200
420100
4c0100
400000
7fffe0
000000
ENDCHAR
STARTCHAR 16-70
ENCODING 12390
SWIDTH 1010 0
DWIDTH 20 0
BBX 20 20 0 -3
BITMAP
020800
020800
020800
020800
020800
7fffc0
020800
020800
020800
020800
020800
020800
ffffe0
040800
040800
040800
080800
080800
100800
200800
ENDCHAR
STARTCHAR 16-71
ENCODING 12391
SWIDTH 1010 0
DWIDTH 20 0
BBX 20 20 0 -3
BITMAP
004000
004000
004000
004000
ffffe0
004000
008000
010800
0a0800
041100
022100
014200
018400
020800
0c1000
702c00
00c200
030100
0c0080
700040
ENDCHAR
STARTCHAR 16-72
ENCODING 12392
SWIDTH 1010 0
DWIDTH 20 0
BBX 20 20 0 -3
BITMAP
200480
200440
200440
200400
23ffe0
200400
fc0400
200440
23e440
222440
222480
222480
23e500
280300
301200
606500
818900
0610a0
002060
00c020
ENDCHAR
STARTCHAR 16-73
ENCODING 12393
SWIDTH 1010 0
DWIDTH 20 0
BBX 20 20 0 -3
BITMAP
004000
004000
ffffe0
010400
060200
087d00
3f8080
000080
000000
0ffe00
080200
080200
0ffe00
080200
080200
0ffe00
080200
080200
080200
080e00
ENDCHAR
STARTCHAR 16-74
ENCODING 12394
SWIDTH 1010 0
DWIDTH 20 0
BBX 20 20 0 -3
BITMAP
080000
080fe0
080840
ffe880
100880
100900
1f8a00
308900
308880
308840
5f8840
508820
908820
108820
1f8820
108840
1089c0
108800
108800
118800
ENDCHAR
STARTCHAR 16-75
ENCODING 12395
SWIDTH 1010 0
DWIDTH 20 0
BBX 20 20 0 -3
BITMAP
004880
7e4880
108900
112a40
114a80
208900
214a40
23efe0
7c2820
640900
640880
a5ffe0
250840
258480
3d4500
212200
022600
020920
0230a0
04c060
ENDCHAR
STARTCHAR 16-76
ENCODING 12396
SWIDTH 1010 0
DWIDTH 20 0
BBX 20 20 0 -3
BITMAP
000000
000000
000000
000000
000000
000000
000000
000000
000000
ffffe0
000000
000000
000000
000000
000000
000000
000000
000000
000000
000000
ENDCHAR
STARTCHAR 16-77
ENCODING 12397
SWIDTH 1010 0
DWIDTH 20 0
BBX 20 20 0 -3
BITMAP
004000
004000
004000
ffffe0
004000
004000
3fff80
000000
000000
ffffe0
800020
880020
080600
081800
08e000
0f0000
080000
080080
080080
07ff80
ENDCHAR
STARTCHAR 16-78
ENCODING 12398
SWIDTH 1010 0
DWIDTH 20 0
BBX 20 20 0 -3
BITMAP
208080
104100
084200
080400
83ffe0
404200
204200
208100
208100
010080
020040
140020
11ff80
112480
212480
212480
212480
412480
47ffe0
400000
ENDCHAR
STARTCHAR 16-79
ENCODING 12399
SWIDTH 1010 0
DWIDTH 20 0
BBX 20 20 0 -3
BITMAP
004000
404000
20fe00
108200
110400
020800
05ff80
011080
f11080
111080
11ff80
102400
102400
104400
104400
108440
130440
2803c0
470000
80ffe0
ENDCHAR
STARTCHAR 16-80
ENCODING 12400
SWIDTH 1010 0
DWIDTH 20 0
BBX 20 20 0 -3
BITMAP
060000
1800e0
f01f00
13e040
111040
108840
fe4480
104480
300100
388000
549fc0
529040
529040
509040
909fc0
909040
109040
109040
109fc0
108000
ENDCHAR
STARTCHAR 16-81
ENCODING 12401
SWIDTH 1010 0
DWIDTH 20 0
BBX 20 20 0 -3
BITMAP
040400
040400
ffffe0
040400
040400
004000
004000
604000
10ffc0
089040
011080
021100
001000
002800
022800
0c4400
104200
608100
010080
060060
ENDCHAR
STARTCHAR 16-82
ENCODING 12402
SWIDTH 1010 0
DWIDTH 20 0
BBX 20 20 0 -3
BITMAP
020800
020800
020800
ffffe0
020800
020800
000000
3fff80
004000
004000
004000
004000
ffffe0
004000
004000
004000
004000
004000
004000
01c000
ENDCHAR
STARTCHAR 16-83
ENCODING 12403
SWIDTH 1010 0
DWIDTH 20 0
BBX 20 20 0 -3
BITMAP
200000
20fbe0
3c0820
440820
480820
befbe0
2a8200
2a8200
2afbe0
3e0820
2a0820
2a4920
2a28a0
3e0820
0028a0
004920
aa8a20
aa0820
aa0820
8038e0
ENDCHAR
STARTCHAR 16-84
ENCODING 12404
SWIDTH 1010 0
DWIDTH 20 0
BBX 20 20 0 -3
BITMAP
010000
010000
020400
040200
040100
080080
103f80
7fd040
021040
021000
021000
021000
021000
021000
041000
041000
081000
081020
101020
600fe0
ENDCHAR
STARTCHAR 16-85
ENCODING 12405
SWIDTH 1010 0
DWIDTH 20 0
BBX 20 20 0 -3
BITMAP
000000
00c000
070000
381fc0
201040
201040
201040
201040
201040
3f9040
201040
201040
201040
201040
201040
3f9040
2011c0
201000
001000
001000
ENDCHAR
STARTCHAR 16-86
ENCODING 12406
SWIDTH 1010 0
DWIDTH 20 0
BBX 20 20 0 -3
BITMAP
000000
00ffe0
008020
7c8420
448420
448420
448420
44bfa0
448420
448420
448420
448a20
448920
7c9120
4090a0
00a0a0
008020
008020
00ffe0
000000
ENDCHAR
STARTCHAR 16-87
ENCODING 12407
SWIDTH 1010 0
DWIDTH 20 0
BBX 20 20 0 -3
BITMAP
000000
0ffe00
080200
080200
0ffe00
000000
000000
1fff00
100100
1fff00
100100
100100
1fff00
100100
100100
1fff00
010000
061c00
180300
e000c0
ENDCHAR
STARTCHAR 16-88
ENCODING 12408
SWIDTH 1010 0
DWIDTH 20 0
BBX 20 20 0 -3
BITMAP
000000
7fffc0
400040
404040
404040
404040
404040
5fff40
404040
404040
40a040
40a040
411040
410840
420440
440240
580140
400040
7fffc0
000000
ENDCHAR
STARTCHAR 16-89
ENCODING 12409
SWIDTH 1010 0
DWIDTH 20 0
BBX 20 20 0 -3
BITMAP
080000
087fe0
084020
084420
084420
7e4420
124420
125fa0
124420
124420
124420
244a20
344920
4c4920
0650a0
0950a0
0960a0
104020
207fe0
400000
ENDCHAR
STARTCHAR 16-90
ENCODING 12410
SWIDTH 1010 0
DWIDTH 20 0
BBX 20 20 0 -3
BITMAP
000080
3fe080
002080
002080
002080
002080
1fe080
100080
100080
100080
200080
3fe080
202080
002080
002080
002080
004080
004080
008080
0f0080
ENDCHAR
STARTCHAR 16-91
ENCODING 12411
SWIDTH 1010 0
DWIDTH 20 0
BBX 20 20 0 -3
BITMAP
081000
081000
141000
121000
213fe0
292420
484440
bf4440
218400
3f0400
210400
210a00
3f0a00
200a00
240900
221100
221080
2d2080
312040
c04020
ENDCHAR
STARTCHAR 16-92
ENCODING 12412
SWIDTH 1010 0
DWIDTH 20 0
BBX 20 20 0 -3
BITMAP
2000c0
100700
09f800
080040
811040
408880
204900
204800
200380
00fc00
080800
080800
100800
13ffe0
100800
200800
200800
400800
41ffc0
400000
ENDCHAR
STARTCHAR 16-93
ENCODING 12413
SWIDTH 1010 0
DWIDTH 20 0
BBX 20 20 0 -3
BITMAP
104100
104100
108100
111100
122100
114100
109100
110900
17f500
100500
100100
13f900
120900
23f900
220900
23f900
220900
420920
420920
8218e0
ENDCHAR
STARTCHAR 16-94
ENCODING 12414
SWIDTH 1010 0
DWIDTH 20 0
BBX 20 20 0 -3
BITMAP
020800
020800
ffffe0
020800
000000
7c0c00
441200
482100
485e80
518060
483f00
480200
440400
44ffc0
440000
45ffe0
581000
402080
404f40
41f020
ENDCHAR
STARTCHAR 17-01
ENCODING 12577
SWIDTH 1010 0
DWIDTH 20 0
BBX 20 20 0 -3
BITMAP
000800
f80800
880800
8bffe0
920020
920020
a00000
90ff80
900000
880000
880000
8bffe0
882200
882200
882200
b04200
804200
808220
810220
8601e0
ENDCHAR
STARTCHAR 17-02
ENCODING 12578
SWIDTH 1010 0
DWIDTH 20 0
BBX 20 20 0 -3
BITMAP
000800
7c0800
441400
442200
484100
488080
537f60
480000
487f00
440100
440200
440400
44ff80
440000
45ffe0
581000
401100
402080
404f40
41f040
ENDCHAR
STARTCHAR 17-03
ENCODING 12579
SWIDTH 1010 0
DWIDTH 20 0
BBX 20 20 0 -3
BITMAP
000000
7c07c0
45f880
449080
484900
484a00
500000
48ff80
480080
44ff80
440080
440080
44ff80
440000
445080
594840
414820
424120
444100
403f00
ENDCHAR
STARTCHAR 17-04
ENCODING 12580
SWIDTH 1010 0
DWIDTH 20 0
BBX 20 20 0 -3
BITMAP
080000
083fc0
082040
ffa040
423fc0
420000
240000
243fc0
ffa040
003fc0
002040
7e2040
423fc0
422040
7e2040
423fc0
420800
420980
7e1040
006020
ENDCHAR
STARTCHAR 17-05
ENCODING 12581
SWIDTH 1010 0
DWIDTH 20 0
BBX 20 20 0 -3
BITMAP
000200
000200
7c0200
440200
440200
440200
45ffe0
440200
440200
444200
442200
441200
441200
440200
7c0200
400200
000200
000200
000200
000e00
ENDCHAR
STARTCHAR 17-06
ENCODING 12582
SWIDTH 1010 0
DWIDTH 20 0
BBX 20 20 0 -3
BITMAP
008000
008000
008000
008000
010000
ffffe0
020000
020000
040000
040000
080000
17ff00
240100
c40100
040100
040100
040100
040100
07ff00
000000
ENDCHAR
STARTCHAR 17-07
ENCODING 12583
SWIDTH 1010 0
DWIDTH 20 0
BBX 20 20 0 -3
BITMAP
004000
004000
004000
ffffe0
800020
800020
800020
0ffe00
004000
004000
004000
004000
7fffc0
004000
004000
004000
004000
004000
004000
01c000
ENDCHAR
STARTCHAR 17-08
ENCODING 12584
SWIDTH 1010 0
DWIDTH 20 0
BBX 20 20 0 -3
BITMAP
004000
004000
008000
0ffe00
080200
080200
080200
0ffe00
080000
080000
0fffe0
080000
080000
0fffe0
000020
122220
111120
211140
410040
000180
ENDCHAR
STARTCHAR 17-09
ENCODING 12585
SWIDTH 1010 0
DWIDTH 20 0
BBX 20 20 0 -3
BITMAP
000000
7f9fe0
008020
008020
008020
208820
108420
088220
088220
008020
018060
0280a0
048120
088220
108420
609820
008020
008020
008020
0380e0
ENDCHAR
STARTCHAR 17-10
ENCODING 12586
SWIDTH 1010 0
DWIDTH 20 0
BBX 20 20 0 -3
BITMAP
000000
400000
21ffc0
100800
100800
000800
000800
000800
f3ffe0
100800
100800
100800
100800
100800
100800
100800
103800
280000
470000
80ffe0
ENDCHAR
STARTCHAR 17-11
ENCODING 12587
SWIDTH 1010 0
DWIDTH 20 0
BBX 20 20 0 -3
BITMAP
000000
ffffe0
004000
004000
004000
7fffc0
404040
484840
444440
424240
424240
404040
484840
444440
424240
424240
404040
404040
404040
4041c0
ENDCHAR
STARTCHAR 17-12
ENCODING 12588
SWIDTH 1010 0
DWIDTH 20 0
BBX 20 20 0 -3
BITMAP
008000
010000
060000
381fc0
211040
211040
211040
211040
211040
211040
211040
211040
2f1040
711040
021040
0211c0
041000
081000
101000
601000
ENDCHAR
STARTCHAR 17-13
ENCODING 12589
SWIDTH 1010 0
DWIDTH 20 0
BBX 20 20 0 -3
BITMAP
410200
220400
240800
083f80
ff2080
093f80
092080
7f3f80
482000
882000
ff3fe0
092000
192000
293fc0
290040
4b5540
485540
885040
088080
080300
ENDCHAR
STARTCHAR 17-14
ENCODING 12590
SWIDTH 1010 0
DWIDTH 20 0
BBX 20 20 0 -3
BITMAP
004000
004000
ffffe0
821020
8410a0
181080
e00f80
080000
083f80
082080
7f3f80
082080
083f80
ffa080
082080
183f80
140a00
221200
422220
80c1e0
ENDCHAR
STARTCHAR 17-15
ENCODING 12591
SWIDTH 1010 0
DWIDTH 20 0
BBX 20 20 0 -3
BITMAP
000000
000000
7ffc00
010400
010400
010400
010400
020400
020400
ffffe0
020400
020400
020400
040400
040400
040400
040400
040400
ffffe0
000000
ENDCHAR
STARTCHAR 17-16
ENCODING 12592
SWIDTH 1010 0
DWIDTH 20 0
BBX 20 20 0 -3
BITMAP
002000
002200
fe2200
104200
104400
107fe0
10c400
3cc400
254400
267fc0
644400
644400
a44400
247fc0
244400
3c4400
204400
004400
007fe0
000000
ENDCHAR
STARTCHAR 17-17
ENCODING 12593
SWIDTH 1010 0
DWIDTH 20 0
BBX 20 20 0 -3
BITMAP
008000
010000
060000
381f80
200080
200080
200080
200080
200080
200080
3f1f80
200080
200080
200080
200080
200080
200080
200080
3fff80
000000
ENDCHAR
STARTCHAR 17-18
ENCODING 12594
SWIDTH 1010 0
DWIDTH 20 0
BBX 20 20 0 -3
BITMAP
200000
107f00
084100
084100
004f00
804900
404900
204900
21ffc0
010040
090040
093e40
112240
112240
112240
213e40
212040
410040
410040
4101c0
ENDCHAR
STARTCHAR 17-19
ENCODING 12595
SWIDTH 1010 0
DWIDTH 20 0
BBX 20 20 0 -3
BITMAP
000800
000800
f80f80
880800
89ffe0
892020
892040
893f00
89e000
892040
891fc0
890000
fa1200
829220
025240
045280
045300
081200
11ffe0
000000
ENDCHAR
STARTCHAR 17-20
ENCODING 12596
SWIDTH 1010 0
DWIDTH 20 0
BBX 20 20 0 -3
BITMAP
000000
00ff80
f88080
888080
888080
88ff80
888080
888080
888080
88ff80
888080
888080
888080
f88080
80ff80
000000
002300
004080
018040
060020
ENDCHAR
STARTCHAR 17-21
ENCODING 12597
SWIDTH 1010 0
DWIDTH 20 0
BBX 20 20 0 -3
BITMAP
109100
fc67e0
319180
580340
949520
106100
009000
7fffc0
420840
7fffc0
000000
3f8080
208080
3fbfe0
208080
3f9080
220880
210880
3e8080
608180
ENDCHAR
STARTCHAR 17-22
ENCODING 12598
SWIDTH 1010 0
DWIDTH 20 0
BBX 20 20 0 -3
BITMAP
020800
020800
ffffe0
020800
020800
000100
3fc100
204100
205fe0
3fc100
200100
2fd100
200900
3fe500
220500
4a8100
4a4100
522100
a22100
060300
ENDCHAR
STARTCHAR 17-23
ENCODING 12599
SWIDTH 1010 0
DWIDTH 20 0
BBX 20 20 0 -3
BITMAP
200000
207f80
3c4080
247f80
484080
7e7f80
d20000
52ffc0
529240
7e9240
52ffc0
520000
520000
7effc0
002040
001080
aa0900
aa0600
aa3980
81c060
ENDCHAR
STARTCHAR 17-24
ENCODING 12600
SWIDTH 1010 0
DWIDTH 20 0
BBX 20 20 0 -3
BITMAP
100800
100820
100820
107fc0
100880
fe0900
220a00
220c00
22ffe0
220800
441000
442040
446180
e9a600
983800
082000
142000
122020
222020
c01fe0
ENDCHAR
STARTCHAR 17-25
ENCODING 12601
SWIDTH 1010 0
DWIDTH 20 0
BBX 20 20 0 -3
BITMAP
000000
3fffe0
200000
200000
27cfc0
244900
244900
27c900
244900
244900
27dfe0
240200
240200
250300
448500
448500
454900
464920
981120
0060e0
ENDCHAR
STARTCHAR 17-26
ENCODING 12602
SWIDTH 1010 0
DWIDTH 20 0
BBX 20 20 0 -3
BITMAP
200900
100880
080880
080800
03ffe0
800800
400800
21ffc0
210840
010840
09ffc0
090840
110840
110840
11ffc0
210840
210840
410840
410840
4108c0
ENDCHAR
STARTCHAR 17-27
ENCODING 12603
SWIDTH 1010 0
DWIDTH 20 0
BBX 20 20 0 -3
BITMAP
000600
001800
00e000
0f0400
084400
084400
084400
084400
084200
084200
084200
104200
104100
104900
104500
204480
205a80
41e240
4e0040
800020
ENDCHAR
STARTCHAR 17-28
ENCODING 12604
SWIDTH 1010 0
DWIDTH 20 0
BBX 20 20 0 -3
BITMAP
000000
7f1fc0
411040
411040
7f1fc0
411040
411040
7f1fc0
400040
400040
47fc40
404040
404040
43f840
404040
404040
4ffe40
400040
400040
4000c0
ENDCHAR
STARTCHAR 17-29
ENCODING 12605
SWIDTH 1010 0
DWIDTH 20 0
BBX 20 20 0 -3
BITMAP
008100
004200
f82400
8bffe0
882400
882400
89ff80
892480
89c780
890080
89ff80
890080
89ff80
f80200
800200
03ffe0
008200
004200
004200
000e00
ENDCHAR
STARTCHAR 17-30
ENCODING 12606
SWIDTH 1010 0
DWIDTH 20 0
BBX 20 20 0 -3
BITMAP
000000
000000
1fff00
000000
000000
000000
000000
000000
ffffe0
008000
010000
010000
020000
020400
040200
040100
080e80
09f080
7e0040
000040
ENDCHAR
STARTCHAR 17-31
ENCODING 12607
SWIDTH 1010 0
DWIDTH 20 0
BBX 20 20 0 -3
BITMAP
000000
400000
23ffe0
120020
120820
000800
01ffc0
000800
f0ff80
108880
10ff80
108880
10ff80
100800
100800
13ffe0
100800
280800
470000
80ffe0
ENDCHAR
STARTCHAR 17-32
ENCODING 12608
SWIDTH 1010 0
DWIDTH 20 0
BBX 20 20 0 -3
BITMAP
000000
3fff80
004000
ffffe0
804020
9e4f20
004000
1e4f00
004000
000000
3fff80
000000
000000
ffffe0
020000
040400
040200
087d00
3f8080
000080
ENDCHAR
STARTCHAR 17-33
ENCODING 12609
SWIDTH 1010 0
DWIDTH 20 0
BBX 20 20 0 -3
BITMAP
020800
020800
ffffe0
020800
020800
080180
080e00
11f800
100800
300800
300800
500800
53ffe0
900800
100800
100800
100800
100800
11ffc0
100000
ENDCHAR
STARTCHAR 17-34
ENCODING 12610
SWIDTH 1010 0
DWIDTH 20 0
BBX 20 20 0 -3
BITMAP
080000
087fe0
141080
121080
211080
291f80
481080
481080
bf1080
211f80
3f1080
211080
211080
3f10e0
201780
221880
216080
268080
388080
c08080
ENDCHAR
STARTCHAR 17-35
ENCODING 12611
SWIDTH 1010 0
DWIDTH 20 0
BBX 20 20 0 -3
BITMAP
080000
0f0000
083fc0
ffd040
805040
bf5080
000880
220880
490900
888500
160500
210200
408200
bf4500
210500
3f0900
210880
3f1080
212040
3f4020
ENDCHAR
STARTCHAR 17-36
ENCODING 12612
SWIDTH 1010 0
DWIDTH 20 0
BBX 20 20 0 -3
BITMAP
110100
088200
044400
044800
ffffe0
800020
800020
0ffc00
080400
080400
0ffc00
008000
010000
3fff00
200100
200100
200100
200100
3fff00
000000
ENDCHAR
STARTCHAR 17-37
ENCODING 12613
SWIDTH 1010 0
DWIDTH 20 0
BBX 20 20 0 -3
BITMAP
000000
7f1fc0
411040
7f1fc0
411040
7f1fc0
411040
7f1fc0
140500
220880
421040
80a040
010000
ffffe0
020400
040800
0fd000
003c00
03c300
7c00c0
ENDCHAR
STARTCHAR 17-38
ENCODING 12614
SWIDTH 1010 0
DWIDTH 20 0
BBX 20 20 0 -3
BITMAP
000040
1fc040
104080
1fc100
104200
1fcc00
020020
020020
7ff040
000080
1fc100
104200
104c20
1fc020
020040
128040
124080
224100
424600
061800
ENDCHAR
STARTCHAR 17-39
ENCODING 12615
SWIDTH 1010 0
DWIDTH 20 0
BBX 20 20 0 -3
BITMAP
000800
000800
000800
f80800
88ff80
888880
888880
888880
888880
f88880
888880
8bffe0
881400
881400
882200
f82200
004100
008080
010040
060020
ENDCHAR
STARTCHAR 17-40
ENCODING 12616
SWIDTH 1010 0
DWIDTH 20 0
BBX 20 20 0 -3
BITMAP
004000
004000
004000
3fff80
204080
204080
3fff80
204080
204080
204080
3fff80
204000
002100
002200
001400
000800
003400
00c220
0701a0
f80060
ENDCHAR
STARTCHAR 17-41
ENCODING 12617
SWIDTH 1010 0
DWIDTH 20 0
BBX 20 20 0 -3
BITMAP
108100
084100
044200
044400
000800
ffffe0
800020
804020
004000
004000
ffffe0
00e000
015000
014800
024400
044200
084100
304080
c04060
004000
ENDCHAR
STARTCHAR 17-42
ENCODING 12618
SWIDTH 1010 0
DWIDTH 20 0
BBX 20 20 0 -3
BITMAP
030000
00c000
003000
000000
000000
1fc000
004040
004080
004100
7f6200
016c00
025000
024800
044400
044200
084100
104080
204060
c04000
01c000
ENDCHAR
STARTCHAR 17-43
ENCODING 12619
SWIDTH 1010 0
DWIDTH 20 0
BBX 20 20 0 -3
BITMAP
207000
100c00
080200
080000
000000
81f800
400840
200840
200c80
03ec80
082d00
082a00
104a00
104a00
108900
208900
210880
420840
440820
401800
ENDCHAR
STARTCHAR 17-44
ENCODING 12620
SWIDTH 1010 0
DWIDTH 20 0
BBX 20 20 0 -3
BITMAP
200800
100800
080800
09ffc0
810840
410840
21ffc0
210840
010840
010840
09ffc0
080800
100880
100900
100600
200400
200a00
403120
40c0a0
470060
ENDCHAR
STARTCHAR 17-45
ENCODING 12621
SWIDTH 1010 0
DWIDTH 20 0
BBX 20 20 0 -3
BITMAP
002200
002200
fdffe0
202200
202200
200800
200800
20ff80
fc8880
208880
208880
208880
23ffe0
201400
2c1400
302200
c04100
008080
010040
060020
ENDCHAR
STARTCHAR 17-46
ENCODING 12622
SWIDTH 1010 0
DWIDTH 20 0
BBX 20 20 0 -3
BITMAP
000000
7ffe00
080200
080200
0807c0
1fe440
102040
264040
218080
464080
982300
000000
000000
1fff00
111100
111100
111100
111100
ffffe0
000000
ENDCHAR
STARTCHAR 17-47
ENCODING 12623
SWIDTH 1010 0
DWIDTH 20 0
BBX 20 20 0 -3
BITMAP
400000
407fe0
470200
780400
400800
40bf80
3fa080
002080
013f80
0e2080
782080
083f80
082080
ffa080
1c2080
2a3f80
290800
491300
882080
08c040
ENDCHAR
STARTCHAR 17-48
ENCODING 12624
SWIDTH 1010 0
DWIDTH 20 0
BBX 20 20 0 -3
BITMAP
400000
437fe0
4c0200
700400
400800
40bf80
3fa080
002080
003f80
7f2080
002080
003f80
ffa080
082080
2a2080
293f80
490800
891300
082080
18c040
ENDCHAR
STARTCHAR 17-49
ENCODING 12625
SWIDTH 1010 0
DWIDTH 20 0
BBX 20 20 0 -3
BITMAP
040400
040400
040400
ffffe0
040400
044400
004000
004000
0ffe00
084200
084200
084200
084200
ffffe0
00a000
011000
020800
0c0600
300180
c00060
ENDCHAR
STARTCHAR 17-50
ENCODING 12626
SWIDTH 1010 0
DWIDTH 20 0
BBX 20 20 0 -3
BITMAP
108000
1083c0
208000
23f000
411000
411000
97fc00
1003e0
23f080
221080
621080
63f080
a04080
204080
27f080
224080
224080
2ff880
204080
204180
ENDCHAR
STARTCHAR 17-51
ENCODING 12627
SWIDTH 1010 0
DWIDTH 20 0
BBX 20 20 0 -3
BITMAP
007000
780c00
000000
000000
fdf800
000840
000840
780880
03ec80
002d00
782d00
002a00
004a00
f84900
888900
888880
890880
8a0840
f80820
003800
ENDCHAR
STARTCHAR 17-52
ENCODING 12628
SWIDTH 1010 0
DWIDTH 20 0
BBX 20 20 0 -3
BITMAP
084080
082080
141100
121200
210400
217f80
404080
7e4080
884080
084080
ff7f80
081200
0a1200
4a1200
2c1200
282200
0b2200
1c4220
e08220
0301e0
ENDCHAR
STARTCHAR 17-53
ENCODING 12629
SWIDTH 1010 0
DWIDTH 20 0
BBX 20 20 0 -3
BITMAP
200800
100800
080800
0bffe0
804400
404400
208400
208fc0
018840
019440
129280
14b280
10c980
208900
208500
208200
408500
408880
409040
40a020
ENDCHAR
STARTCHAR 17-54
ENCODING 12630
SWIDTH 1010 0
DWIDTH 20 0
BBX 20 20 0 -3
BITMAP
002000
002000
1fffe0
900000
500000
50fc00
508400
108400
108400
310420
5603e0
900000
17fe00
210200
208400
204800
403000
40cc00
830300
1c00e0
ENDCHAR
STARTCHAR 17-55
ENCODING 12631
SWIDTH 1010 0
DWIDTH 20 0
BBX 20 20 0 -3
BITMAP
100200
080400
040800
041000
002000
ffffe0
011000
020800
040400
080200
100100
200080
c00060
1fff00
111100
111100
111100
111100
ffffe0
000000
ENDCHAR
STARTCHAR 17-56
ENCODING 12632
SWIDTH 1010 0
DWIDTH 20 0
BBX 20 20 0 -3
BITMAP
000000
7fdfc0
441040
441040
441040
7f9040
441040
441040
7f9fc0
441200
441200
441200
7fd100
005100
2a5100
aa5080
aa5080
a09040
80a020
01a020
ENDCHAR
STARTCHAR 17-57
ENCODING 12633
SWIDTH 1010 0
DWIDTH 20 0
BBX 20 20 0 -3
BITMAP
104100
102100
101200
101200
500400
58ff80
548080
528080
928080
908080
10ff80
100400
102400
102400
102400
104400
104400
108420
110420
1603e0
ENDCHAR
STARTCHAR 17-58
ENCODING 12634
SWIDTH 1010 0
DWIDTH 20 0
BBX 20 20 0 -3
BITMAP
000000
7c7fc0
004040
004040
fe7fc0
004040
004040
7c7fc0
002000
002000
7c7fe0
008020
014420
7c5820
446020
444020
444220
443e40
7c0040
0001c0
ENDCHAR
STARTCHAR 17-59
ENCODING 12635
SWIDTH 1010 0
DWIDTH 20 0
BBX 20 20 0 -3
BITMAP
080480
080440
080440
7f0400
087fe0
084400
084440
ffc440
084240
084280
084280
4f4900
485100
486320
4844a0
699860
586020
480000
470000
80ffe0
ENDCHAR
STARTCHAR 17-60
ENCODING 12636
SWIDTH 1010 0
DWIDTH 20 0
BBX 20 20 0 -3
BITMAP
000000
7f1fc0
411040
411040
7f1fc0
411040
411040
7f1fc0
400040
421040
412040
414040
47f840
440840
440840
47f840
412040
422040
442440
581dc0
ENDCHAR
STARTCHAR 17-61
ENCODING 12637
SWIDTH 1010 0
DWIDTH 20 0
BBX 20 20 0 -3
BITMAP
100000
11ffe0
100800
101000
fe7f80
104080
107f80
384080
347f80
524080
524080
507f80
502000
902000
907f80
10a100
131200
100c00
107380
138060
ENDCHAR
STARTCHAR 17-62
ENCODING 12638
SWIDTH 1010 0
DWIDTH 20 0
BBX 20 20 0 -3
BITMAP
000000
3fffe0
200000
200240
2fc220
284220
2fc200
284200
2fdfe0
200200
200200
2fc200
284500
284500
4fc500
484880
4fc880
484840
885040
08d020
ENDCHAR
STARTCHAR 17-63
ENCODING 12639
SWIDTH 1010 0
DWIDTH 20 0
BBX 20 20 0 -3
BITMAP
000000
7fffc0
404040
404040
404040
404040
404040
404040
404040
404040
7fffc0
400040
400040
400040
400040
400040
400040
400040
400040
4001c0
ENDCHAR
STARTCHAR 17-64
ENCODING 12640
SWIDTH 1010 0
DWIDTH 20 0
BBX 20 20 0 -3
BITMAP
000000
7fffc0
404040
404040
47fc40
404040
5fff40
400040
47fc40
440440
440440
47fc40
40c140
417640
424840
444440
584240
404040
7fffc0
000000
ENDCHAR
STARTCHAR 17-65
ENCODING 12641
SWIDTH 1010 0
DWIDTH 20 0
BBX 20 20 0 -3
BITMAP
200000
23ffe0
220000
227f80
224080
227f80
fe4080
227f80
221000
221000
22ffc0
222100
227a00
3a0600
221900
c2e080
020000
020000
03ffe0
000000
ENDCHAR
STARTCHAR 17-66
ENCODING 12642
SWIDTH 1010 0
DWIDTH 20 0
BBX 20 20 0 -3
BITMAP
008000
008000
010000
ffffe0
021000
040800
084600
104180
3fff60
d04100
104100
1fff00
104100
104100
1fff00
004000
004000
004040
004040
003fc0
ENDCHAR
STARTCHAR 17-67
ENCODING 12643
SWIDTH 1010 0
DWIDTH 20 0
BBX 20 20 0 -3
BITMAP
004000
004000
ffffe0
800020
800020
0ffe00
080200
0ffe00
080200
0ffe00
008000
010000
ffffe0
020400
040800
0f1000
00e000
019c00
060300
780080
ENDCHAR
STARTCHAR 17-68
ENCODING 12644
SWIDTH 1010 0
DWIDTH 20 0
BBX 20 20 0 -3
BITMAP
000000
f803c0
08fc00
100400
100400
200400
204400
7c4400
4447c0
044400
044400
084400
884400
484400
304400
11ffe0
280000
260000
41c000
803fe0
ENDCHAR
STARTCHAR 17-69
ENCODING 12645
SWIDTH 1010 0
DWIDTH 20 0
BBX 20 20 0 -3
BITMAP
100000
101f80
1f9080
209080
209080
409080
b11180
0d1000
021000
041020
081020
308fe0
c04000
022000
122180
120040
220020
420220
820200
01fe00
ENDCHAR
STARTCHAR 17-70
ENCODING 12646
SWIDTH 1010 0
DWIDTH 20 0
BBX 20 20 0 -3
BITMAP
101000
101000
101000
13ffe0
102400
fc2200
104980
108860
11ff80
128880
108880
1cff80
308880
d08880
108880
10ff80
100800
100820
100820
3007e0
ENDCHAR
STARTCHAR 17-71
ENCODING 12647
SWIDTH 1010 0
DWIDTH 20 0
BBX 20 20 0 -3
BITMAP
1000c0
100700
11f880
109100
104900
fc4a00
11ffc0
101000
101000
13ffe0
102000
1c2000
307f80
d04080
10a100
111200
120c00
141600
106180
318060
ENDCHAR
STARTCHAR 17-72
ENCODING 12648
SWIDTH 1010 0
DWIDTH 20 0
BBX 20 20 0 -3
BITMAP
204400
104400
084400
084200
808200
408200
208100
210100
010080
020040
140020
11ff00
110100
210100
210100
210100
210100
410100
41ff00
400000
ENDCHAR
STARTCHAR 17-73
ENCODING 12649
SWIDTH 1010 0
DWIDTH 20 0
BBX 20 20 0 -3
BITMAP
200800
100800
080800
0bffe0
820020
420020
20ff80
200800
000800
08ffc0
088840
108840
10ffc0
108840
208840
20ffc0
200000
402300
40c0c0
430020
ENDCHAR
STARTCHAR 17-74
ENCODING 12650
SWIDTH 1010 0
DWIDTH 20 0
BBX 20 20 0 -3
BITMAP
004000
004100
044100
044200
084400
10b000
010c00
020300
0c0080
704040
004000
084100
08c100
10a200
212400
011000
020800
040400
180300
e000e0
ENDCHAR
STARTCHAR 17-75
ENCODING 12651
SWIDTH 1010 0
DWIDTH 20 0
BBX 20 20 0 -3
BITMAP
080400
080400
080fe0
080820
291020
292040
2a4080
2a0100
4c4000
484fe0
084820
084820
144820
124fe0
124820
114820
214820
204820
204fe0
404000
ENDCHAR
STARTCHAR 17-76
ENCODING 12652
SWIDTH 1010 0
DWIDTH 20 0
BBX 20 20 0 -3
BITMAP
100000
11ffe0
101200
101200
521200
54ffc0
549240
589240
909240
909240
10ffc0
100800
280800
240800
24ffc0
220800
420800
400800
41ffe0
800000
ENDCHAR
STARTCHAR 17-77
ENCODING 12653
SWIDTH 1010 0
DWIDTH 20 0
BBX 20 20 0 -3
BITMAP
020800
020800
ffffe0
020800
020800
03f800
080200
080220
f9f240
091280
091300
191200
291200
c9f220
0801e0
000000
221080
210840
408420
808420
ENDCHAR
STARTCHAR 17-78
ENCODING 12654
SWIDTH 1010 0
DWIDTH 20 0
BBX 20 20 0 -3
BITMAP
020800
820800
44ffc0
280800
100800
11ffe0
280000
480000
88ff80
148080
148080
24ff80
242400
444420
84c240
074280
084100
085880
28e040
130020
ENDCHAR
STARTCHAR 17-79
ENCODING 12655
SWIDTH 1010 0
DWIDTH 20 0
BBX 20 20 0 -3
BITMAP
100000
107f80
200080
240080
c47f80
480080
280080
11ffe0
241200
422a20
fe4a40
129980
512500
584d00
559480
542480
544440
918840
100820
103000
ENDCHAR
STARTCHAR 17-80
ENCODING 12656
SWIDTH 1010 0
DWIDTH 20 0
BBX 20 20 0 -3
BITMAP
120800
120800
7f8f80
528880
7f9080
529100
7fbfc0
001240
ffd240
001240
7f9240
409240
409fc0
7f9000
211000
121000
141000
01d020
3e1020
c00fe0
ENDCHAR
STARTCHAR 17-81
ENCODING 12657
SWIDTH 1010 0
DWIDTH 20 0
BBX 20 20 0 -3
BITMAP
020800
020800
020800
ffffe0
020800
020800
100000
100000
1f3f80
212080
212080
412080
a22080
122080
142380
042000
082000
102020
202020
c01fe0
ENDCHAR
STARTCHAR 17-82
ENCODING 12658
SWIDTH 1010 0
DWIDTH 20 0
BBX 20 20 0 -3
BITMAP
020800
ffffe0
020800
000000
7fffc0
404040
47fc40
404040
4ffe40
400040
47fc40
440440
47fc40
40e240
415440
464840
584640
404040
7fffc0
000000
ENDCHAR
STARTCHAR 17-83
ENCODING 12659
SWIDTH 1010 0
DWIDTH 20 0
BBX 20 20 0 -3
BITMAP
000800
400800
21ffc0
100800
100800
03ffe0
000000
00ff80
f08080
108080
10ff80
101820
102840
104e80
118900
160880
100840
280800
460000
81ffe0
ENDCHAR
STARTCHAR 17-84
ENCODING 12660
SWIDTH 1010 0
DWIDTH 20 0
BBX 20 20 0 -3
BITMAP
081200
081200
141200
121100
212100
212080
402080
7e4040
888020
080000
ff0000
083f80
0a2080
4a2080
2c2080
282080
0b2080
1c2080
e03f80
000000
ENDCHAR
STARTCHAR 17-85
ENCODING 12661
SWIDTH 1010 0
DWIDTH 20 0
BBX 20 20 0 -3
BITMAP
080000
081f80
1f9080
209080
5113a0
8a1020
04cfe0
190000
effe00
080200
0ffe00
080200
0ffe00
080000
0fff00
080000
2fffc0
249040
424840
8249c0
ENDCHAR
STARTCHAR 17-86
ENCODING 12662
SWIDTH 1010 0
DWIDTH 20 0
BBX 20 20 0 -3
BITMAP
204000
204000
204000
20ffc0
208000
fd0000
217f00
224100
204100
207f00
200000
200000
2dff80
312480
c12480
012480
012480
012480
07ffe0
000000
ENDCHAR
STARTCHAR 17-87
ENCODING 12663
SWIDTH 1010 0
DWIDTH 20 0
BBX 20 20 0 -3
BITMAP
080400
080400
080400
080a00
ff8a00
101100
101100
101080
1f2080
112040
114c20
118200
110100
210100
211800
210400
210200
420100
420080
860080
ENDCHAR
STARTCHAR 17-88
ENCODING 12664
SWIDTH 1010 0
DWIDTH 20 0
BBX 20 20 0 -3
BITMAP
200000
10ffc0
080800
080800
001000
801000
41ffe0
202000
202000
004000
087f80
088080
108080
100080
100080
200100
200100
400200
400200
400c00
ENDCHAR
STARTCHAR 17-89
ENCODING 12665
SWIDTH 1010 0
DWIDTH 20 0
BBX 20 20 0 -3
BITMAP
040000
043fe0
242220
242220
243fe0
3fa220
242220
242220
443fe0
040000
3f8400
040400
047fe0
040420
040820
058820
061020
182040
60c040
030180
ENDCHAR
STARTCHAR 17-90
ENCODING 12666
SWIDTH 1010 0
DWIDTH 20 0
BBX 20 20 0 -3
BITMAP
000000
000000
7e0fc0
420840
420840
420840
420840
420840
420840
43f840
400040
400040
400040
400040
400040
400040
7fffc0
400000
000000
000000
ENDCHAR
STARTCHAR 17-91
ENCODING 12667
SWIDTH 1010 0
DWIDTH 20 0
BBX 20 20 0 -3
BITMAP
004000
004000
004000
004000
0ffe00
084200
084200
084200
084200
084200
084200
ffffe0
00a000
012000
011000
020800
040400
080200
300180
c00060
ENDCHAR
STARTCHAR 17-92
ENCODING 12668
SWIDTH 1010 0
DWIDTH 20 0
BBX 20 20 0 -3
BITMAP
004000
008000
010000
3fff80
200080
244480
224880
225080
2ffc80
20e080
215080
224880
2c4480
208080
208080
ffffe0
011000
060c00
180300
e000e0
ENDCHAR
STARTCHAR 17-93
ENCODING 12669
SWIDTH 1010 0
DWIDTH 20 0
BBX 20 20 0 -3
BITMAP
041000
040800
080400
100400
200000
41ffc0
840800
040800
080800
100800
300800
50ff80
900800
100800
100800
100800
100800
100800
13ffe0
100000
ENDCHAR
STARTCHAR 17-94
ENCODING 12670
SWIDTH 1010 0
DWIDTH 20 0
BBX 20 20 0 -3
BITMAP
002000
002000
002000
3fffe0
200000
202000
201000
200800
208400
208400
208000
248100
248080
248040
248020
488020
488000
508080
808080
807f80
ENDCHAR
STARTCHAR 18-01
ENCODING 12833
SWIDTH 1010 0
DWIDTH 20 0
BBX 20 20 0 -3
BITMAP
080000
087fe0
084420
084420
084420
7f4420
087fe0
084420
084420
084420
0b4420
0c7fe0
180400
680400
080400
080400
080400
080400
080400
180400
ENDCHAR
STARTCHAR 18-02
ENCODING 12834
SWIDTH 1010 0
DWIDTH 20 0
BBX 20 20 0 -3
BITMAP
000000
03ffc0
f81000
881000
881000
881000
881000
881000
f81000
89ff80
881000
881000
881000
881000
881000
f81000
801000
001000
07ffe0
000000
ENDCHAR
STARTCHAR 18-03
ENCODING 12835
SWIDTH 1010 0
DWIDTH 20 0
BBX 20 20 0 -3
BITMAP
102200
102200
11ffc0
102200
fc2200
102200
33ffe0
380800
540800
54ff80
548880
508880
90ff80
908880
108880
10ff80
100000
102300
10c0c0
130020
ENDCHAR
STARTCHAR 18-04
ENCODING 12836
SWIDTH 1010 0
DWIDTH 20 0
BBX 20 20 0 -3
BITMAP
001000
001000
ff9000
801000
813fe0
812420
824440
b24480
8c8400
840400
8a0400
890a00
910a00
a00a00
c01100
801100
ffa080
002080
004040
018020
ENDCHAR
STARTCHAR 18-05
ENCODING 12837
SWIDTH 1010 0
DWIDTH 20 0
BBX 20 20 0 -3
BITMAP
000000
001f00
ff9100
801100
811100
812120
822120
b240e0
8c8000
840000
8a7f80
891080
911100
a00900
c00a00
800400
ff8a00
001100
006080
018060
ENDCHAR
STARTCHAR 18-06
ENCODING 12838
SWIDTH 1010 0
DWIDTH 20 0
BBX 20 20 0 -3
BITMAP
000000
000000
7fffc0
004000
004000
004000
004000
004000
004000
004000
1fff00
004000
004000
004000
004000
004000
004000
004000
ffffe0
000000
ENDCHAR
STARTCHAR 18-07
ENCODING 12839
SWIDTH 1010 0
DWIDTH 20 0
BBX 20 20 0 -3
BITMAP
011000
020800
040400
088200
310180
c10860
020400
047a00
1f8200
000000
000000
ff3fc0
010040
611840
110440
050140
190640
210840
c13040
0300c0
ENDCHAR
STARTCHAR 18-08
ENCODING 12840
SWIDTH 1010 0
DWIDTH 20 0
BBX 20 20 0 -3
BITMAP
100800
100800
101000
10ff80
fc8080
04c980
08aa80
08ff80
109c80
12aa80
34ca80
588080
948880
140800
15ffe0
101400
102200
104100
108080
130060
ENDCHAR
STARTCHAR 18-09
ENCODING 12841
SWIDTH 1010 0
DWIDTH 20 0
BBX 20 20 0 -3
BITMAP
088200
044400
044800
001000
ffffe0
808020
810020
0ffe00
080200
0ffe00
080200
0ffe00
080000
0fff00
080000
0fffc0
200040
244840
422440
822580
ENDCHAR
STARTCHAR 18-10
ENCODING 12842
SWIDTH 1010 0
DWIDTH 20 0
BBX 20 20 0 -3
BITMAP
000200
000400
7f8800
403f80
412080
412080
523f80
4a2080
442080
443f80
4a2000
4a3fe0
522000
603fe0
400020
7faaa0
402aa0
004820
004020
0000c0
ENDCHAR
STARTCHAR 18-11
ENCODING 12843
SWIDTH 1010 0
DWIDTH 20 0
BBX 20 20 0 -3
BITMAP
020800
020800
3fff80
020800
020800
020800
ffffe0
004000
004000
1fff00
104100
104100
1fff00
104100
104100
1fff00
010000
021c00
0c0300
7000c0
ENDCHAR
STARTCHAR 18-12
ENCODING 12844
SWIDTH 1010 0
DWIDTH 20 0
BBX 20 20 0 -3
BITMAP
000000
7fffc0
400040
440440
420840
411040
412040
4ffe40
404040
404040
444440
444440
444440
444440
444440
47fc40
400040
400040
400040
4001c0
ENDCHAR
STARTCHAR 18-13
ENCODING 12845
SWIDTH 1010 0
DWIDTH 20 0
BBX 20 20 0 -3
BITMAP
100400
080400
040400
040400
000400
40ffe0
208420
108420
108420
008420
048420
048420
08ffe0
080400
080400
100400
100400
200400
200400
200400
ENDCHAR
STARTCHAR 18-14
ENCODING 12846
SWIDTH 1010 0
DWIDTH 20 0
BBX 20 20 0 -3
BITMAP
020800
020800
ffffe0
020800
020800
000000
010400
620400
142440
082440
142480
624500
064a00
0a0a00
120a00
221100
c21100
042080
044040
198020
ENDCHAR
STARTCHAR 18-15
ENCODING 12847
SWIDTH 1010 0
DWIDTH 20 0
BBX 20 20 0 -3
BITMAP
080800
080800
080800
11ffc0
104100
302200
302400
53ffe0
500000
90ff80
108080
10ff80
108080
10ff80
100000
104840
114420
114420
124080
143f80
ENDCHAR
STARTCHAR 18-16
ENCODING 12848
SWIDTH 1010 0
DWIDTH 20 0
BBX 20 20 0 -3
BITMAP
000000
1fff80
100080
100080
1fff80
100000
100000
1fffc0
104000
104200
108100
108e80
13f080
201000
201000
27ffc0
201000
401000
4fffe0
800000
ENDCHAR
STARTCHAR 18-17
ENCODING 12849
SWIDTH 1010 0
DWIDTH 20 0
BBX 20 20 0 -3
BITMAP
100800
100800
100800
51ffc0
584100
542200
942400
93ffe0
900000
10ff80
108080
10ff80
108080
10ff80
100000
104840
114420
114420
124080
143f80
ENDCHAR
STARTCHAR 18-18
ENCODING 12850
SWIDTH 1010 0
DWIDTH 20 0
BBX 20 20 0 -3
BITMAP
000800
3c0800
240800
25ffc0
244100
242200
3c2400
27ffe0
240000
24ff80
248080
24ff80
3c8080
24ff80
240000
242440
44a220
44a220
452080
8d1f80
ENDCHAR
STARTCHAR 18-19
ENCODING 12851
SWIDTH 1010 0
DWIDTH 20 0
BBX 20 20 0 -3
BITMAP
040000
043fe0
040040
040080
7f8900
040600
0c0200
0e3fe0
152220
152220
14bfe0
14a220
242220
242220
443fe0
042220
042220
042220
042220
042260
ENDCHAR
STARTCHAR 18-20
ENCODING 12852
SWIDTH 1010 0
DWIDTH 20 0
BBX 20 20 0 -3
BITMAP
080800
080800
480800
480800
480800
7f0800
480800
88ffc0
880800
080800
080800
0b0800
0c0800
180800
280800
c80800
080800
080800
09ffe0
080000
ENDCHAR
STARTCHAR 18-21
ENCODING 12853
SWIDTH 1010 0
DWIDTH 20 0
BBX 20 20 0 -3
BITMAP
000000
3fff00
000600
000800
003000
004000
008000
010000
020000
040000
080000
100000
200000
200000
400000
400000
200020
180020
07ffe0
000000
ENDCHAR
STARTCHAR 18-22
ENCODING 12854
SWIDTH 1010 0
DWIDTH 20 0
BBX 20 20 0 -3
BITMAP
081000
081000
081000
13ffe0
102400
104200
309100
311080
57ff60
511100
911100
11ff00
111100
111100
11ff00
101000
101000
101020
101020
100fe0
ENDCHAR
STARTCHAR 18-23
ENCODING 12855
SWIDTH 1010 0
DWIDTH 20 0
BBX 20 20 0 -3
BITMAP
080000
080fe0
100820
1fe820
220820
420820
020820
7ff820
020820
020820
120820
13e820
120820
120820
120820
1268e0
138800
1c0800
700800
000800
ENDCHAR
STARTCHAR 18-24
ENCODING 12856
SWIDTH 1010 0
DWIDTH 20 0
BBX 20 20 0 -3
BITMAP
000000
1fff00
100100
104100
104100
17fd00
10a100
109100
110900
160900
100100
1fff00
000000
004000
022080
221040
221020
420220
820200
01fe00
ENDCHAR
STARTCHAR 18-25
ENCODING 12857
SWIDTH 1010 0
DWIDTH 20 0
BBX 20 20 0 -3
BITMAP
200000
10ff00
088100
088100
00ff00
808100
408100
20ff00
200000
000000
080000
09ff80
112480
112480
112480
212480
212480
412480
47ffe0
400000
ENDCHAR
STARTCHAR 18-26
ENCODING 12858
SWIDTH 1010 0
DWIDTH 20 0
BBX 20 20 0 -3
BITMAP
0600c0
180700
f1f880
109080
104900
104a00
fe0000
10ff80
100080
30ff80
380080
540080
52ff80
520000
500880
914440
914420
124120
144100
103f00
ENDCHAR
STARTCHAR 18-27
ENCODING 12859
SWIDTH 1010 0
DWIDTH 20 0
BBX 20 20 0 -3
BITMAP
004000
004000
004000
7fffc0
080400
040400
040400
000800
ffffe0
000000
000000
0ffe00
080200
080200
0ffe00
080200
080200
080200
0ffe00
000000
ENDCHAR
STARTCHAR 18-28
ENCODING 12860
SWIDTH 1010 0
DWIDTH 20 0
BBX 20 20 0 -3
BITMAP
000000
000000
ffffe0
004000
004000
004000
004000
006000
005800
004400
004200
004200
004000
004000
004000
004000
004000
004000
004000
004000
ENDCHAR
STARTCHAR 18-29
ENCODING 12861
SWIDTH 1010 0
DWIDTH 20 0
BBX 20 20 0 -3
BITMAP
022000
022000
042000
042000
082080
082080
182100
182200
282400
482800
883000
082000
082000
082000
082000
082000
082000
082020
081020
080fe0
ENDCHAR
STARTCHAR 18-30
ENCODING 12862
SWIDTH 1010 0
DWIDTH 20 0
BBX 20 20 0 -3
BITMAP
080000
080000
08ffe0
108000
108000
108000
308000
30ff80
50a080
50a080
90a100
111100
111200
110a00
110400
120c00
121200
142100
10c080
130060
ENDCHAR
STARTCHAR 18-31
ENCODING 12863
SWIDTH 1010 0
DWIDTH 20 0
BBX 20 20 0 -3
BITMAP
080000
080000
0bffe0
100080
100080
100080
31f880
310880
510880
510880
910880
110880
11f880
110080
100080
100080
100080
100080
100080
100380
ENDCHAR
STARTCHAR 18-32
ENCODING 12864
SWIDTH 1010 0
DWIDTH 20 0
BBX 20 20 0 -3
BITMAP
088000
088000
088000
108000
17f7c0
109440
309440
309440
509440
509440
909440
109440
109440
111440
111440
111440
111440
1227c0
122400
146000
ENDCHAR
STARTCHAR 18-33
ENCODING 12865
SWIDTH 1010 0
DWIDTH 20 0
BBX 20 20 0 -3
BITMAP
080000
080000
0bffe0
102400
102400
102400
302400
31ff80
512480
512480
912480
112480
112480
112480
112480
112480
112480
112480
11ff80
100000
ENDCHAR
STARTCHAR 18-34
ENCODING 12866
SWIDTH 1010 0
DWIDTH 20 0
BBX 20 20 0 -3
BITMAP
080800
080800
080800
100800
10ffc0
100800
300800
300800
500800
53ffe0
900000
100800
100800
100800
10ffc0
100800
100800
100800
100800
13ffe0
ENDCHAR
STARTCHAR 18-35
ENCODING 12867
SWIDTH 1010 0
DWIDTH 20 0
BBX 20 20 0 -3
BITMAP
040000
040000
040000
040000
7fc7e0
044420
044420
044420
044420
044420
044420
084420
084420
084420
084420
104420
108420
2087e0
208400
430000
ENDCHAR
STARTCHAR 18-36
ENCODING 12868
SWIDTH 1010 0
DWIDTH 20 0
BBX 20 20 0 -3
BITMAP
000000
ffffe0
000100
000100
000100
000100
1fc100
104100
104100
104100
104100
104100
1fc100
100100
000100
000100
000100
000100
000100
000700
ENDCHAR
STARTCHAR 18-37
ENCODING 12869
SWIDTH 1010 0
DWIDTH 20 0
BBX 20 20 0 -3
BITMAP
004000
004000
ffffe0
004000
3fff80
000000
1fff00
100100
100100
1fff00
020800
011000
ffffe0
040000
040000
7f9f80
089080
089080
109f80
638000
ENDCHAR
STARTCHAR 18-38
ENCODING 12870
SWIDTH 1010 0
DWIDTH 20 0
BBX 20 20 0 -3
BITMAP
000000
ffffe0
004000
008000
0ffe00
080200
0ffe00
080200
0ffe00
080200
0ffe00
010000
020000
07fe00
1a0400
611800
00e000
01b000
0e0e00
f001e0
ENDCHAR
STARTCHAR 18-39
ENCODING 12871
SWIDTH 1010 0
DWIDTH 20 0
BBX 20 20 0 -3
BITMAP
100400
100400
100400
10ffe0
208020
fc8020
247f80
240a00
441220
442a20
48c940
880d80
e81500
906480
098a80
141240
146240
218220
400200
800c00
ENDCHAR
STARTCHAR 18-40
ENCODING 12872
SWIDTH 1010 0
DWIDTH 20 0
BBX 20 20 0 -3
BITMAP
004000
004000
004000
ffffe0
800020
800020
1ffe00
009000
031040
0c9080
304900
00ca00
032400
0c2400
706200
01a100
062080
182040
e02000
00c000
ENDCHAR
STARTCHAR 18-41
ENCODING 12873
SWIDTH 1010 0
DWIDTH 20 0
BBX 20 20 0 -3
BITMAP
004000
004000
ffffe0
800020
9fff20
008000
0ffe00
080200
0ffe00
080200
0ffe00
080200
ffffe0
040800
080400
1ffe00
208580
c10460
060400
381c00
ENDCHAR
STARTCHAR 18-42
ENCODING 12874
SWIDTH 1010 0
DWIDTH 20 0
BBX 20 20 0 -3
BITMAP
030100
0c0100
782100
081100
080900
080900
ff8100
080100
184100
1c2100
2a1100
2a1100
290100
4901e0
481f00
88e100
080100
080100
080100
080100
ENDCHAR
STARTCHAR 18-43
ENCODING 12875
SWIDTH 1010 0
DWIDTH 20 0
BBX 20 20 0 -3
BITMAP
000000
03efc0
f22040
922040
922040
922040
93efc0
920000
f20000
920000
93efc0
920440
920440
920280
920280
f3e100
020280
020480
021840
026020
ENDCHAR
STARTCHAR 18-44
ENCODING 12876
SWIDTH 1010 0
DWIDTH 20 0
BBX 20 20 0 -3
BITMAP
000000
1fff00
104100
104100
104100
1fff00
104100
104100
104100
1fff00
004000
004000
ffffe0
00d000
014800
024400
0c4200
304180
c04060
004000
ENDCHAR
STARTCHAR 18-45
ENCODING 12877
SWIDTH 1010 0
DWIDTH 20 0
BBX 20 20 0 -3
BITMAP
080000
080000
080000
ff9fc0
089040
089040
109040
109040
211040
411fc0
860000
004000
004000
ffffe0
00d000
014800
064600
184180
e04060
004000
ENDCHAR
STARTCHAR 18-46
ENCODING 12878
SWIDTH 1010 0
DWIDTH 20 0
BBX 20 20 0 -3
BITMAP
001000
ff9000
021000
7a1000
4a3fe0
7a2420
024440
024480
0e8400
010400
ff8400
020a00
7a0a00
4a0a00
4a1100
7a1100
022080
022080
024040
0e8020
ENDCHAR
STARTCHAR 18-47
ENCODING 12879
SWIDTH 1010 0
DWIDTH 20 0
BBX 20 20 0 -3
BITMAP
200000
100000
0bffe0
080100
000100
800100
41f100
211100
211100
011100
091100
091100
11f100
110100
100100
200100
200100
400100
400100
400700
ENDCHAR
STARTCHAR 18-48
ENCODING 12880
SWIDTH 1010 0
DWIDTH 20 0
BBX 20 20 0 -3
BITMAP
004000
004000
004000
004000
004000
084080
084080
084080
084100
104100
10a200
20a000
011000
011000
020800
040400
080200
100100
200080
c00060
ENDCHAR
STARTCHAR 18-49
ENCODING 12881
SWIDTH 1010 0
DWIDTH 20 0
BBX 20 20 0 -3
BITMAP
000000
000000
feffe0
100080
100080
100080
107c80
104480
fe4480
104480
104480
104480
107c80
104080
160080
380080
c00080
000080
000080
000380
ENDCHAR
STARTCHAR 18-50
ENCODING 12882
SWIDTH 1010 0
DWIDTH 20 0
BBX 20 20 0 -3
BITMAP
080000
083f80
082080
082080
7e2080
022780
022480
042480
042480
08ffe0
0c8020
1a8020
2a9f20
4a9120
089120
089f20
089020
088020
088020
0880e0
ENDCHAR
STARTCHAR 18-51
ENCODING 12883
SWIDTH 1010 0
DWIDTH 20 0
BBX 20 20 0 -3
BITMAP
000300
003c00
1fc000
004000
004000
004000
004000
004000
ffffe0
00e000
015000
015000
024800
044400
084200
104100
204080
c04060
004000
004000
ENDCHAR
STARTCHAR 18-52
ENCODING 12884
SWIDTH 1010 0
DWIDTH 20 0
BBX 20 20 0 -3
BITMAP
060800
180800
f00800
11ffe0
110020
110020
fe7f80
100a00
301220
382a20
54c940
520980
521500
506480
918c80
901440
106440
118420
100400
101800
ENDCHAR
STARTCHAR 18-53
ENCODING 12885
SWIDTH 1010 0
DWIDTH 20 0
BBX 20 20 0 -3
BITMAP
100800
100800
3f9fe0
482400
844200
040200
3fff80
200080
204080
2ffe80
204080
204080
23f880
220880
220880
23f880
200080
200080
3fff80
000000
ENDCHAR
STARTCHAR 18-54
ENCODING 12886
SWIDTH 1010 0
DWIDTH 20 0
BBX 20 20 0 -3
BITMAP
020800
020800
020800
ffffe0
020800
020800
000000
042000
042040
082080
082100
182600
283800
482000
882000
082000
082000
082020
082020
081fe0
ENDCHAR
STARTCHAR 18-55
ENCODING 12887
SWIDTH 1010 0
DWIDTH 20 0
BBX 20 20 0 -3
BITMAP
020800
020800
020800
ffffe0
020800
020800
000000
ffffe0
000200
000200
000200
0fe200
082200
082200
082200
0fe200
080200
000200
000200
000e00
ENDCHAR
STARTCHAR 18-56
ENCODING 12888
SWIDTH 1010 0
DWIDTH 20 0
BBX 20 20 0 -3
BITMAP
020800
020800
020800
ffffe0
020800
020800
080000
080000
081f80
7f9080
089080
089080
089080
109080
109080
109080
111080
211080
211f80
460000
ENDCHAR
STARTCHAR 18-57
ENCODING 12889
SWIDTH 1010 0
DWIDTH 20 0
BBX 20 20 0 -3
BITMAP
020800
020800
020800
ffffe0
020800
020800
100000
100000
17ffe0
200100
200100
63f100
621100
a21100
221100
23f100
200100
200100
200100
200700
ENDCHAR
STARTCHAR 18-58
ENCODING 12890
SWIDTH 1010 0
DWIDTH 20 0
BBX 20 20 0 -3
BITMAP
020800
020800
ffffe0
020800
020800
000000
7fffc0
084200
084200
ffffe0
084200
084200
7fffc0
004000
004000
7fffc0
004000
004000
004000
004000
ENDCHAR
STARTCHAR 18-59
ENCODING 12891
SWIDTH 1010 0
DWIDTH 20 0
BBX 20 20 0 -3
BITMAP
020800
020800
ffffe0
020800
020800
1fff00
104100
1fff00
104100
104100
1fff00
004000
004000
ffffe0
00e000
015000
064c00
184300
e040e0
004000
ENDCHAR
STARTCHAR 18-60
ENCODING 12892
SWIDTH 1010 0
DWIDTH 20 0
BBX 20 20 0 -3
BITMAP
200000
21f7c0
211040
211040
fd1040
a51040
a5f7c0
a50000
a50000
a50fc0
fde440
210440
210440
290280
25f280
2d0100
350280
c50480
010840
013020
ENDCHAR
STARTCHAR 18-61
ENCODING 12893
SWIDTH 1010 0
DWIDTH 20 0
BBX 20 20 0 -3
BITMAP
000000
7c7fc0
004440
004440
fe4440
007fc0
004440
7c4440
004440
007fc0
7c0400
000400
01ffe0
fc0e00
841500
841500
842480
844440
fd8420
000400
ENDCHAR
STARTCHAR 18-62
ENCODING 12894
SWIDTH 1010 0
DWIDTH 20 0
BBX 20 20 0 -3
BITMAP
002200
002200
fbffe0
882200
882200
880000
89ffc0
884900
884900
8bffe0
884900
884900
884900
f9ffc0
800800
000800
07ffe0
000800
000800
000800
ENDCHAR
STARTCHAR 18-63
ENCODING 12895
SWIDTH 1010 0
DWIDTH 20 0
BBX 20 20 0 -3
BITMAP
012000
0221c0
0c3e00
382000
c82020
081fe0
000000
0ffe00
080200
080200
0ffe00
080200
0ffe00
080200
080200
0ffe00
010000
023800
0c0600
700180
ENDCHAR
STARTCHAR 18-64
ENCODING 12896
SWIDTH 1010 0
DWIDTH 20 0
BBX 20 20 0 -3
BITMAP
008000
408000
208000
1087c0
17f440
009440
009440
009440
f09440
111440
111440
111440
111440
122440
1227c0
142000
106000
280000
470000
80ffe0
ENDCHAR
STARTCHAR 18-65
ENCODING 12897
SWIDTH 1010 0
DWIDTH 20 0
BBX 20 20 0 -3
BITMAP
000000
407f00
204100
104100
104f00
004900
004900
01ffc0
f10040
113e40
112240
112240
112240
113e40
110040
110040
1101c0
280000
470000
80ffe0
ENDCHAR
STARTCHAR 18-66
ENCODING 12898
SWIDTH 1010 0
DWIDTH 20 0
BBX 20 20 0 -3
BITMAP
000000
1fff80
004000
ffffe0
804020
9f5f20
804020
1f5f00
000000
7f3fc0
410040
410040
7f3fc0
400000
7f3f80
401080
400900
7f0600
401980
40e060
ENDCHAR
STARTCHAR 18-67
ENCODING 12899
SWIDTH 1010 0
DWIDTH 20 0
BBX 20 20 0 -3
BITMAP
100400
100400
100400
100400
10ffe0
fe2080
922080
922080
921100
921100
921100
fe0a00
100a00
100400
140a00
120a00
1d1100
e12080
004040
018020
ENDCHAR
STARTCHAR 18-68
ENCODING 12900
SWIDTH 1010 0
DWIDTH 20 0
BBX 20 20 0 -3
BITMAP
082500
08c480
0b8440
108440
108400
208400
27ffe0
608400
608440
a08240
208240
20b280
21c280
268100
208100
208300
2082a0
2084a0
208860
21b020
ENDCHAR
STARTCHAR 18-69
ENCODING 12901
SWIDTH 1010 0
DWIDTH 20 0
BBX 20 20 0 -3
BITMAP
201500
206480
21c440
204440
a84400
a84400
abffe0
a84400
a84420
a84220
a84240
a87240
a8c280
ab4100
f84100
804300
0042a0
0044a0
004860
00d020
ENDCHAR
STARTCHAR 18-70
ENCODING 12902
SWIDTH 1010 0
DWIDTH 20 0
BBX 20 20 0 -3
BITMAP
019100
0e1080
781040
081040
081000
081000
ffffe0
081000
081080
081080
098900
0e0900
380a00
c80600
080400
080a00
081100
082120
08c0a0
1b0060
ENDCHAR
STARTCHAR 18-71
ENCODING 12903
SWIDTH 1010 0
DWIDTH 20 0
BBX 20 20 0 -3
BITMAP
000000
1fff80
040800
040800
040800
040800
040800
040800
040800
ffffe0
001800
002800
004800
008800
030800
0c0800
300800
c00800
000800
003800
ENDCHAR
STARTCHAR 18-72
ENCODING 12904
SWIDTH 1010 0
DWIDTH 20 0
BBX 20 20 0 -3
BITMAP
000000
ffffe0
004000
004000
004000
404040
47fc40
444440
444440
444440
47fc40
444440
444440
444440
47fc40
440040
400040
400040
7fffc0
000000
ENDCHAR
STARTCHAR 18-73
ENCODING 12905
SWIDTH 1010 0
DWIDTH 20 0
BBX 20 20 0 -3
BITMAP
000400
7fc400
440400
440400
440400
440400
440400
7f8400
408a00
408a00
408a00
7f8a00
440900
441100
441100
441080
442080
7fe040
404040
008020
ENDCHAR
STARTCHAR 18-74
ENCODING 12906
SWIDTH 1010 0
DWIDTH 20 0
BBX 20 20 0 -3
BITMAP
020800
020800
ffffe0
020800
020800
000000
1fff80
040400
040400
040400
040400
ffffe0
000c00
001400
002400
00c400
030400
1c0400
e00400
001c00
ENDCHAR
STARTCHAR 18-75
ENCODING 12907
SWIDTH 1010 0
DWIDTH 20 0
BBX 20 20 0 -3
BITMAP
101500
106480
11a440
102440
fc2400
942400
95ffe0
942200
942220
942220
942a40
fc3280
106280
11a100
142100
142300
1a22a0
e224a0
022860
006820
ENDCHAR
STARTCHAR 18-76
ENCODING 12908
SWIDTH 1010 0
DWIDTH 20 0
BBX 20 20 0 -3
BITMAP
080000
080000
081f80
7f9080
089080
109080
109f80
218000
400000
0ffe00
080200
0ffe00
080200
0ffe00
080200
080200
0ffe00
010000
060f00
7800c0
ENDCHAR
STARTCHAR 18-77
ENCODING 12909
SWIDTH 1010 0
DWIDTH 20 0
BBX 20 20 0 -3
BITMAP
002000
ff2200
242200
244200
244400
24ffe0
24c400
254400
ff4400
047fc0
0c4400
0c4400
144400
147fc0
244400
244400
444400
844400
047fe0
0c0000
ENDCHAR
STARTCHAR 18-78
ENCODING 12910
SWIDTH 1010 0
DWIDTH 20 0
BBX 20 20 0 -3
BITMAP
100a80
103240
28e220
242220
422200
522200
91ffe0
7c2200
442220
7c2220
442240
442a40
7c3280
406100
49a100
442100
4422a0
5a22a0
622460
406820
ENDCHAR
STARTCHAR 18-79
ENCODING 12911
SWIDTH 1010 0
DWIDTH 20 0
BBX 20 20 0 -3
BITMAP
040000
040000
7fcfe0
044820
084820
084820
118fe0
200000
07ff80
042000
07ff00
042000
07ff00
042000
042000
07ffe0
100020
124420
212220
4122c0
ENDCHAR
STARTCHAR 18-80
ENCODING 12912
SWIDTH 1010 0
DWIDTH 20 0
BBX 20 20 0 -3
BITMAP
004000
004000
00a000
011000
020800
040400
080200
300180
c40860
040800
040800
040800
040800
040800
040800
080800
080800
100800
200800
400800
ENDCHAR
STARTCHAR 18-81
ENCODING 12913
SWIDTH 1010 0
DWIDTH 20 0
BBX 20 20 0 -3
BITMAP
004000
00a000
011000
020800
040400
080200
300180
cffc60
000000
000000
000000
7fffc0
008000
010000
020800
020400
041a00
08e200
3f0100
000100
ENDCHAR
ENDFONT
